<svg width="600" height="200" viewBox="0 0 600 200" fill="none" xmlns="http://www.w3.org/2000/svg">
<g clip-path="url(#clip0_765_648)">
<rect width="600" height="200" fill="white"/>
<path d="M0 0H600V200H0V0Z" fill="#64E469"/>
<path d="M250.568 117H230.828C229.988 117 229.568 116.58 229.568 115.74V79.68C229.568 78.84 229.988 78.42 230.828 78.42H235.928C236.768 78.42 237.188 78.84 237.188 79.68V109.68C237.188 110.12 237.428 110.34 237.908 110.34H250.568C251.368 110.34 251.768 110.78 251.768 111.66V115.74C251.768 116.58 251.368 117 250.568 117ZM285.021 110.4H289.281C290.561 110.4 291.461 110.14 291.981 109.62C292.541 109.06 292.821 108.14 292.821 106.86V88.56C292.821 87.28 292.541 86.38 291.981 85.86C291.461 85.3 290.561 85.02 289.281 85.02H285.021C283.741 85.02 282.841 85.3 282.321 85.86C281.801 86.38 281.541 87.28 281.541 88.56V106.86C281.541 108.14 281.801 109.06 282.321 109.62C282.841 110.14 283.741 110.4 285.021 110.4ZM290.541 117H283.821C280.661 117 278.221 116.16 276.501 114.48C274.781 112.8 273.921 110.38 273.921 107.22V88.2C273.921 85.04 274.781 82.62 276.501 80.94C278.221 79.26 280.661 78.42 283.821 78.42H290.541C293.701 78.42 296.141 79.26 297.861 80.94C299.581 82.62 300.441 85.04 300.441 88.2V107.22C300.441 110.38 299.581 112.8 297.861 114.48C296.141 116.16 293.701 117 290.541 117ZM341.287 117H334.927C331.767 117 329.327 116.16 327.607 114.48C325.887 112.8 325.027 110.38 325.027 107.22V88.2C325.027 85.04 325.887 82.62 327.607 80.94C329.327 79.26 331.767 78.42 334.927 78.42H341.287C344.407 78.42 346.827 79.28 348.547 81C350.267 82.68 351.127 85.08 351.127 88.2V90C351.127 90.88 350.707 91.32 349.867 91.32H344.767C343.927 91.32 343.507 90.88 343.507 90V88.56C343.507 87.28 343.247 86.38 342.727 85.86C342.207 85.3 341.307 85.02 340.027 85.02H336.127C334.887 85.02 333.987 85.3 333.427 85.86C332.907 86.38 332.647 87.28 332.647 88.56V106.86C332.647 108.14 332.907 109.06 333.427 109.62C333.987 110.14 334.887 110.4 336.127 110.4H340.027C341.307 110.4 342.207 110.14 342.727 109.62C343.247 109.06 343.507 108.14 343.507 106.86V103.08C343.507 102.64 343.287 102.42 342.847 102.42H339.247C338.407 102.42 337.987 102 337.987 101.16V97.08C337.987 96.24 338.407 95.82 339.247 95.82H349.747C350.667 95.82 351.127 96.28 351.127 97.2V107.22C351.127 110.34 350.267 112.76 348.547 114.48C346.827 116.16 344.407 117 341.287 117ZM415.425 79.68V115.74C415.425 116.58 415.005 117 414.165 117H409.065C408.225 117 407.805 116.58 407.805 115.74V79.68C407.805 78.84 408.225 78.42 409.065 78.42H414.165C415.005 78.42 415.425 78.84 415.425 79.68ZM447.742 117H442.762C441.922 117 441.502 116.58 441.502 115.74V79.68C441.502 78.84 441.922 78.42 442.762 78.42H447.262C448.102 78.42 448.662 78.7 448.942 79.26L461.062 102H461.302V79.68C461.302 78.84 461.722 78.42 462.562 78.42H467.542C468.382 78.42 468.802 78.84 468.802 79.68V115.74C468.802 116.58 468.382 117 467.542 117H463.162C462.282 117 461.642 116.6 461.242 115.8L449.242 93.48H449.002V115.74C449.002 116.58 448.582 117 447.742 117Z" fill="black"/>
<path d="M86.3334 83.7729V71.2785C86.3334 69.1326 86.3334 68.0597 87.023 67.4616C87.7126 66.8635 88.7747 67.0153 90.8991 67.3187L127.849 72.5972C130.305 72.9481 131.533 73.1236 132.266 73.9695C133 74.8153 133 76.0559 133 78.5369V121.463C133 123.944 133 125.184 132.266 126.03C131.533 126.876 130.305 127.052 127.849 127.402L90.8991 132.681C88.7747 132.984 87.7126 133.136 87.023 132.538C86.3334 131.94 86.3334 130.867 86.3334 128.721V116.886" stroke="#33363F" stroke-width="8"/>
<path d="M116.333 100L119.457 97.5014L121.456 100L119.457 102.499L116.333 100ZM76.3334 104C74.1242 104 72.3334 102.209 72.3334 100C72.3334 97.791 74.1242 96.0002 76.3334 96.0002V104ZM106.124 80.8347L119.457 97.5014L113.21 102.499L99.8766 85.8323L106.124 80.8347ZM119.457 102.499L106.124 119.166L99.8766 114.168L113.21 97.5014L119.457 102.499ZM116.333 104H76.3334V96.0002H116.333V104Z" fill="#33363F"/>
</g>
<defs>
<clipPath id="clip0_765_648">
<rect width="600" height="200" fill="white"/>
</clipPath>
</defs>
</svg>
