<svg width="600" height="200" viewBox="0 0 600 200" fill="none" xmlns="http://www.w3.org/2000/svg">
<g clip-path="url(#clip0_839_712)">
<rect width="600" height="200" fill="white"/>
<path d="M0 0H600V200H0V0Z" fill="#FCF451"/>
</g>
<path d="M192.797 118H186.257C183.097 118 180.657 117.16 178.937 115.48C177.217 113.8 176.357 111.38 176.357 108.22V89.2C176.357 86.04 177.217 83.62 178.937 81.94C180.657 80.26 183.097 79.42 186.257 79.42H192.797C195.917 79.42 198.337 80.28 200.057 82C201.817 83.68 202.697 86.08 202.697 89.2V92.02C202.697 92.9 202.257 93.34 201.377 93.34H196.337C195.497 93.34 195.077 92.9 195.077 92.02V89.56C195.077 88.28 194.797 87.38 194.237 86.86C193.717 86.3 192.817 86.02 191.537 86.02H187.457C186.217 86.02 185.317 86.3 184.757 86.86C184.237 87.38 183.977 88.28 183.977 89.56V107.86C183.977 109.14 184.237 110.06 184.757 110.62C185.317 111.14 186.217 111.4 187.457 111.4H191.537C192.817 111.4 193.717 111.14 194.237 110.62C194.797 110.06 195.077 109.14 195.077 107.86V105.4C195.077 104.52 195.497 104.08 196.337 104.08H201.377C202.257 104.08 202.697 104.52 202.697 105.4V108.22C202.697 111.34 201.817 113.76 200.057 115.48C198.337 117.16 195.917 118 192.797 118ZM237.382 118H235.942C232.782 118 230.342 117.16 228.622 115.48C226.902 113.8 226.042 111.38 226.042 108.22V97.18C226.042 94.02 226.902 91.6 228.622 89.92C230.342 88.24 232.782 87.4 235.942 87.4H249.802C250.682 87.4 251.122 87.82 251.122 88.66V116.74C251.122 117.58 250.682 118 249.802 118H244.762C243.922 118 243.502 117.58 243.502 116.74V114.76H243.262C242.822 115.84 242.042 116.66 240.922 117.22C239.802 117.74 238.622 118 237.382 118ZM243.502 106.84V94.66C243.502 94.22 243.262 94 242.782 94H237.142C235.862 94 234.962 94.28 234.442 94.84C233.922 95.36 233.662 96.26 233.662 97.54V107.86C233.662 109.14 233.922 110.06 234.442 110.62C234.962 111.14 235.862 111.4 237.142 111.4H239.362C242.122 111.4 243.502 109.88 243.502 106.84ZM282.056 118H276.956C276.116 118 275.696 117.58 275.696 116.74V88.66C275.696 87.82 276.116 87.4 276.956 87.4H282.056C282.896 87.4 283.316 87.82 283.316 88.66V90.64H283.556C284.436 88.48 286.396 87.4 289.436 87.4H291.356C297.636 87.4 300.776 90.66 300.776 97.18V116.74C300.776 117.58 300.336 118 299.456 118H294.416C293.576 118 293.156 117.58 293.156 116.74V97.54C293.156 96.26 292.876 95.36 292.316 94.84C291.796 94.28 290.896 94 289.616 94H287.456C284.696 94 283.316 95.52 283.316 98.56V116.74C283.316 117.58 282.896 118 282.056 118ZM344.603 112.66V116.8C344.603 117.24 344.503 117.56 344.303 117.76C344.143 117.92 343.823 118 343.343 118H334.403C331.243 118 328.803 117.16 327.083 115.48C325.363 113.8 324.503 111.38 324.503 108.22V97.18C324.503 94.02 325.363 91.6 327.083 89.92C328.803 88.24 331.243 87.4 334.403 87.4H343.343C344.183 87.4 344.603 87.82 344.603 88.66V92.8C344.603 93.24 344.503 93.56 344.303 93.76C344.143 93.92 343.823 94 343.343 94H335.603C334.363 94 333.463 94.28 332.903 94.84C332.383 95.36 332.123 96.26 332.123 97.54V107.86C332.123 109.14 332.383 110.06 332.903 110.62C333.463 111.14 334.363 111.4 335.603 111.4H343.343C344.183 111.4 344.603 111.82 344.603 112.66ZM390.331 118H377.071C373.911 118 371.471 117.16 369.751 115.48C368.031 113.8 367.171 111.38 367.171 108.22V97.18C367.171 94.02 368.031 91.6 369.751 89.92C371.471 88.24 373.911 87.4 377.071 87.4H381.811C384.971 87.4 387.411 88.24 389.131 89.92C390.851 91.6 391.711 94.02 391.711 97.18V104.8C391.711 105.64 391.291 106.06 390.451 106.06H375.391C374.911 106.06 374.671 106.28 374.671 106.72V108.04C374.671 109.28 374.931 110.18 375.451 110.74C376.011 111.26 376.931 111.52 378.211 111.52H390.331C391.171 111.52 391.591 111.96 391.591 112.84V116.8C391.591 117.24 391.491 117.56 391.291 117.76C391.131 117.92 390.811 118 390.331 118ZM375.391 100.96H383.551C383.991 100.96 384.211 100.74 384.211 100.3V97.42C384.211 96.14 383.951 95.24 383.431 94.72C382.911 94.2 382.011 93.94 380.731 93.94H378.211C376.931 93.94 376.031 94.2 375.511 94.72C374.991 95.24 374.731 96.14 374.731 97.42V100.3C374.731 100.74 374.951 100.96 375.391 100.96ZM422.079 118H416.979C416.139 118 415.719 117.58 415.719 116.74V77.08C415.719 76.24 416.139 75.82 416.979 75.82H422.079C422.919 75.82 423.339 76.24 423.339 77.08V116.74C423.339 117.58 422.919 118 422.079 118Z" fill="black"/>
<defs>
<clipPath id="clip0_839_712">
<rect width="600" height="200" fill="white"/>
</clipPath>
</defs>
</svg>
