<svg width="600" height="200" viewBox="0 0 600 200" fill="none" xmlns="http://www.w3.org/2000/svg">
<g clip-path="url(#clip0_765_654)">
<rect width="600" height="200" fill="white"/>
<path d="M0 0H600V200H0V0Z" fill="#D34053"/>
<path d="M200.888 118H194.348C191.188 118 188.748 117.16 187.028 115.48C185.308 113.8 184.448 111.38 184.448 108.22V89.2C184.448 86.04 185.308 83.62 187.028 81.94C188.748 80.26 191.188 79.42 194.348 79.42H200.888C204.008 79.42 206.428 80.28 208.148 82C209.908 83.68 210.788 86.08 210.788 89.2V92.02C210.788 92.9 210.348 93.34 209.468 93.34H204.428C203.588 93.34 203.168 92.9 203.168 92.02V89.56C203.168 88.28 202.888 87.38 202.328 86.86C201.808 86.3 200.908 86.02 199.628 86.02H195.548C194.308 86.02 193.408 86.3 192.848 86.86C192.328 87.38 192.068 88.28 192.068 89.56V107.86C192.068 109.14 192.328 110.06 192.848 110.62C193.408 111.14 194.308 111.4 195.548 111.4H199.628C200.908 111.4 201.808 111.14 202.328 110.62C202.888 110.06 203.168 109.14 203.168 107.86V105.4C203.168 104.52 203.588 104.08 204.428 104.08H209.468C210.348 104.08 210.788 104.52 210.788 105.4V108.22C210.788 111.34 209.908 113.76 208.148 115.48C206.428 117.16 204.008 118 200.888 118ZM241.694 118H236.594C235.754 118 235.334 117.58 235.334 116.74V80.68C235.334 79.84 235.754 79.42 236.594 79.42H241.694C242.534 79.42 242.954 79.84 242.954 80.68V94.78C242.954 95.22 243.194 95.44 243.674 95.44H253.814C254.254 95.44 254.474 95.22 254.474 94.78V80.68C254.474 79.84 254.894 79.42 255.734 79.42H260.834C261.674 79.42 262.094 79.84 262.094 80.68V116.74C262.094 117.58 261.674 118 260.834 118H255.734C254.894 118 254.474 117.58 254.474 116.74V102.7C254.474 102.26 254.254 102.04 253.814 102.04H243.674C243.194 102.04 242.954 102.26 242.954 102.7V116.74C242.954 117.58 242.534 118 241.694 118ZM291.924 118H286.164C285.444 118 285.204 117.58 285.444 116.74L294.924 80.68C295.204 79.84 295.804 79.42 296.724 79.42H304.704C305.704 79.42 306.304 79.84 306.504 80.68L315.984 116.74C316.224 117.58 315.984 118 315.264 118H309.504C309.064 118 308.764 117.92 308.604 117.76C308.444 117.56 308.324 117.22 308.244 116.74L306.564 110.14H294.864L293.184 116.74C293.104 117.22 292.964 117.56 292.764 117.76C292.604 117.92 292.324 118 291.924 118ZM300.624 86.68L296.304 104.02H305.184L300.864 86.68H300.624ZM349.802 111.4H354.062C355.342 111.4 356.242 111.14 356.762 110.62C357.322 110.06 357.602 109.14 357.602 107.86V89.56C357.602 88.28 357.322 87.38 356.762 86.86C356.242 86.3 355.342 86.02 354.062 86.02H349.802C348.522 86.02 347.622 86.3 347.102 86.86C346.582 87.38 346.322 88.28 346.322 89.56V107.86C346.322 109.14 346.582 110.06 347.102 110.62C347.622 111.14 348.522 111.4 349.802 111.4ZM355.322 118H348.602C345.442 118 343.002 117.16 341.282 115.48C339.562 113.8 338.702 111.38 338.702 108.22V89.2C338.702 86.04 339.562 83.62 341.282 81.94C343.002 80.26 345.442 79.42 348.602 79.42H355.322C358.482 79.42 360.922 80.26 362.642 81.94C364.362 83.62 365.222 86.04 365.222 89.2V108.22C365.222 111.38 364.362 113.8 362.642 115.48C360.922 117.16 358.482 118 355.322 118ZM389.448 108.16V106.96C389.448 106.12 389.868 105.7 390.708 105.7H395.808C396.648 105.7 397.068 106.12 397.068 106.96V107.44C397.068 108.96 397.368 110 397.968 110.56C398.568 111.12 399.668 111.4 401.268 111.4H404.088C405.648 111.4 406.728 111.1 407.328 110.5C407.968 109.9 408.288 108.78 408.288 107.14V106.42C408.288 105.26 407.808 104.38 406.848 103.78C405.928 103.14 404.768 102.76 403.368 102.64C401.968 102.52 400.448 102.3 398.808 101.98C397.208 101.62 395.708 101.18 394.308 100.66C392.908 100.1 391.728 99.04 390.768 97.48C389.848 95.88 389.388 93.84 389.388 91.36V89.26C389.388 86.14 390.268 83.72 392.028 82C393.788 80.28 396.228 79.42 399.348 79.42H405.348C408.508 79.42 410.968 80.28 412.728 82C414.488 83.72 415.368 86.14 415.368 89.26V90.4C415.368 91.24 414.948 91.66 414.108 91.66H409.008C408.168 91.66 407.748 91.24 407.748 90.4V90.04C407.748 88.48 407.448 87.42 406.848 86.86C406.248 86.3 405.148 86.02 403.548 86.02H401.208C399.568 86.02 398.448 86.34 397.848 86.98C397.288 87.58 397.008 88.78 397.008 90.58V91.72C397.008 93.6 398.648 94.68 401.928 94.96C405.328 95.24 408.348 95.92 410.988 97C412.388 97.6 413.548 98.68 414.468 100.24C415.428 101.76 415.908 103.72 415.908 106.12V108.16C415.908 111.28 415.028 113.7 413.268 115.42C411.508 117.14 409.068 118 405.948 118H399.408C396.288 118 393.848 117.14 392.088 115.42C390.328 113.7 389.448 111.28 389.448 108.16Z" fill="black"/>
</g>
<defs>
<clipPath id="clip0_765_654">
<rect width="600" height="200" fill="white"/>
</clipPath>
</defs>
</svg>
