<svg width="600" height="200" viewBox="0 0 600 200" fill="none" xmlns="http://www.w3.org/2000/svg">
<g clip-path="url(#clip0_765_651)">
<rect width="600" height="200" fill="white"/>
<path d="M0 0H600V200H0V0Z" fill="#FCF451"/>
<path d="M211.312 118H204.772C201.612 118 199.172 117.16 197.452 115.48C195.732 113.8 194.872 111.38 194.872 108.22V89.2C194.872 86.04 195.732 83.62 197.452 81.94C199.172 80.26 201.612 79.42 204.772 79.42H211.312C214.432 79.42 216.852 80.28 218.572 82C220.332 83.68 221.212 86.08 221.212 89.2V92.02C221.212 92.9 220.772 93.34 219.892 93.34H214.852C214.012 93.34 213.592 92.9 213.592 92.02V89.56C213.592 88.28 213.312 87.38 212.752 86.86C212.232 86.3 211.332 86.02 210.052 86.02H205.972C204.732 86.02 203.832 86.3 203.272 86.86C202.752 87.38 202.492 88.28 202.492 89.56V107.86C202.492 109.14 202.752 110.06 203.272 110.62C203.832 111.14 204.732 111.4 205.972 111.4H210.052C211.332 111.4 212.232 111.14 212.752 110.62C213.312 110.06 213.592 109.14 213.592 107.86V105.4C213.592 104.52 214.012 104.08 214.852 104.08H219.892C220.772 104.08 221.212 104.52 221.212 105.4V108.22C221.212 111.34 220.332 113.76 218.572 115.48C216.852 117.16 214.432 118 211.312 118ZM264.117 118H259.017C258.177 118 257.757 117.58 257.757 116.74V80.68C257.757 79.84 258.177 79.42 259.017 79.42H264.117C264.957 79.42 265.377 79.84 265.377 80.68V94.78C265.377 95.22 265.617 95.44 266.097 95.44H276.237C276.677 95.44 276.897 95.22 276.897 94.78V80.68C276.897 79.84 277.317 79.42 278.157 79.42H283.257C284.097 79.42 284.517 79.84 284.517 80.68V116.74C284.517 117.58 284.097 118 283.257 118H278.157C277.317 118 276.897 117.58 276.897 116.74V102.7C276.897 102.26 276.677 102.04 276.237 102.04H266.097C265.617 102.04 265.377 102.26 265.377 102.7V116.74C265.377 117.58 264.957 118 264.117 118ZM326.348 118H320.588C319.868 118 319.628 117.58 319.868 116.74L329.348 80.68C329.628 79.84 330.228 79.42 331.148 79.42H339.128C340.128 79.42 340.728 79.84 340.928 80.68L350.408 116.74C350.648 117.58 350.408 118 349.688 118H343.928C343.488 118 343.188 117.92 343.028 117.76C342.868 117.56 342.748 117.22 342.668 116.74L340.988 110.14H329.288L327.608 116.74C327.528 117.22 327.388 117.56 327.188 117.76C327.028 117.92 326.748 118 326.348 118ZM335.048 86.68L330.728 104.02H339.608L335.288 86.68H335.048ZM397.666 118H392.626C391.746 118 391.306 117.58 391.306 116.74V86.68C391.306 86.24 391.086 86.02 390.646 86.02H383.806C382.966 86.02 382.546 85.6 382.546 84.76V80.68C382.546 79.84 382.966 79.42 383.806 79.42H406.486C407.326 79.42 407.746 79.84 407.746 80.68V84.76C407.746 85.6 407.326 86.02 406.486 86.02H399.646C399.166 86.02 398.926 86.24 398.926 86.68V116.74C398.926 117.58 398.506 118 397.666 118Z" fill="black"/>
<path d="M46.5374 96.4081C46.5374 89.8247 46.5374 86.533 47.3882 83.8649C49.1598 78.3092 53.513 73.9559 59.0688 72.1843C61.7369 71.3335 65.0286 71.3335 71.612 71.3335V71.3335C78.1954 71.3335 81.4871 71.3335 84.1552 72.1843C89.7109 73.9559 94.0642 78.3092 95.8358 83.8649C96.6866 86.533 96.6866 89.8247 96.6866 96.4081V116.667C96.6866 120.438 96.6866 122.324 95.515 123.495C94.3435 124.667 92.4578 124.667 88.6866 124.667H73.204C65.1299 124.667 61.0928 124.667 57.8916 123.395C53.2862 121.565 49.6387 117.918 47.8091 113.313C46.5374 110.111 46.5374 106.074 46.5374 98.0002V96.4081Z" stroke="#33363F" stroke-width="5"/>
<path d="M62.209 94.6665L81.015 94.6665" stroke="#33363F" stroke-width="5" stroke-linecap="round" stroke-linejoin="round"/>
<path d="M71.6119 108H81.0149" stroke="#33363F" stroke-width="5" stroke-linecap="round" stroke-linejoin="round"/>
</g>
<defs>
<clipPath id="clip0_765_651">
<rect width="600" height="200" fill="white"/>
</clipPath>
</defs>
</svg>
