<svg width="600" height="200" viewBox="0 0 600 200" fill="none" xmlns="http://www.w3.org/2000/svg">
<g clip-path="url(#clip0_765_652)">
<rect width="600" height="200" fill="white"/>
<path d="M0 0H600V200H0V0Z" fill="#F36A7B"/>
<rect x="523.333" y="108.667" width="6.66667" height="6.66666" rx="1" fill="#33363F"/>
<rect x="503.333" y="98.6665" width="6.66667" height="20" rx="1" fill="#33363F"/>
<rect x="516.667" y="105.333" width="6.66667" height="20" rx="1" transform="rotate(90 516.667 105.333)" fill="#33363F"/>
<rect x="533.333" y="102" width="6.66667" height="6.66667" rx="1" fill="#33363F"/>
<path d="M526.667 88.6665V85.1229C526.667 83.623 526.667 82.8731 526.243 82.3306C525.82 81.788 525.092 81.6062 523.637 81.2424L516.363 79.424C514.908 79.0602 514.181 78.8783 513.757 78.3358C513.333 77.7933 513.333 77.0433 513.333 75.5434V68.6665" stroke="#33363F" stroke-width="5" stroke-linecap="round"/>
<path d="M490 108.667C490 100.137 490 95.8725 492.066 92.9346C492.598 92.1782 493.219 91.5012 493.912 90.9208C496.605 88.6665 500.515 88.6665 508.333 88.6665H531.667C539.485 88.6665 543.395 88.6665 546.088 90.9208C546.781 91.5012 547.402 92.1782 547.934 92.9346C550 95.8725 550 100.137 550 108.667C550 117.196 550 121.461 547.934 124.398C547.402 125.155 546.781 125.832 546.088 126.412C543.395 128.667 539.485 128.667 531.667 128.667H508.333C500.515 128.667 496.605 128.667 493.912 126.412C493.219 125.832 492.598 125.155 492.066 124.398C490 121.461 490 117.196 490 108.667Z" stroke="#33363F" stroke-width="5"/>
<path d="M205.39 118H199.03C195.87 118 193.43 117.16 191.71 115.48C189.99 113.8 189.13 111.38 189.13 108.22V89.2C189.13 86.04 189.99 83.62 191.71 81.94C193.43 80.26 195.87 79.42 199.03 79.42H205.39C208.51 79.42 210.93 80.28 212.65 82C214.37 83.68 215.23 86.08 215.23 89.2V91C215.23 91.88 214.81 92.32 213.97 92.32H208.87C208.03 92.32 207.61 91.88 207.61 91V89.56C207.61 88.28 207.35 87.38 206.83 86.86C206.31 86.3 205.41 86.02 204.13 86.02H200.23C198.99 86.02 198.09 86.3 197.53 86.86C197.01 87.38 196.75 88.28 196.75 89.56V107.86C196.75 109.14 197.01 110.06 197.53 110.62C198.09 111.14 198.99 111.4 200.23 111.4H204.13C205.41 111.4 206.31 111.14 206.83 110.62C207.35 110.06 207.61 109.14 207.61 107.86V104.08C207.61 103.64 207.39 103.42 206.95 103.42H203.35C202.51 103.42 202.09 103 202.09 102.16V98.08C202.09 97.24 202.51 96.82 203.35 96.82H213.85C214.77 96.82 215.23 97.28 215.23 98.2V108.22C215.23 111.34 214.37 113.76 212.65 115.48C210.93 117.16 208.51 118 205.39 118ZM256.445 118H250.685C249.965 118 249.725 117.58 249.965 116.74L259.445 80.68C259.725 79.84 260.325 79.42 261.245 79.42H269.225C270.225 79.42 270.825 79.84 271.025 80.68L280.505 116.74C280.745 117.58 280.505 118 279.785 118H274.025C273.585 118 273.285 117.92 273.125 117.76C272.965 117.56 272.845 117.22 272.765 116.74L271.085 110.14H259.385L257.705 116.74C257.625 117.22 257.485 117.56 257.285 117.76C257.125 117.92 256.845 118 256.445 118ZM265.145 86.68L260.825 104.02H269.705L265.385 86.68H265.145ZM341.444 79.42H350.324C351.164 79.42 351.584 79.84 351.584 80.68V116.74C351.584 117.58 351.164 118 350.324 118H345.404C344.564 118 344.144 117.58 344.144 116.74V88.3H343.904L337.784 108.4C337.544 109.2 337.044 109.6 336.284 109.6H331.244C330.484 109.6 329.984 109.2 329.744 108.4L323.504 88.24H323.264V116.74C323.264 117.22 323.184 117.56 323.024 117.76C322.864 117.92 322.524 118 322.004 118H317.084C316.244 118 315.824 117.58 315.824 116.74V80.68C315.824 79.84 316.244 79.42 317.084 79.42H326.024C326.584 79.42 326.964 79.7 327.164 80.26L333.524 101.44H333.884L340.304 80.26C340.424 79.7 340.804 79.42 341.444 79.42ZM410.239 118H390.619C389.779 118 389.359 117.58 389.359 116.74V80.68C389.359 79.84 389.779 79.42 390.619 79.42H410.239C411.039 79.42 411.439 79.84 411.439 80.68V84.76C411.439 85.6 411.039 86.02 410.239 86.02H397.699C397.219 86.02 396.979 86.24 396.979 86.68V94.48C396.979 94.92 397.219 95.14 397.699 95.14H407.959C408.799 95.14 409.219 95.56 409.219 96.4V100.48C409.219 101.32 408.799 101.74 407.959 101.74H397.699C397.219 101.74 396.979 101.96 396.979 102.4V110.74C396.979 111.18 397.219 111.4 397.699 111.4H410.239C411.039 111.4 411.439 111.82 411.439 112.66V116.74C411.439 117.58 411.039 118 410.239 118Z" fill="black"/>
</g>
<defs>
<clipPath id="clip0_765_652">
<rect width="600" height="200" fill="white"/>
</clipPath>
</defs>
</svg>
