<svg width="600" height="200" viewBox="0 0 600 200" fill="none" xmlns="http://www.w3.org/2000/svg">
<g clip-path="url(#clip0_765_648)">
<rect width="600" height="200" fill="white"/>
<path d="M0 0H600V200H0V0Z" fill="#64E469"/>
<path d="M162.131 104.38V85.84L152.411 104.38H162.131ZM168.071 118H163.391C162.551 118 162.131 117.58 162.131 116.74V110.98H147.251C146.571 110.98 146.031 110.78 145.631 110.38C145.231 109.98 145.031 109.44 145.031 108.76V106.42C145.031 105.22 145.231 104.24 145.631 103.48L157.571 81.28C157.971 80.56 158.331 80.08 158.651 79.84C159.011 79.56 159.531 79.42 160.211 79.42H166.991C167.671 79.42 168.211 79.62 168.611 80.02C169.051 80.42 169.271 80.96 169.271 81.64V104.38H173.591C174.391 104.38 174.791 104.78 174.791 105.58V109.6C174.791 110.52 174.391 110.98 173.591 110.98H169.271V116.74C169.271 117.22 169.171 117.56 168.971 117.76C168.811 117.92 168.511 118 168.071 118ZM196.332 116.74V111.04C196.332 108.76 197.312 106.82 199.272 105.22L210.312 95.86C212.112 94.38 213.012 92.78 213.012 91.06V89.26C213.012 88.02 212.712 87.14 212.112 86.62C211.552 86.06 210.612 85.78 209.292 85.78H207.192C205.912 85.78 205.012 86.06 204.492 86.62C203.972 87.14 203.712 88.02 203.712 89.26V91.18C203.712 92.06 203.292 92.5 202.452 92.5H197.352C196.512 92.5 196.092 92.06 196.092 91.18V89.14C196.092 86.02 196.952 83.62 198.672 81.94C200.392 80.26 202.832 79.42 205.992 79.42H210.552C213.712 79.42 216.152 80.26 217.872 81.94C219.592 83.62 220.452 86.02 220.452 89.14V91.54C220.452 94.66 219.252 97.24 216.852 99.28L205.572 108.88C205.092 109.32 204.852 109.8 204.852 110.32V111.28H219.192C220.032 111.28 220.452 111.7 220.452 112.54V116.74C220.452 117.58 220.032 118 219.192 118H197.592C196.752 118 196.332 117.58 196.332 116.74ZM297.185 118H277.445C276.605 118 276.185 117.58 276.185 116.74V80.68C276.185 79.84 276.605 79.42 277.445 79.42H282.545C283.385 79.42 283.805 79.84 283.805 80.68V110.68C283.805 111.12 284.045 111.34 284.525 111.34H297.185C297.985 111.34 298.385 111.78 298.385 112.66V116.74C298.385 117.58 297.985 118 297.185 118ZM331.638 111.4H335.898C337.178 111.4 338.078 111.14 338.598 110.62C339.158 110.06 339.438 109.14 339.438 107.86V89.56C339.438 88.28 339.158 87.38 338.598 86.86C338.078 86.3 337.178 86.02 335.898 86.02H331.638C330.358 86.02 329.458 86.3 328.938 86.86C328.418 87.38 328.158 88.28 328.158 89.56V107.86C328.158 109.14 328.418 110.06 328.938 110.62C329.458 111.14 330.358 111.4 331.638 111.4ZM337.158 118H330.438C327.278 118 324.838 117.16 323.118 115.48C321.398 113.8 320.538 111.38 320.538 108.22V89.2C320.538 86.04 321.398 83.62 323.118 81.94C324.838 80.26 327.278 79.42 330.438 79.42H337.158C340.318 79.42 342.758 80.26 344.478 81.94C346.198 83.62 347.058 86.04 347.058 89.2V108.22C347.058 111.38 346.198 113.8 344.478 115.48C342.758 117.16 340.318 118 337.158 118ZM387.904 118H381.544C378.384 118 375.944 117.16 374.224 115.48C372.504 113.8 371.644 111.38 371.644 108.22V89.2C371.644 86.04 372.504 83.62 374.224 81.94C375.944 80.26 378.384 79.42 381.544 79.42H387.904C391.024 79.42 393.444 80.28 395.164 82C396.884 83.68 397.744 86.08 397.744 89.2V91C397.744 91.88 397.324 92.32 396.484 92.32H391.384C390.544 92.32 390.124 91.88 390.124 91V89.56C390.124 88.28 389.864 87.38 389.344 86.86C388.824 86.3 387.924 86.02 386.644 86.02H382.744C381.504 86.02 380.604 86.3 380.044 86.86C379.524 87.38 379.264 88.28 379.264 89.56V107.86C379.264 109.14 379.524 110.06 380.044 110.62C380.604 111.14 381.504 111.4 382.744 111.4H386.644C387.924 111.4 388.824 111.14 389.344 110.62C389.864 110.06 390.124 109.14 390.124 107.86V104.08C390.124 103.64 389.904 103.42 389.464 103.42H385.864C385.024 103.42 384.604 103 384.604 102.16V98.08C384.604 97.24 385.024 96.82 385.864 96.82H396.364C397.284 96.82 397.744 97.28 397.744 98.2V108.22C397.744 111.34 396.884 113.76 395.164 115.48C393.444 117.16 391.024 118 387.904 118ZM462.043 80.68V116.74C462.043 117.58 461.623 118 460.783 118H455.683C454.843 118 454.423 117.58 454.423 116.74V80.68C454.423 79.84 454.843 79.42 455.683 79.42H460.783C461.623 79.42 462.043 79.84 462.043 80.68ZM494.359 118H489.379C488.539 118 488.119 117.58 488.119 116.74V80.68C488.119 79.84 488.539 79.42 489.379 79.42H493.879C494.719 79.42 495.279 79.7 495.559 80.26L507.679 103H507.919V80.68C507.919 79.84 508.339 79.42 509.179 79.42H514.159C514.999 79.42 515.419 79.84 515.419 80.68V116.74C515.419 117.58 514.999 118 514.159 118H509.779C508.899 118 508.259 117.6 507.859 116.8L495.859 94.48H495.619V116.74C495.619 117.58 495.199 118 494.359 118Z" fill="black"/>
<path d="M56.3334 83.7729V71.2785C56.3334 69.1326 56.3334 68.0597 57.023 67.4616C57.7126 66.8635 58.7747 67.0153 60.8991 67.3187L97.8486 72.5972C100.305 72.9481 101.533 73.1236 102.266 73.9695C103 74.8153 103 76.0559 103 78.5369V121.463C103 123.944 103 125.184 102.266 126.03C101.533 126.876 100.305 127.052 97.8486 127.402L60.8991 132.681C58.7747 132.984 57.7126 133.136 57.023 132.538C56.3334 131.94 56.3334 130.867 56.3334 128.721V116.886" stroke="#33363F" stroke-width="8"/>
<path d="M86.3334 100L89.4568 97.5014L91.4559 100L89.4568 102.499L86.3334 100ZM46.3334 104C44.1242 104 42.3334 102.209 42.3334 100C42.3334 97.791 44.1242 96.0002 46.3334 96.0002V104ZM76.1235 80.8347L89.4568 97.5014L83.2099 102.499L69.8766 85.8323L76.1235 80.8347ZM89.4568 102.499L76.1235 119.166L69.8766 114.168L83.2099 97.5014L89.4568 102.499ZM86.3334 104H46.3334V96.0002H86.3334V104Z" fill="#33363F"/>
</g>
<defs>
<clipPath id="clip0_765_648">
<rect width="600" height="200" fill="white"/>
</clipPath>
</defs>
</svg>
