<svg width="600" height="200" viewBox="0 0 600 200" fill="none" xmlns="http://www.w3.org/2000/svg">
<g clip-path="url(#clip0_765_655)">
<rect width="600" height="200" fill="white"/>
<path d="M0 0H600V200H0V0Z" fill="#64E469"/>
<path d="M205.628 125.231H185.888C185.048 125.231 184.628 124.811 184.628 123.971V87.911C184.628 87.071 185.048 86.651 185.888 86.651H190.988C191.828 86.651 192.248 87.071 192.248 87.911V117.911C192.248 118.351 192.488 118.571 192.968 118.571H205.628C206.428 118.571 206.828 119.011 206.828 119.891V123.971C206.828 124.811 206.428 125.231 205.628 125.231ZM240.081 118.631H244.341C245.621 118.631 246.521 118.371 247.041 117.851C247.601 117.291 247.881 116.371 247.881 115.091V96.791C247.881 95.511 247.601 94.611 247.041 94.091C246.521 93.531 245.621 93.251 244.341 93.251H240.081C238.801 93.251 237.901 93.531 237.381 94.091C236.861 94.611 236.601 95.511 236.601 96.791V115.091C236.601 116.371 236.861 117.291 237.381 117.851C237.901 118.371 238.801 118.631 240.081 118.631ZM245.601 125.231H238.881C235.721 125.231 233.281 124.391 231.561 122.711C229.841 121.031 228.981 118.611 228.981 115.451V96.431C228.981 93.271 229.841 90.851 231.561 89.171C233.281 87.491 235.721 86.651 238.881 86.651H245.601C248.761 86.651 251.201 87.491 252.921 89.171C254.641 90.851 255.501 93.271 255.501 96.431V115.451C255.501 118.611 254.641 121.031 252.921 122.711C251.201 124.391 248.761 125.231 245.601 125.231ZM296.347 125.231H289.987C286.827 125.231 284.387 124.391 282.667 122.711C280.947 121.031 280.087 118.611 280.087 115.451V96.431C280.087 93.271 280.947 90.851 282.667 89.171C284.387 87.491 286.827 86.651 289.987 86.651H296.347C299.467 86.651 301.887 87.511 303.607 89.231C305.327 90.911 306.187 93.311 306.187 96.431V98.231C306.187 99.111 305.767 99.551 304.927 99.551H299.827C298.987 99.551 298.567 99.111 298.567 98.231V96.791C298.567 95.511 298.307 94.611 297.787 94.091C297.267 93.531 296.367 93.251 295.087 93.251H291.187C289.947 93.251 289.047 93.531 288.487 94.091C287.967 94.611 287.707 95.511 287.707 96.791V115.091C287.707 116.371 287.967 117.291 288.487 117.851C289.047 118.371 289.947 118.631 291.187 118.631H295.087C296.367 118.631 297.267 118.371 297.787 117.851C298.307 117.291 298.567 116.371 298.567 115.091V111.311C298.567 110.871 298.347 110.651 297.907 110.651H294.307C293.467 110.651 293.047 110.231 293.047 109.391V105.311C293.047 104.471 293.467 104.051 294.307 104.051H304.807C305.727 104.051 306.187 104.511 306.187 105.431V115.451C306.187 118.571 305.327 120.991 303.607 122.711C301.887 124.391 299.467 125.231 296.347 125.231ZM373.065 118.631H377.325C378.605 118.631 379.505 118.371 380.025 117.851C380.585 117.291 380.865 116.371 380.865 115.091V96.791C380.865 95.511 380.585 94.611 380.025 94.091C379.505 93.531 378.605 93.251 377.325 93.251H373.065C371.785 93.251 370.885 93.531 370.365 94.091C369.845 94.611 369.585 95.511 369.585 96.791V115.091C369.585 116.371 369.845 117.291 370.365 117.851C370.885 118.371 371.785 118.631 373.065 118.631ZM378.585 125.231H371.865C368.705 125.231 366.265 124.391 364.545 122.711C362.825 121.031 361.965 118.611 361.965 115.451V96.431C361.965 93.271 362.825 90.851 364.545 89.171C366.265 87.491 368.705 86.651 371.865 86.651H378.585C381.745 86.651 384.185 87.491 385.905 89.171C387.625 90.851 388.485 93.271 388.485 96.431V115.451C388.485 118.611 387.625 121.031 385.905 122.711C384.185 124.391 381.745 125.231 378.585 125.231ZM433.411 86.651H438.451C439.331 86.651 439.771 87.051 439.771 87.851V115.451C439.771 118.571 438.891 120.991 437.131 122.711C435.411 124.391 432.991 125.231 429.871 125.231H423.271C420.111 125.231 417.671 124.391 415.951 122.711C414.231 121.031 413.371 118.611 413.371 115.451V87.911C413.371 87.071 413.791 86.651 414.631 86.651H419.731C420.571 86.651 420.991 87.071 420.991 87.911V115.091C420.991 116.371 421.251 117.291 421.771 117.851C422.331 118.371 423.231 118.631 424.471 118.631H428.611C429.891 118.631 430.791 118.371 431.311 117.851C431.871 117.291 432.151 116.371 432.151 115.091V87.911C432.151 87.071 432.571 86.651 433.411 86.651ZM477.185 125.231H472.145C471.265 125.231 470.825 124.811 470.825 123.971V93.911C470.825 93.471 470.605 93.251 470.165 93.251H463.325C462.485 93.251 462.065 92.831 462.065 91.991V87.911C462.065 87.071 462.485 86.651 463.325 86.651H486.005C486.845 86.651 487.265 87.071 487.265 87.911V91.991C487.265 92.831 486.845 93.251 486.005 93.251H479.165C478.685 93.251 478.445 93.471 478.445 93.911V123.971C478.445 124.811 478.025 125.231 477.185 125.231Z" fill="black"/>
<path d="M0 0H600V200H0V0Z" fill="#64E469"/>
<path d="M202.474 118H182.734C181.894 118 181.474 117.58 181.474 116.74V80.68C181.474 79.84 181.894 79.42 182.734 79.42H187.834C188.674 79.42 189.094 79.84 189.094 80.68V110.68C189.094 111.12 189.334 111.34 189.814 111.34H202.474C203.274 111.34 203.674 111.78 203.674 112.66V116.74C203.674 117.58 203.274 118 202.474 118ZM236.927 111.4H241.187C242.467 111.4 243.367 111.14 243.887 110.62C244.447 110.06 244.727 109.14 244.727 107.86V89.56C244.727 88.28 244.447 87.38 243.887 86.86C243.367 86.3 242.467 86.02 241.187 86.02H236.927C235.647 86.02 234.747 86.3 234.227 86.86C233.707 87.38 233.447 88.28 233.447 89.56V107.86C233.447 109.14 233.707 110.06 234.227 110.62C234.747 111.14 235.647 111.4 236.927 111.4ZM242.447 118H235.727C232.567 118 230.127 117.16 228.407 115.48C226.687 113.8 225.827 111.38 225.827 108.22V89.2C225.827 86.04 226.687 83.62 228.407 81.94C230.127 80.26 232.567 79.42 235.727 79.42H242.447C245.607 79.42 248.047 80.26 249.767 81.94C251.487 83.62 252.347 86.04 252.347 89.2V108.22C252.347 111.38 251.487 113.8 249.767 115.48C248.047 117.16 245.607 118 242.447 118ZM293.193 118H286.833C283.673 118 281.233 117.16 279.513 115.48C277.793 113.8 276.933 111.38 276.933 108.22V89.2C276.933 86.04 277.793 83.62 279.513 81.94C281.233 80.26 283.673 79.42 286.833 79.42H293.193C296.313 79.42 298.733 80.28 300.453 82C302.173 83.68 303.033 86.08 303.033 89.2V91C303.033 91.88 302.613 92.32 301.773 92.32H296.673C295.833 92.32 295.413 91.88 295.413 91V89.56C295.413 88.28 295.153 87.38 294.633 86.86C294.113 86.3 293.213 86.02 291.933 86.02H288.033C286.793 86.02 285.893 86.3 285.333 86.86C284.813 87.38 284.553 88.28 284.553 89.56V107.86C284.553 109.14 284.813 110.06 285.333 110.62C285.893 111.14 286.793 111.4 288.033 111.4H291.933C293.213 111.4 294.113 111.14 294.633 110.62C295.153 110.06 295.413 109.14 295.413 107.86V104.08C295.413 103.64 295.193 103.42 294.753 103.42H291.153C290.313 103.42 289.893 103 289.893 102.16V98.08C289.893 97.24 290.313 96.82 291.153 96.82H301.653C302.573 96.82 303.033 97.28 303.033 98.2V108.22C303.033 111.34 302.173 113.76 300.453 115.48C298.733 117.16 296.313 118 293.193 118ZM369.912 111.4H374.172C375.452 111.4 376.352 111.14 376.872 110.62C377.432 110.06 377.712 109.14 377.712 107.86V89.56C377.712 88.28 377.432 87.38 376.872 86.86C376.352 86.3 375.452 86.02 374.172 86.02H369.912C368.632 86.02 367.732 86.3 367.212 86.86C366.692 87.38 366.432 88.28 366.432 89.56V107.86C366.432 109.14 366.692 110.06 367.212 110.62C367.732 111.14 368.632 111.4 369.912 111.4ZM375.432 118H368.712C365.552 118 363.112 117.16 361.392 115.48C359.672 113.8 358.812 111.38 358.812 108.22V89.2C358.812 86.04 359.672 83.62 361.392 81.94C363.112 80.26 365.552 79.42 368.712 79.42H375.432C378.592 79.42 381.032 80.26 382.752 81.94C384.472 83.62 385.332 86.04 385.332 89.2V108.22C385.332 111.38 384.472 113.8 382.752 115.48C381.032 117.16 378.592 118 375.432 118ZM430.257 79.42H435.297C436.177 79.42 436.617 79.82 436.617 80.62V108.22C436.617 111.34 435.737 113.76 433.977 115.48C432.257 117.16 429.837 118 426.717 118H420.117C416.957 118 414.517 117.16 412.797 115.48C411.077 113.8 410.217 111.38 410.217 108.22V80.68C410.217 79.84 410.637 79.42 411.477 79.42H416.577C417.417 79.42 417.837 79.84 417.837 80.68V107.86C417.837 109.14 418.097 110.06 418.617 110.62C419.177 111.14 420.077 111.4 421.317 111.4H425.457C426.737 111.4 427.637 111.14 428.157 110.62C428.717 110.06 428.997 109.14 428.997 107.86V80.68C428.997 79.84 429.417 79.42 430.257 79.42ZM474.031 118H468.991C468.111 118 467.671 117.58 467.671 116.74V86.68C467.671 86.24 467.451 86.02 467.011 86.02H460.171C459.331 86.02 458.911 85.6 458.911 84.76V80.68C458.911 79.84 459.331 79.42 460.171 79.42H482.851C483.691 79.42 484.111 79.84 484.111 80.68V84.76C484.111 85.6 483.691 86.02 482.851 86.02H476.011C475.531 86.02 475.291 86.24 475.291 86.68V116.74C475.291 117.58 474.871 118 474.031 118Z" fill="black"/>
<path d="M41.9076 101.539L38.7841 99.04L36.7851 101.539L38.7841 104.038L41.9076 101.539ZM71.9076 105.539C74.1167 105.539 75.9076 103.748 75.9076 101.539C75.9076 99.3296 74.1167 97.5387 71.9076 97.5387V105.539ZM52.1175 82.3733L38.7841 99.04L45.0311 104.038L58.3644 87.3709L52.1175 82.3733ZM38.7841 104.038L52.1175 120.704L58.3644 115.707L45.0311 99.04L38.7841 104.038ZM41.9076 105.539H71.9076V97.5387H41.9076V105.539Z" fill="#33363F"/>
<path d="M68.5743 88.6449V78.2603C68.5743 76.6419 68.5743 75.8327 69.0483 75.2732C69.5223 74.7138 70.3204 74.5807 71.9167 74.3147L101.588 69.3695C104.831 68.829 106.453 68.5587 107.513 69.4574C108.574 70.3561 108.574 72 108.574 75.2878V127.789C108.574 131.077 108.574 132.721 107.513 133.619C106.453 134.518 104.831 134.248 101.588 133.707L71.9167 128.762C70.3204 128.496 69.5223 128.363 69.0483 127.804C68.5743 127.244 68.5743 126.435 68.5743 124.817V115.092" stroke="#33363F" stroke-width="8"/>
</g>
<defs>
<clipPath id="clip0_765_655">
<rect width="600" height="200" fill="white"/>
</clipPath>
</defs>
</svg>
