<svg width="600" height="200" viewBox="0 0 600 200" fill="none" xmlns="http://www.w3.org/2000/svg">
<g clip-path="url(#clip0_765_653)">
<rect width="600" height="200" fill="white"/>
<path d="M0 0H600V200H0V0Z" fill="#FCF451"/>
<path d="M162.689 117.498H157.709C156.869 117.498 156.449 117.078 156.449 116.238V80.178C156.449 79.338 156.869 78.918 157.709 78.918H162.209C163.049 78.918 163.609 79.198 163.889 79.758L176.009 102.498H176.249V80.178C176.249 79.338 176.669 78.918 177.509 78.918H182.489C183.329 78.918 183.749 79.338 183.749 80.178V116.238C183.749 117.078 183.329 117.498 182.489 117.498H178.109C177.229 117.498 176.589 117.098 176.189 116.298L164.189 93.978H163.949V116.238C163.949 117.078 163.529 117.498 162.689 117.498ZM220.046 110.898H224.306C225.586 110.898 226.486 110.638 227.006 110.118C227.566 109.558 227.846 108.638 227.846 107.358V89.058C227.846 87.778 227.566 86.878 227.006 86.358C226.486 85.798 225.586 85.518 224.306 85.518H220.046C218.766 85.518 217.866 85.798 217.346 86.358C216.826 86.878 216.566 87.778 216.566 89.058V107.358C216.566 108.638 216.826 109.558 217.346 110.118C217.866 110.638 218.766 110.898 220.046 110.898ZM225.566 117.498H218.846C215.686 117.498 213.246 116.658 211.526 114.978C209.806 113.298 208.946 110.878 208.946 107.718V88.698C208.946 85.538 209.806 83.118 211.526 81.438C213.246 79.758 215.686 78.918 218.846 78.918H225.566C228.726 78.918 231.166 79.758 232.886 81.438C234.606 83.118 235.466 85.538 235.466 88.698V107.718C235.466 110.878 234.606 113.298 232.886 114.978C231.166 116.658 228.726 117.498 225.566 117.498ZM267.012 117.498H261.912C261.072 117.498 260.652 117.078 260.652 116.238V80.178C260.652 79.338 261.072 78.918 261.912 78.918H276.192C279.312 78.918 281.752 79.778 283.512 81.498C285.272 83.218 286.152 85.638 286.152 88.758V93.438C286.152 97.958 284.372 100.958 280.812 102.438V102.678L287.232 116.058C287.592 117.018 287.252 117.498 286.212 117.498H281.352C280.632 117.498 280.112 117.418 279.792 117.258C279.472 117.098 279.212 116.758 279.012 116.238L273.012 103.278H268.992C268.512 103.278 268.272 103.498 268.272 103.938V116.238C268.272 117.078 267.852 117.498 267.012 117.498ZM268.932 97.158H274.812C276.092 97.158 277.032 96.898 277.632 96.378C278.232 95.818 278.532 94.938 278.532 93.738V89.058C278.532 87.818 278.232 86.918 277.632 86.358C277.032 85.798 276.092 85.518 274.812 85.518H268.932C268.492 85.518 268.272 85.738 268.272 86.178V96.498C268.272 96.938 268.492 97.158 268.932 97.158ZM337.084 78.918H345.964C346.804 78.918 347.224 79.338 347.224 80.178V116.238C347.224 117.078 346.804 117.498 345.964 117.498H341.044C340.204 117.498 339.784 117.078 339.784 116.238V87.798H339.544L333.424 107.898C333.184 108.698 332.684 109.098 331.924 109.098H326.884C326.124 109.098 325.624 108.698 325.384 107.898L319.144 87.738H318.904V116.238C318.904 116.718 318.824 117.058 318.664 117.258C318.504 117.418 318.164 117.498 317.644 117.498H312.724C311.884 117.498 311.464 117.078 311.464 116.238V80.178C311.464 79.338 311.884 78.918 312.724 78.918H321.664C322.224 78.918 322.604 79.198 322.804 79.758L329.164 100.938H329.524L335.944 79.758C336.064 79.198 336.444 78.918 337.084 78.918ZM377.02 117.498H371.26C370.54 117.498 370.3 117.078 370.54 116.238L380.02 80.178C380.3 79.338 380.9 78.918 381.82 78.918H389.8C390.8 78.918 391.4 79.338 391.6 80.178L401.08 116.238C401.32 117.078 401.08 117.498 400.36 117.498H394.6C394.16 117.498 393.86 117.418 393.7 117.258C393.54 117.058 393.42 116.718 393.34 116.238L391.66 109.638H379.96L378.28 116.238C378.2 116.718 378.06 117.058 377.86 117.258C377.7 117.418 377.42 117.498 377.02 117.498ZM385.72 86.178L381.4 103.518H390.28L385.96 86.178H385.72ZM445.398 117.498H425.658C424.818 117.498 424.398 117.078 424.398 116.238V80.178C424.398 79.338 424.818 78.918 425.658 78.918H430.758C431.598 78.918 432.018 79.338 432.018 80.178V110.178C432.018 110.618 432.258 110.838 432.738 110.838H445.398C446.198 110.838 446.598 111.278 446.598 112.158V116.238C446.598 117.078 446.198 117.498 445.398 117.498Z" fill="black"/>
</g>
<defs>
<clipPath id="clip0_765_653">
<rect width="600" height="200" fill="white"/>
</clipPath>
</defs>
</svg>
