<svg width="600" height="200" viewBox="0 0 600 200" fill="none" xmlns="http://www.w3.org/2000/svg">
<g clip-path="url(#clip0_765_655)">
<rect width="600" height="200" fill="white"/>
<path d="M0 0H600V200H0V0Z" fill="#64E469"/>
<path d="M205.628 125.231H185.888C185.048 125.231 184.628 124.811 184.628 123.971V87.911C184.628 87.071 185.048 86.651 185.888 86.651H190.988C191.828 86.651 192.248 87.071 192.248 87.911V117.911C192.248 118.351 192.488 118.571 192.968 118.571H205.628C206.428 118.571 206.828 119.011 206.828 119.891V123.971C206.828 124.811 206.428 125.231 205.628 125.231ZM240.081 118.631H244.341C245.621 118.631 246.521 118.371 247.041 117.851C247.601 117.291 247.881 116.371 247.881 115.091V96.791C247.881 95.511 247.601 94.611 247.041 94.091C246.521 93.531 245.621 93.251 244.341 93.251H240.081C238.801 93.251 237.901 93.531 237.381 94.091C236.861 94.611 236.601 95.511 236.601 96.791V115.091C236.601 116.371 236.861 117.291 237.381 117.851C237.901 118.371 238.801 118.631 240.081 118.631ZM245.601 125.231H238.881C235.721 125.231 233.281 124.391 231.561 122.711C229.841 121.031 228.981 118.611 228.981 115.451V96.431C228.981 93.271 229.841 90.851 231.561 89.171C233.281 87.491 235.721 86.651 238.881 86.651H245.601C248.761 86.651 251.201 87.491 252.921 89.171C254.641 90.851 255.501 93.271 255.501 96.431V115.451C255.501 118.611 254.641 121.031 252.921 122.711C251.201 124.391 248.761 125.231 245.601 125.231ZM296.347 125.231H289.987C286.827 125.231 284.387 124.391 282.667 122.711C280.947 121.031 280.087 118.611 280.087 115.451V96.431C280.087 93.271 280.947 90.851 282.667 89.171C284.387 87.491 286.827 86.651 289.987 86.651H296.347C299.467 86.651 301.887 87.511 303.607 89.231C305.327 90.911 306.187 93.311 306.187 96.431V98.231C306.187 99.111 305.767 99.551 304.927 99.551H299.827C298.987 99.551 298.567 99.111 298.567 98.231V96.791C298.567 95.511 298.307 94.611 297.787 94.091C297.267 93.531 296.367 93.251 295.087 93.251H291.187C289.947 93.251 289.047 93.531 288.487 94.091C287.967 94.611 287.707 95.511 287.707 96.791V115.091C287.707 116.371 287.967 117.291 288.487 117.851C289.047 118.371 289.947 118.631 291.187 118.631H295.087C296.367 118.631 297.267 118.371 297.787 117.851C298.307 117.291 298.567 116.371 298.567 115.091V111.311C298.567 110.871 298.347 110.651 297.907 110.651H294.307C293.467 110.651 293.047 110.231 293.047 109.391V105.311C293.047 104.471 293.467 104.051 294.307 104.051H304.807C305.727 104.051 306.187 104.511 306.187 105.431V115.451C306.187 118.571 305.327 120.991 303.607 122.711C301.887 124.391 299.467 125.231 296.347 125.231ZM373.065 118.631H377.325C378.605 118.631 379.505 118.371 380.025 117.851C380.585 117.291 380.865 116.371 380.865 115.091V96.791C380.865 95.511 380.585 94.611 380.025 94.091C379.505 93.531 378.605 93.251 377.325 93.251H373.065C371.785 93.251 370.885 93.531 370.365 94.091C369.845 94.611 369.585 95.511 369.585 96.791V115.091C369.585 116.371 369.845 117.291 370.365 117.851C370.885 118.371 371.785 118.631 373.065 118.631ZM378.585 125.231H371.865C368.705 125.231 366.265 124.391 364.545 122.711C362.825 121.031 361.965 118.611 361.965 115.451V96.431C361.965 93.271 362.825 90.851 364.545 89.171C366.265 87.491 368.705 86.651 371.865 86.651H378.585C381.745 86.651 384.185 87.491 385.905 89.171C387.625 90.851 388.485 93.271 388.485 96.431V115.451C388.485 118.611 387.625 121.031 385.905 122.711C384.185 124.391 381.745 125.231 378.585 125.231ZM433.411 86.651H438.451C439.331 86.651 439.771 87.051 439.771 87.851V115.451C439.771 118.571 438.891 120.991 437.131 122.711C435.411 124.391 432.991 125.231 429.871 125.231H423.271C420.111 125.231 417.671 124.391 415.951 122.711C414.231 121.031 413.371 118.611 413.371 115.451V87.911C413.371 87.071 413.791 86.651 414.631 86.651H419.731C420.571 86.651 420.991 87.071 420.991 87.911V115.091C420.991 116.371 421.251 117.291 421.771 117.851C422.331 118.371 423.231 118.631 424.471 118.631H428.611C429.891 118.631 430.791 118.371 431.311 117.851C431.871 117.291 432.151 116.371 432.151 115.091V87.911C432.151 87.071 432.571 86.651 433.411 86.651ZM477.185 125.231H472.145C471.265 125.231 470.825 124.811 470.825 123.971V93.911C470.825 93.471 470.605 93.251 470.165 93.251H463.325C462.485 93.251 462.065 92.831 462.065 91.991V87.911C462.065 87.071 462.485 86.651 463.325 86.651H486.005C486.845 86.651 487.265 87.071 487.265 87.911V91.991C487.265 92.831 486.845 93.251 486.005 93.251H479.165C478.685 93.251 478.445 93.471 478.445 93.911V123.971C478.445 124.811 478.025 125.231 477.185 125.231Z" fill="black"/>
<path d="M0 0H600V200H0V0Z" fill="#64E469"/>
<path d="M151.586 108.16V106.96C151.586 106.12 152.006 105.7 152.846 105.7H157.946C158.786 105.7 159.206 106.12 159.206 106.96V107.44C159.206 108.96 159.506 110 160.106 110.56C160.706 111.12 161.806 111.4 163.406 111.4H166.226C167.786 111.4 168.866 111.1 169.466 110.5C170.106 109.9 170.426 108.78 170.426 107.14V106.42C170.426 105.26 169.946 104.38 168.986 103.78C168.066 103.14 166.906 102.76 165.506 102.64C164.106 102.52 162.586 102.3 160.946 101.98C159.346 101.62 157.846 101.18 156.446 100.66C155.046 100.1 153.866 99.04 152.906 97.48C151.986 95.88 151.526 93.84 151.526 91.36V89.26C151.526 86.14 152.406 83.72 154.166 82C155.926 80.28 158.366 79.42 161.486 79.42H167.486C170.646 79.42 173.106 80.28 174.866 82C176.626 83.72 177.506 86.14 177.506 89.26V90.4C177.506 91.24 177.086 91.66 176.246 91.66H171.146C170.306 91.66 169.886 91.24 169.886 90.4V90.04C169.886 88.48 169.586 87.42 168.986 86.86C168.386 86.3 167.286 86.02 165.686 86.02H163.346C161.706 86.02 160.586 86.34 159.986 86.98C159.426 87.58 159.146 88.78 159.146 90.58V91.72C159.146 93.6 160.786 94.68 164.066 94.96C167.466 95.24 170.486 95.92 173.126 97C174.526 97.6 175.686 98.68 176.606 100.24C177.566 101.76 178.046 103.72 178.046 106.12V108.16C178.046 111.28 177.166 113.7 175.406 115.42C173.646 117.14 171.206 118 168.086 118H161.546C158.426 118 155.986 117.14 154.226 115.42C152.466 113.7 151.586 111.28 151.586 108.16ZM210.81 80.68V116.74C210.81 117.58 210.39 118 209.55 118H204.45C203.61 118 203.19 117.58 203.19 116.74V80.68C203.19 79.84 203.61 79.42 204.45 79.42H209.55C210.39 79.42 210.81 79.84 210.81 80.68ZM252.546 118H246.186C243.026 118 240.586 117.16 238.866 115.48C237.146 113.8 236.286 111.38 236.286 108.22V89.2C236.286 86.04 237.146 83.62 238.866 81.94C240.586 80.26 243.026 79.42 246.186 79.42H252.546C255.666 79.42 258.086 80.28 259.806 82C261.526 83.68 262.386 86.08 262.386 89.2V91C262.386 91.88 261.966 92.32 261.126 92.32H256.026C255.186 92.32 254.766 91.88 254.766 91V89.56C254.766 88.28 254.506 87.38 253.986 86.86C253.466 86.3 252.566 86.02 251.286 86.02H247.386C246.146 86.02 245.246 86.3 244.686 86.86C244.166 87.38 243.906 88.28 243.906 89.56V107.86C243.906 109.14 244.166 110.06 244.686 110.62C245.246 111.14 246.146 111.4 247.386 111.4H251.286C252.566 111.4 253.466 111.14 253.986 110.62C254.506 110.06 254.766 109.14 254.766 107.86V104.08C254.766 103.64 254.546 103.42 254.106 103.42H250.506C249.666 103.42 249.246 103 249.246 102.16V98.08C249.246 97.24 249.666 96.82 250.506 96.82H261.006C261.926 96.82 262.386 97.28 262.386 98.2V108.22C262.386 111.34 261.526 113.76 259.806 115.48C258.086 117.16 255.666 118 252.546 118ZM293.822 118H288.842C288.002 118 287.582 117.58 287.582 116.74V80.68C287.582 79.84 288.002 79.42 288.842 79.42H293.342C294.182 79.42 294.742 79.7 295.022 80.26L307.142 103H307.382V80.68C307.382 79.84 307.802 79.42 308.642 79.42H313.622C314.462 79.42 314.882 79.84 314.882 80.68V116.74C314.882 117.58 314.462 118 313.622 118H309.242C308.362 118 307.722 117.6 307.322 116.8L295.322 94.48H295.082V116.74C295.082 117.58 294.662 118 293.822 118ZM391.603 79.42H396.643C397.523 79.42 397.963 79.82 397.963 80.62V108.22C397.963 111.34 397.083 113.76 395.323 115.48C393.603 117.16 391.183 118 388.063 118H381.463C378.303 118 375.863 117.16 374.143 115.48C372.423 113.8 371.563 111.38 371.563 108.22V80.68C371.563 79.84 371.983 79.42 372.823 79.42H377.923C378.763 79.42 379.183 79.84 379.183 80.68V107.86C379.183 109.14 379.443 110.06 379.963 110.62C380.523 111.14 381.423 111.4 382.663 111.4H386.803C388.083 111.4 388.983 111.14 389.503 110.62C390.063 110.06 390.343 109.14 390.343 107.86V80.68C390.343 79.84 390.763 79.42 391.603 79.42ZM429.797 118H424.697C423.857 118 423.437 117.58 423.437 116.74V80.68C423.437 79.84 423.857 79.42 424.697 79.42H439.337C442.457 79.42 444.877 80.28 446.597 82C448.317 83.68 449.177 86.08 449.177 89.2V94.96C449.177 98.08 448.317 100.5 446.597 102.22C444.877 103.9 442.457 104.74 439.337 104.74H431.777C431.297 104.74 431.057 104.96 431.057 105.4V116.74C431.057 117.58 430.637 118 429.797 118ZM431.717 98.08H438.077C439.357 98.08 440.257 97.82 440.777 97.3C441.297 96.74 441.557 95.84 441.557 94.6V89.56C441.557 88.28 441.297 87.38 440.777 86.86C440.257 86.3 439.357 86.02 438.077 86.02H431.717C431.277 86.02 431.057 86.24 431.057 86.68V97.42C431.057 97.86 431.277 98.08 431.717 98.08Z" fill="black"/>
</g>
<defs>
<clipPath id="clip0_765_655">
<rect width="600" height="200" fill="white"/>
</clipPath>
</defs>
</svg>
