<svg width="53" height="57" viewBox="0 0 53 57" fill="none" xmlns="http://www.w3.org/2000/svg">
<g filter="url(#filter0_d_733_889)">
<path fill-rule="evenodd" clip-rule="evenodd" d="M26.5 4.125L26.4121 4.125H26.4121C24.6583 4.12498 23.2131 4.12496 22.0257 4.20845C20.7916 4.29522 19.6628 4.48041 18.571 4.93653C16.3912 5.8472 14.5823 7.46632 13.4364 9.53218C12.8625 10.5669 12.5538 11.6683 12.3313 12.8853C12.1172 14.0562 11.9576 15.4927 11.764 17.2357L11.7543 17.323L11.1509 22.7533C10.9474 24.5848 10.8729 25.1365 10.7029 25.6402C10.5328 26.1439 10.2578 26.6279 9.30963 28.2081L6.29865 33.2264L6.23349 33.3349C5.88925 33.9079 5.50095 34.5543 5.26253 35.1292C5.00205 35.7572 4.62355 36.991 5.34548 38.2661C6.06741 39.5412 7.32012 39.8514 7.99272 39.9512C8.60833 40.0425 9.36234 40.0421 10.0308 40.0417L10.1574 40.0417H42.8426L42.9692 40.0417C43.6376 40.0421 44.3916 40.0425 45.0073 39.9512C45.6799 39.8514 46.9326 39.5412 47.6545 38.2661C48.3764 36.991 47.9979 35.7572 47.7374 35.1292C47.499 34.5543 47.1107 33.9079 46.7665 33.3349L46.7013 33.2264L43.6903 28.2081C42.7422 26.6279 42.4671 26.1439 42.2971 25.6402C42.1271 25.1365 42.0526 24.5848 41.8491 22.7533L41.5916 20.4362C41.0028 20.5867 40.3857 20.6667 39.75 20.6667C38.5857 20.6667 37.4841 20.3984 36.5035 19.9203L36.8797 23.3054L36.9049 23.5333C37.072 25.0424 37.1959 26.1615 37.5597 27.2393C37.9235 28.3171 38.5032 29.2824 39.2849 30.584L39.4029 30.7806L41.9595 35.0417H11.0405L13.5971 30.7806L13.7151 30.584C14.4968 29.2824 15.0765 28.3171 15.4403 27.2393C15.8041 26.1615 15.928 25.0424 16.0951 23.5333L16.1203 23.3054L16.7237 17.8752C16.9295 16.0232 17.071 14.7622 17.2498 13.7847C17.4236 12.8338 17.6049 12.3253 17.8089 11.9573C18.4091 10.8752 19.3567 10.0271 20.4985 9.55009C20.8867 9.3879 21.4121 9.26393 22.3764 9.19613C23.3676 9.12643 24.6366 9.125 26.5 9.125C28.3634 9.125 29.6323 9.12643 30.6236 9.19613C31.5879 9.26393 32.1133 9.3879 32.5015 9.55009C32.7242 9.64312 32.9395 9.75027 33.1463 9.87051C33.9452 8.31249 35.2793 7.07418 36.9059 6.39822C36.1562 5.80366 35.3239 5.31039 34.429 4.93653C33.3372 4.48041 32.2084 4.29522 30.9743 4.20845C29.7869 4.12496 28.3416 4.12498 26.5879 4.125H26.5879L26.5 4.125ZM39.1648 8.87176C37.2704 9.12252 35.7549 10.574 35.4081 12.4364C35.5277 12.7601 35.6404 13.1842 35.7502 13.7847C35.8444 14.2997 35.9283 14.8935 36.0166 15.6109C36.7996 16.8464 38.179 17.6667 39.75 17.6667C40.2784 17.6667 40.7851 17.5739 41.2547 17.4037L41.2457 17.3231L41.236 17.2358C41.0424 15.4927 40.8828 14.0562 40.6687 12.8853C40.4461 11.6683 40.1374 10.5669 39.5635 9.53218C39.4384 9.3066 39.3054 9.08635 39.1648 8.87176ZM43.1256 37.0622C43.1263 37.064 43.1267 37.0649 43.1267 37.0649C43.1268 37.0649 43.1257 37.0618 43.1232 37.0554C43.1242 37.0583 43.125 37.0606 43.1256 37.0622ZM44.2949 35.0016C44.2952 35.0014 44.2917 35.002 44.285 35.0035C44.2891 35.0028 44.292 35.0023 44.2935 35.0019C44.2944 35.0017 44.2949 35.0016 44.2949 35.0016ZM8.70502 35.0016C8.70513 35.0015 8.70856 35.0021 8.715 35.0035C8.70813 35.0024 8.70491 35.0016 8.70502 35.0016ZM9.87675 37.0554C9.87466 37.0616 9.87339 37.0649 9.87327 37.0649C9.87316 37.065 9.87421 37.0618 9.87675 37.0554Z" fill="#33363F"/>
<path d="M20.1007 39.0095C20.4782 41.1226 21.3099 42.9897 22.467 44.3214C23.624 45.6532 25.0416 46.375 26.5 46.375C27.9584 46.375 29.376 45.6532 30.533 44.3215C31.6901 42.9897 32.5218 41.1226 32.8993 39.0095" stroke="#33363F" stroke-width="5" stroke-linecap="round"/>
<circle cx="39.75" cy="13.2499" r="4.91667" fill="#33363F" stroke="#33363F"/>
</g>
<defs>
<filter id="filter0_d_733_889" x="-4" y="0" width="61" height="61" filterUnits="userSpaceOnUse" color-interpolation-filters="sRGB">
<feFlood flood-opacity="0" result="BackgroundImageFix"/>
<feColorMatrix in="SourceAlpha" type="matrix" values="0 0 0 0 0 0 0 0 0 0 0 0 0 0 0 0 0 0 127 0" result="hardAlpha"/>
<feOffset dy="4"/>
<feGaussianBlur stdDeviation="2"/>
<feComposite in2="hardAlpha" operator="out"/>
<feColorMatrix type="matrix" values="0 0 0 0 0 0 0 0 0 0 0 0 0 0 0 0 0 0 0.25 0"/>
<feBlend mode="normal" in2="BackgroundImageFix" result="effect1_dropShadow_733_889"/>
<feBlend mode="normal" in="SourceGraphic" in2="effect1_dropShadow_733_889" result="shape"/>
</filter>
</defs>
</svg>
