<svg width="40" height="40" viewBox="0 0 40 40" fill="none" xmlns="http://www.w3.org/2000/svg">
<path d="M20 6.6665V6.6665C24.037 6.6665 26.0556 6.6665 27.6561 7.30238C29.9589 8.2172 31.7826 10.0409 32.6974 12.3436C33.3333 13.9442 33.3333 15.9628 33.3333 19.9998V29.3332C33.3333 31.2188 33.3333 32.1616 32.7475 32.7474C32.1617 33.3332 31.2189 33.3332 29.3333 33.3332H20C15.9629 33.3332 13.9444 33.3332 12.3438 32.6973C10.041 31.7825 8.21732 29.9588 7.3025 27.656C6.66663 26.0554 6.66663 24.0369 6.66663 19.9998V19.9998" stroke="#33363F" stroke-width="2"/>
<path d="M15 18.3335L25 18.3335" stroke="#33363F" stroke-width="2" stroke-linecap="round" stroke-linejoin="round"/>
<path d="M8.33337 13.3335L8.33337 3.3335" stroke="#33363F" stroke-width="2" stroke-linecap="round" stroke-linejoin="round"/>
<path d="M3.33337 8.3335L13.3334 8.3335" stroke="#33363F" stroke-width="2" stroke-linecap="round" stroke-linejoin="round"/>
<path d="M20 25H25" stroke="#33363F" stroke-width="2" stroke-linecap="round" stroke-linejoin="round"/>
</svg>
