<svg width="51" height="51" viewBox="0 0 51 51" fill="none" xmlns="http://www.w3.org/2000/svg">
<path d="M41.0675 12.2777L40.236 12.8332L41.0675 12.2777ZM41.0675 34.4723L40.236 33.9168H40.236L41.0675 34.4723ZM38.7223 36.8175L39.2779 37.649V37.649L38.7223 36.8175ZM29.75 38.2471L29.7456 37.2471C29.1951 37.2495 28.75 37.6965 28.75 38.2471H29.75ZM29.75 38.25L30.6444 38.6972C30.7139 38.5584 30.75 38.4052 30.75 38.25H29.75ZM24.6056 44.9611L25.5 44.5139L25.5 44.5139L24.6056 44.9611ZM21.25 38.25H20.25C20.25 38.4052 20.2861 38.5584 20.3556 38.6972L21.25 38.25ZM21.25 38.2471H22.25C22.25 37.6965 21.8049 37.2495 21.2544 37.2471L21.25 38.2471ZM12.2777 36.8175L12.8332 35.986H12.8332L12.2777 36.8175ZM9.93251 34.4723L10.764 33.9168L10.764 33.9168L9.93251 34.4723ZM9.93251 12.2777L10.764 12.8332L9.93251 12.2777ZM12.2777 9.93251L12.8332 10.764L12.2777 9.93251ZM38.7223 9.93251L39.2779 9.10104V9.10104L38.7223 9.93251ZM43.5 23.375C43.5 20.4113 43.5012 18.1133 43.3158 16.2907C43.1287 14.4514 42.7433 12.9857 41.899 11.7221L40.236 12.8332C40.8242 13.7135 41.1551 14.812 41.3261 16.4931C41.4988 18.191 41.5 20.3697 41.5 23.375H43.5ZM41.899 35.0279C42.7433 33.7643 43.1287 32.2986 43.3158 30.4593C43.5012 28.6367 43.5 26.3387 43.5 23.375H41.5C41.5 26.3803 41.4988 28.559 41.3261 30.2569C41.1551 31.938 40.8242 33.0365 40.236 33.9168L41.899 35.0279ZM39.2779 37.649C40.3152 36.9559 41.2059 36.0652 41.899 35.0279L40.236 33.9168C39.6888 34.7357 38.9857 35.4388 38.1668 35.986L39.2779 37.649ZM29.7544 39.2471C32.0422 39.2371 33.8797 39.1935 35.3902 38.9847C36.9168 38.7736 38.1742 38.3865 39.2779 37.649L38.1668 35.986C37.3977 36.4999 36.4614 36.8176 35.1163 37.0035C33.7552 37.1916 32.043 37.2371 29.7456 37.2471L29.7544 39.2471ZM30.75 38.25V38.2471H28.75V38.25H30.75ZM27.2889 45.4084L30.6444 38.6972L28.8556 37.8028L25.5 44.5139L27.2889 45.4084ZM23.7111 45.4084C24.4482 46.8825 26.5518 46.8825 27.2889 45.4084L25.5 44.5139H25.5L23.7111 45.4084ZM20.3556 38.6972L23.7111 45.4084L25.5 44.5139L22.1444 37.8028L20.3556 38.6972ZM20.25 38.2471V38.25H22.25V38.2471H20.25ZM11.7221 37.649C12.8258 38.3865 14.0832 38.7736 15.6098 38.9847C17.1203 39.1935 18.9578 39.2371 21.2456 39.2471L21.2544 37.2471C18.957 37.2371 17.2448 37.1916 15.8837 37.0035C14.5386 36.8176 13.6023 36.4999 12.8332 35.986L11.7221 37.649ZM9.10104 35.0279C9.79414 36.0652 10.6848 36.9559 11.7221 37.649L12.8332 35.986C12.0143 35.4388 11.3112 34.7357 10.764 33.9168L9.10104 35.0279ZM7.5 23.375C7.5 26.3387 7.49879 28.6367 7.6842 30.4593C7.8713 32.2986 8.2567 33.7643 9.10104 35.0279L10.764 33.9168C10.1758 33.0365 9.84495 31.938 9.67393 30.2569C9.50121 28.559 9.5 26.3803 9.5 23.375H7.5ZM9.10104 11.7221C8.2567 12.9857 7.8713 14.4514 7.6842 16.2907C7.49879 18.1133 7.5 20.4113 7.5 23.375H9.5C9.5 20.3697 9.50121 18.191 9.67393 16.4931C9.84495 14.812 10.1758 13.7135 10.764 12.8332L9.10104 11.7221ZM11.7221 9.10104C10.6848 9.79414 9.79414 10.6848 9.10104 11.7221L10.764 12.8332C11.3112 12.0143 12.0143 11.3112 12.8332 10.764L11.7221 9.10104ZM23.375 7.5C20.4113 7.5 18.1133 7.49879 16.2907 7.6842C14.4514 7.8713 12.9857 8.2567 11.7221 9.10104L12.8332 10.764C13.7135 10.1758 14.812 9.84495 16.4931 9.67393C18.191 9.50121 20.3697 9.5 23.375 9.5V7.5ZM27.625 7.5H23.375V9.5H27.625V7.5ZM39.2779 9.10104C38.0143 8.2567 36.5486 7.8713 34.7093 7.6842C32.8867 7.49879 30.5887 7.5 27.625 7.5V9.5C30.6303 9.5 32.809 9.50121 34.5069 9.67393C36.188 9.84495 37.2865 10.1758 38.1668 10.764L39.2779 9.10104ZM41.899 11.7221C41.2059 10.6848 40.3152 9.79415 39.2779 9.10104L38.1668 10.764C38.9857 11.3112 39.6888 12.0143 40.236 12.8332L41.899 11.7221Z" fill="#33363F"/>
<circle cx="34" cy="23.375" r="2.125" fill="#33363F" stroke="#33363F" stroke-linecap="round"/>
<circle cx="25.5" cy="23.375" r="2.125" fill="#33363F" stroke="#33363F" stroke-linecap="round"/>
<circle cx="17" cy="23.375" r="2.125" fill="#33363F" stroke="#33363F" stroke-linecap="round"/>
</svg>
