<svg width="67" height="63" viewBox="0 0 67 63" fill="none" xmlns="http://www.w3.org/2000/svg">
<path d="M16.496 32.48H19.984C20.6667 32.48 21.1467 32.3413 21.424 32.064C21.7227 31.7653 21.872 31.2747 21.872 30.592V20.832C21.872 20.1493 21.7227 19.6693 21.424 19.392C21.1467 19.0933 20.6667 18.944 19.984 18.944H16.496C16.2613 18.944 16.144 19.0613 16.144 19.296V32.128C16.144 32.3627 16.2613 32.48 16.496 32.48ZM12.08 35.328V16.096C12.08 15.648 12.304 15.424 12.752 15.424H20.656C22.32 15.424 23.6107 15.8827 24.528 16.8C25.4667 17.696 25.936 18.976 25.936 20.64V30.784C25.936 32.448 25.4667 33.7387 24.528 34.656C23.6107 35.552 22.32 36 20.656 36H12.752C12.304 36 12.08 35.776 12.08 35.328ZM49.8315 15.424H54.5675C55.0155 15.424 55.2395 15.648 55.2395 16.096V35.328C55.2395 35.776 55.0155 36 54.5675 36H51.9435C51.4955 36 51.2715 35.776 51.2715 35.328V20.16H51.1435L47.8795 30.88C47.7515 31.3067 47.4848 31.52 47.0795 31.52H44.3915C43.9862 31.52 43.7195 31.3067 43.5915 30.88L40.2635 20.128H40.1355V35.328C40.1355 35.584 40.0928 35.7653 40.0075 35.872C39.9222 35.9573 39.7408 36 39.4635 36H36.8395C36.3915 36 36.1675 35.776 36.1675 35.328V16.096C36.1675 15.648 36.3915 15.424 36.8395 15.424H41.6075C41.9062 15.424 42.1088 15.5733 42.2155 15.872L45.6075 27.168H45.7995L49.2235 15.872C49.2875 15.5733 49.4902 15.424 49.8315 15.424Z" fill="black"/>
<path d="M2.82698 4.63803L5.0545 5.773L5.0545 5.773L2.82698 4.63803ZM3.2682 59.7052L5.03594 61.473L5.03596 61.4729L3.2682 59.7052ZM62.4406 47.8307L61.3056 45.6031L61.3056 45.6031L62.4406 47.8307ZM63.7516 46.5196L61.5241 45.3846L61.5241 45.3846L63.7516 46.5196ZM63.7516 4.63803L65.9791 3.50305L65.9791 3.50305L63.7516 4.63803ZM62.4406 3.32698L63.5756 1.09947L63.5756 1.09946L62.4406 3.32698ZM4.13803 3.32698L5.273 5.5545L5.273 5.5545L4.13803 3.32698ZM14.5228 48.4505L12.7551 46.6828L14.5228 48.4505ZM5 7.8C5 6.91867 5.00194 6.40803 5.03257 6.03319C5.06081 5.68753 5.10051 5.6827 5.0545 5.773L0.599464 3.50305C0.226472 4.23509 0.102679 4.97117 0.0491753 5.62603C-0.00194426 6.2517 0 7.00118 0 7.8H5ZM5 27.6314V7.8H0V27.6314H5ZM0 27.6314V48.1576H5V27.6314H0ZM0 48.1576V59.387H5V48.1576H0ZM0 59.387C0 62.0152 3.17757 63.3313 5.03594 61.473L1.50045 57.9374C2.79186 56.646 5 57.5606 5 59.387H0ZM5.03596 61.4729L16.2906 50.2183L12.7551 46.6828L1.50043 57.9374L5.03596 61.4729ZM59.2786 45.6576H15.2299V50.6576H59.2786V45.6576ZM61.3056 45.6031C61.3959 45.5571 61.3911 45.5968 61.0454 45.6251C60.6706 45.6557 60.1599 45.6576 59.2786 45.6576V50.6576C60.0774 50.6576 60.8269 50.6596 61.4526 50.6085C62.1074 50.555 62.8435 50.4312 63.5756 50.0582L61.3056 45.6031ZM61.5241 45.3846C61.4762 45.4787 61.3997 45.5552 61.3056 45.6031L63.5755 50.0582C64.6104 49.5309 65.4518 48.6895 65.9791 47.6546L61.5241 45.3846ZM61.5786 43.3576C61.5786 44.239 61.5767 44.7496 61.546 45.1245C61.5178 45.4701 61.4781 45.4749 61.5241 45.3846L65.9791 47.6546C66.3521 46.9226 66.4759 46.1865 66.5294 45.5316C66.5805 44.9059 66.5786 44.1565 66.5786 43.3576H61.5786ZM61.5786 7.8V43.3576H66.5786V7.8H61.5786ZM61.5241 5.77301C61.4781 5.6827 61.5178 5.68753 61.546 6.03319C61.5767 6.40802 61.5786 6.91867 61.5786 7.8H66.5786C66.5786 7.00117 66.5805 6.2517 66.5294 5.62603C66.4759 4.97117 66.3521 4.23509 65.9791 3.50305L61.5241 5.77301ZM61.3056 5.55449C61.3997 5.60243 61.4762 5.67892 61.5241 5.77301L65.9791 3.50305C65.4518 2.46816 64.6104 1.62677 63.5756 1.09947L61.3056 5.55449ZM59.2786 5.5C60.1599 5.5 60.6706 5.50194 61.0454 5.53257C61.3911 5.56081 61.3959 5.60051 61.3056 5.5545L63.5756 1.09946C62.8435 0.726472 62.1074 0.602679 61.4526 0.549175C60.8269 0.498056 60.0774 0.5 59.2786 0.5V5.5ZM7.3 5.5H59.2786V0.5H7.3V5.5ZM5.273 5.5545C5.1827 5.60051 5.18753 5.56081 5.53319 5.53257C5.90802 5.50194 6.41867 5.5 7.3 5.5V0.5C6.50117 0.5 5.7517 0.498056 5.12603 0.549175C4.47117 0.602679 3.73509 0.726472 3.00305 1.09946L5.273 5.5545ZM5.0545 5.773C5.10243 5.67892 5.17892 5.60243 5.273 5.5545L3.00305 1.09946C1.96816 1.62677 1.12677 2.46816 0.599464 3.50305L5.0545 5.773ZM16.2906 50.2183C16.0093 50.4996 15.6278 50.6576 15.2299 50.6576V45.6576C14.3017 45.6576 13.4114 46.0264 12.7551 46.6828L16.2906 50.2183Z" fill="#222222"/>
</svg>
