<svg width="48" height="49" viewBox="0 0 48 49" fill="none" xmlns="http://www.w3.org/2000/svg">
<circle cx="23.5" cy="16.3334" r="7.16667" stroke="#33363F" stroke-width="2" stroke-linecap="round"/>
<path d="M29.2699 15.8125C29.9495 14.6354 31.0689 13.7764 32.3819 13.4246C33.6948 13.0728 35.0937 13.257 36.2708 13.9366C37.4479 14.6162 38.3069 15.7356 38.6587 17.0486C39.0105 18.3615 38.8263 19.7604 38.1467 20.9375C37.4671 22.1146 36.3477 22.9736 35.0348 23.3254C33.7218 23.6772 32.3229 23.493 31.1458 22.8134C29.9687 22.1338 29.1097 21.0144 28.7579 19.7014C28.4061 18.3885 28.5903 16.9896 29.2699 15.8125L29.2699 15.8125Z" stroke="#33363F" stroke-width="2"/>
<path d="M8.85331 15.8125C9.53292 14.6354 10.6523 13.7764 11.9652 13.4246C13.2782 13.0728 14.6771 13.257 15.8542 13.9366C17.0313 14.6162 17.8903 15.7356 18.2421 17.0486C18.5939 18.3615 18.4097 19.7604 17.7301 20.9375C17.0505 22.1146 15.9311 22.9736 14.6181 23.3254C13.3052 23.6772 11.9063 23.493 10.7292 22.8134C9.55206 22.1338 8.69311 21.0144 8.34132 19.7014C7.98952 18.3885 8.17369 16.9896 8.85331 15.8125L8.85331 15.8125Z" stroke="#33363F" stroke-width="2"/>
<path d="M33.4666 36.7499L32.4863 36.9474L32.6479 37.7499H33.4666V36.7499ZM41.6487 35.6439L40.68 35.8923L40.68 35.8923L41.6487 35.6439ZM29.1775 30.0339L28.5726 29.2376L27.4161 30.1161L28.6494 30.8831L29.1775 30.0339ZM40.7422 35.7499H33.4666V37.7499H40.7422V35.7499ZM40.68 35.8923C40.6773 35.882 40.675 35.8597 40.6815 35.8324C40.6876 35.8067 40.6988 35.7872 40.7095 35.7744C40.7308 35.7489 40.7487 35.7499 40.7422 35.7499V37.7499C41.9175 37.7499 42.9481 36.6855 42.6173 35.3956L40.68 35.8923ZM33.7083 29.5833C36.1137 29.5833 37.6869 30.6213 38.7534 31.9134C39.8473 33.2389 40.4112 34.844 40.68 35.8923L42.6173 35.3956C42.314 34.2127 41.6553 32.2875 40.2959 30.6404C38.909 28.96 36.7982 27.5833 33.7083 27.5833V29.5833ZM29.7823 30.8303C30.7456 30.0986 32.0112 29.5833 33.7083 29.5833V27.5833C31.5673 27.5833 29.8782 28.2459 28.5726 29.2376L29.7823 30.8303ZM28.6494 30.8831C31.13 32.4259 32.1078 35.0681 32.4863 36.9474L34.4469 36.5525C34.0247 34.4561 32.8755 31.1563 29.7056 29.1848L28.6494 30.8831Z" fill="#33363F"/>
<path d="M17.8225 30.0339L18.3506 30.8831L19.5839 30.116L18.4274 29.2376L17.8225 30.0339ZM5.35135 35.6439L6.32001 35.8923L6.32001 35.8923L5.35135 35.6439ZM13.5333 36.7499V37.7499H14.352L14.5136 36.9474L13.5333 36.7499ZM13.2917 29.5833C14.9889 29.5833 16.2544 30.0986 17.2177 30.8302L18.4274 29.2376C17.1218 28.2459 15.4327 27.5833 13.2917 27.5833V29.5833ZM6.32001 35.8923C6.58883 34.844 7.15269 33.2389 8.24663 31.9134C9.3131 30.6213 10.8864 29.5833 13.2917 29.5833V27.5833C10.2019 27.5833 8.09103 28.96 6.70414 30.6404C5.34473 32.2875 4.686 34.2127 4.38269 35.3955L6.32001 35.8923ZM6.25781 35.7499C6.25127 35.7499 6.26922 35.7489 6.29051 35.7744C6.3012 35.7872 6.31245 35.8067 6.31852 35.8324C6.32499 35.8597 6.32266 35.882 6.32001 35.8923L4.38269 35.3955C4.05193 36.6855 5.0825 37.7499 6.25781 37.7499V35.7499ZM13.5333 35.7499H6.25781V37.7499H13.5333V35.7499ZM14.5136 36.9474C14.8921 35.0681 15.87 32.4258 18.3506 30.8831L17.2944 29.1847C14.1244 31.1562 12.9752 34.4561 12.553 36.5525L14.5136 36.9474Z" fill="#33363F"/>
<path d="M23.5 28.5833C31.7379 28.5833 33.328 35.2311 33.6349 37.7974C33.7005 38.3458 33.2606 38.7916 32.7084 38.7916H14.2917C13.7394 38.7916 13.2995 38.3458 13.3651 37.7974C13.672 35.2311 15.2621 28.5833 23.5 28.5833Z" stroke="#33363F" stroke-width="2" stroke-linecap="round"/>
</svg>
