<svg width="40" height="40" viewBox="0 0 40 40" fill="none" xmlns="http://www.w3.org/2000/svg">
<rect x="21.6667" y="23.3334" width="3.33333" height="3.33333" rx="1" fill="#33363F"/>
<rect x="11.6667" y="18.3334" width="3.33333" height="10" rx="1" fill="#33363F"/>
<rect x="18.3333" y="21.6666" width="3.33333" height="10" rx="1" transform="rotate(90 18.3333 21.6666)" fill="#33363F"/>
<rect x="26.6667" y="20" width="3.33333" height="3.33333" rx="1" fill="#33363F"/>
<path d="M23.3334 13.3334V13.1231C23.3334 11.6232 23.3334 10.8733 22.9098 10.3308C22.4862 9.78825 21.7586 9.60636 20.3035 9.24258L19.6965 9.09084C18.2414 8.72706 17.5139 8.54517 17.0903 8.00265C16.6667 7.46012 16.6667 6.71017 16.6667 5.21027V3.33337" stroke="#33363F" stroke-width="2" stroke-linecap="round"/>
<path d="M5 23.3334C5 19.0687 5 16.9364 6.03323 15.4674C6.29924 15.0892 6.60953 14.7507 6.95619 14.4605C8.30273 13.3334 10.2574 13.3334 14.1667 13.3334H25.8333C29.7426 13.3334 31.6973 13.3334 33.0438 14.4605C33.3905 14.7507 33.7008 15.0892 33.9668 15.4674C35 16.9364 35 19.0687 35 23.3334C35 27.5981 35 29.7304 33.9668 31.1993C33.7008 31.5775 33.3905 31.916 33.0438 32.2062C31.6973 33.3334 29.7426 33.3334 25.8333 33.3334H14.1667C10.2574 33.3334 8.30273 33.3334 6.95619 32.2062C6.60953 31.916 6.29924 31.5775 6.03323 31.1993C5 29.7304 5 27.5981 5 23.3334Z" stroke="#33363F" stroke-width="2"/>
</svg>
