<svg width="80" height="80" viewBox="0 0 80 80" fill="none" xmlns="http://www.w3.org/2000/svg">
<path d="M16.6667 42.5321C16.6667 38.0062 16.6667 35.7433 17.5815 33.7542C18.4964 31.765 20.2146 30.2923 23.6508 27.3469L26.9842 24.4898C33.1952 19.166 36.3008 16.5042 40 16.5042C43.6992 16.5042 46.8048 19.166 53.0158 24.4898L56.3492 27.3469C59.7854 30.2923 61.5036 31.765 62.4185 33.7542C63.3333 35.7433 63.3333 38.0062 63.3333 42.5321V56.6667C63.3333 62.9521 63.3333 66.0948 61.3807 68.0474C59.4281 70 56.2854 70 50 70H30C23.7146 70 20.5719 70 18.6193 68.0474C16.6667 66.0948 16.6667 62.9521 16.6667 56.6667V42.5321Z" stroke="#33363F" stroke-width="8"/>
<path d="M48.3333 70V51C48.3333 50.4477 47.8856 50 47.3333 50H32.6667C32.1144 50 31.6667 50.4477 31.6667 51V70" stroke="#33363F" stroke-width="8" stroke-linecap="round" stroke-linejoin="round"/>
</svg>
