<svg width="66" height="66" viewBox="0 0 66 66" fill="none" xmlns="http://www.w3.org/2000/svg">
<path d="M11 28.75C11 26.8644 11 25.9216 11.5858 25.3358C12.1716 24.75 13.1144 24.75 15 24.75H51C52.8856 24.75 53.8284 24.75 54.4142 25.3358C55 25.9216 55 26.8644 55 28.75V51.75C55 54.5784 55 55.9926 54.1213 56.8713C53.2426 57.75 51.8284 57.75 49 57.75H17C14.1716 57.75 12.7574 57.75 11.8787 56.8713C11 55.9926 11 54.5784 11 51.75V28.75Z" stroke="#33363F" stroke-width="4"/>
<path d="M44 22V18.25C44 13.536 44 11.1789 42.5355 9.71447C41.0711 8.25 38.714 8.25 34 8.25H32C27.286 8.25 24.9289 8.25 23.4645 9.71447C22 11.1789 22 13.536 22 18.25V22" stroke="#33363F" stroke-width="4" stroke-linecap="round"/>
<circle cx="33" cy="41.25" r="5.5" fill="#33363F"/>
</svg>
