<svg width="80" height="76" viewBox="0 0 80 76" fill="none" xmlns="http://www.w3.org/2000/svg">
<path d="M23.3334 22.5844V10.9128C23.3334 8.78054 23.3334 7.71442 24.0177 7.11671C24.702 6.51899 25.7584 6.66237 27.8713 6.94911L64.8069 11.9618C67.2816 12.2977 68.519 12.4656 69.2595 13.3134C70 14.1612 70 15.4099 70 17.9073V58.0925C70 60.5899 70 61.8386 69.2595 62.6864C68.519 63.5343 67.2816 63.7022 64.8069 64.038L27.8713 69.0507C25.7584 69.3375 24.702 69.4808 24.0177 68.8831C23.3334 68.2854 23.3334 67.2193 23.3334 65.0871V54.0421" stroke="#33363F" stroke-width="8"/>
<path d="M53.3334 38.0001L56.393 35.4235L58.5627 38.0001L56.393 40.5766L53.3334 38.0001ZM13.3334 42.0001C11.1242 42.0001 9.33337 40.2092 9.33337 38.0001C9.33337 35.7909 11.1242 34.0001 13.3334 34.0001V42.0001ZM43.0597 19.5902L56.393 35.4235L50.2737 40.5766L36.9404 24.7433L43.0597 19.5902ZM56.393 40.5766L43.0597 56.41L36.9404 51.2569L50.2737 35.4235L56.393 40.5766ZM53.3334 42.0001H13.3334V34.0001H53.3334V42.0001Z" fill="#33363F"/>
</svg>
