<svg width="37" height="37" viewBox="0 0 37 37" fill="none" xmlns="http://www.w3.org/2000/svg">
<path d="M3.08331 18.5001L2.30244 17.8754L1.80269 18.5001L2.30244 19.1248L3.08331 18.5001ZM16.9583 19.5001C17.5106 19.5001 17.9583 19.0524 17.9583 18.5001C17.9583 17.9478 17.5106 17.5001 16.9583 17.5001V19.5001ZM8.46911 10.1671L2.30244 17.8754L3.86418 19.1248L10.0308 11.4164L8.46911 10.1671ZM2.30244 19.1248L8.46911 26.8331L10.0308 25.5837L3.86418 17.8754L2.30244 19.1248ZM3.08331 19.5001H16.9583V17.5001H3.08331V19.5001Z" fill="#33363F"/>
<path d="M15.4167 12.5366V9.5551C15.4167 7.93675 15.4167 7.12758 15.8906 6.56809C16.3646 6.0086 17.1628 5.87557 18.7591 5.60952L26.9303 4.24765C30.1734 3.70714 31.7949 3.43688 32.8558 4.33557C33.9167 5.23427 33.9167 6.87818 33.9167 10.166V26.8338C33.9167 30.1217 33.9167 31.7656 32.8558 32.6643C31.7949 33.563 30.1734 33.2927 26.9303 32.7522L18.7591 31.3903C17.1628 31.1243 16.3646 30.9912 15.8906 30.4317C15.4167 29.8723 15.4167 29.0631 15.4167 27.4447V24.7683" stroke="#33363F" stroke-width="2"/>
</svg>
