<svg width="60" height="60" viewBox="0 0 60 60" fill="none" xmlns="http://www.w3.org/2000/svg">
<path fill-rule="evenodd" clip-rule="evenodd" d="M48.6643 13.6497C48.6642 13.6498 48.6594 13.6506 48.6502 13.6517C48.6599 13.6501 48.6645 13.6495 48.6643 13.6497ZM46.3502 11.3356C46.3504 11.3354 46.3498 11.34 46.3482 11.3497C46.3493 11.3405 46.3501 11.3357 46.3502 11.3356ZM45.2566 14.7433L35.9487 42.667C35.5788 43.7766 35.2702 44.6982 35 45.4631C34.7298 44.6982 34.4212 43.7766 34.0513 42.667L30.9785 33.4486C30.9588 33.3893 30.9379 33.3246 30.9154 33.255C30.6929 32.5666 30.3193 31.4104 29.4544 30.5455C28.5895 29.6806 27.4333 29.307 26.7449 29.0845C26.6753 29.062 26.6106 29.0411 26.5513 29.0214L17.3329 25.9485C16.2233 25.5787 15.3017 25.2701 14.5368 24.9999C15.3017 24.7297 16.2233 24.4211 17.3329 24.0512L45.2566 14.7433ZM47.5973 7.74485C48.3131 7.61751 49.9442 7.44943 51.2473 8.75258C52.5505 10.0557 52.3824 11.6868 52.255 12.4026C52.1321 13.094 51.8617 13.9035 51.6276 14.6043C51.6119 14.6511 51.5964 14.6975 51.5812 14.7433L41.6408 44.5644C41.6181 44.6326 41.5954 44.7006 41.5728 44.7683C40.8469 46.9466 40.2071 48.8667 39.5474 50.2228C38.9898 51.3689 37.7027 53.6753 35 53.6753C32.2974 53.6753 31.0103 51.3689 30.4527 50.2228C29.793 48.8666 29.1531 46.9465 28.4272 44.7682L28.3592 44.5643L25.2864 35.3459C25.2225 35.1542 25.1719 35.0026 25.1271 34.8728C24.9973 34.828 24.8457 34.7774 24.654 34.7135L15.4355 31.6406C15.3673 31.6179 15.2994 31.5953 15.2317 31.5727C13.0534 30.8468 11.1332 30.2069 9.77712 29.5472C8.63097 28.9896 6.32458 27.7025 6.32458 24.9999C6.32458 22.2972 8.63097 21.0101 9.77712 20.4525C11.1332 19.7928 13.0533 19.153 15.2316 18.4271C15.2993 18.4045 15.3673 18.3818 15.4355 18.3591L45.2566 8.41873C45.3024 8.40347 45.3487 8.38799 45.3955 8.37235C46.0964 8.13826 46.9059 7.86785 47.5973 7.74485Z" fill="#33363F"/>
</svg>
