<svg width="37" height="37" viewBox="0 0 37 37" fill="none" xmlns="http://www.w3.org/2000/svg">
<path d="M21.7634 4.88424H20.7634V4.93412L20.7684 4.98375L21.7634 4.88424ZM21.7634 4.88423H22.7634V4.83435L22.7584 4.78472L21.7634 4.88423ZM21.8546 5.79574L20.8595 5.89524V5.89524L21.8546 5.79574ZM22.6524 8.47502L22.2697 9.3989L22.6524 8.47502ZM25.1111 7.14464L25.7443 7.9186V7.9186L25.1111 7.14464ZM25.8201 6.5646L25.1868 5.79064L25.1868 5.79064L25.8201 6.5646ZM28.5007 6.6983L27.7936 7.4054L28.5007 6.6983ZM30.3015 8.4991L29.5944 9.20621L30.3015 8.4991ZM31.2331 9.79631L32.2319 9.7465L32.2319 9.7465L31.2331 9.79631ZM30.4352 11.1798L29.6613 10.5465V10.5465L30.4352 11.1798ZM29.8552 11.8888L30.6291 12.522V12.522L29.8552 11.8888ZM31.2041 15.1453L31.1046 16.1404L31.2041 15.1453ZM32.1157 15.2365L32.2152 14.2414L32.1157 15.2365ZM33.6581 15.6506L34.3996 14.9796L34.3995 14.9796L33.6581 15.6506ZM33.6581 21.3493L34.3996 22.0203L34.3996 22.0203L33.6581 21.3493ZM32.1157 21.7634V22.7634H32.1655L32.2152 22.7584L32.1157 21.7634ZM32.1157 21.7634V20.7634H32.0658L32.0161 20.7683L32.1157 21.7634ZM31.2047 21.8545L31.1052 20.8594H31.1052L31.2047 21.8545ZM29.8557 25.111L29.0818 25.7442L29.8557 25.111ZM30.4353 25.8194L31.2093 25.1861L30.4353 25.8194ZM25.8201 30.4346L26.4534 29.6606L26.4534 29.6606L25.8201 30.4346ZM25.1112 29.8545L24.4779 30.6285L24.4779 30.6285L25.1112 29.8545ZM21.8546 31.2034L20.8596 31.1039V31.1039L21.8546 31.2034ZM21.7634 32.1156L20.7684 32.0161L20.7634 32.0657V32.1156H21.7634ZM21.7634 32.1156L22.7584 32.2151L22.7634 32.1655V32.1156H21.7634ZM21.3493 33.658L22.0203 34.3995L22.0203 34.3995L21.3493 33.658ZM15.6506 33.658L14.9796 34.3995L14.9796 34.3995L15.6506 33.658ZM15.1454 31.204L14.1504 31.3035V31.3035L15.1454 31.204ZM11.8888 29.8551L11.2556 29.0812L11.8888 29.8551ZM11.1798 30.4353L10.5465 29.6613L11.1798 30.4353ZM9.7963 31.2331L9.74648 32.2319H9.74649L9.7963 31.2331ZM8.49909 30.3016L7.79198 31.0087L8.49909 30.3016ZM6.69829 28.5008L5.99118 29.2079L5.99118 29.2079L6.69829 28.5008ZM6.56459 25.8201L7.33854 26.4533H7.33854L6.56459 25.8201ZM7.14469 25.111L7.91865 25.7443L7.14469 25.111ZM8.47507 22.6523L7.55119 23.035H7.55119L8.47507 22.6523ZM5.79579 21.8545L5.69628 22.8495H5.69628L5.79579 21.8545ZM4.8843 21.7633L4.98381 20.7683L4.93418 20.7633H4.8843V21.7633ZM4.88429 21.7633L4.78478 22.7584L4.83441 22.7633H4.88429V21.7633ZM3.34186 21.3493L4.08331 20.6783H4.08331L3.34186 21.3493ZM3.08331 19.7733H2.08331H3.08331ZM3.08331 17.2266H4.08331H3.08331ZM3.34186 15.6506L2.60041 14.9796L2.60041 14.9796L3.34186 15.6506ZM4.88431 15.2365L4.7848 14.2414H4.7848L4.88431 15.2365ZM5.79636 15.1453L5.69686 14.1502H5.69686L5.79636 15.1453ZM8.47565 14.3474L9.39953 14.7301L9.39953 14.7301L8.47565 14.3474ZM7.14527 11.8887L6.37131 12.522H6.37131L7.14527 11.8887ZM6.56466 11.1791L7.33861 10.5459L7.33861 10.5459L6.56466 11.1791ZM6.69836 8.4984L5.99125 7.79129L6.69836 8.4984ZM8.49916 6.6976L9.20627 7.40471L8.49916 6.6976ZM11.1798 6.5639L11.8131 5.78994V5.78994L11.1798 6.5639ZM11.8889 7.14404L11.2557 7.918V7.918L11.8889 7.14404ZM15.1455 5.79513L16.1405 5.89464V5.89464L15.1455 5.79513ZM15.2365 4.88424L14.2415 4.78474V4.78474L15.2365 4.88424ZM15.6506 3.3418L14.9796 2.60035L14.9796 2.60035L15.6506 3.3418ZM21.3493 3.3418L20.6783 4.08325V4.08325L21.3493 3.3418ZM22.7634 4.88424V4.88423H20.7634V4.88424H22.7634ZM22.8496 5.69623L22.7584 4.78474L20.7684 4.98375L20.8595 5.89524L22.8496 5.69623ZM23.0351 7.55114C23.209 7.62317 23.1644 7.76478 23.0772 7.41811C22.9896 7.07003 22.9347 6.5468 22.8496 5.69623L20.8595 5.89524C20.9378 6.6782 21.0053 7.38013 21.1377 7.90606C21.2703 8.43341 21.543 9.09789 22.2697 9.3989L23.0351 7.55114ZM24.4779 6.37069C23.8163 6.91199 23.4074 7.24308 23.0994 7.42729C22.7926 7.61075 22.8612 7.47912 23.0351 7.55114L22.2697 9.3989C22.9964 9.69991 23.6591 9.42288 24.1258 9.1438C24.5913 8.86547 25.1353 8.41687 25.7443 7.9186L24.4779 6.37069ZM25.1868 5.79064L24.4779 6.37069L25.7443 7.9186L26.4533 7.33855L25.1868 5.79064ZM27.2533 4.76796C26.7786 4.74428 26.3941 4.91476 26.088 5.10564C25.8061 5.28142 25.499 5.53521 25.1868 5.79064L26.4533 7.33855C26.8069 7.04927 26.9991 6.89453 27.1463 6.80275C27.2692 6.72607 27.2436 6.76997 27.1537 6.76548L27.2533 4.76796ZM29.2079 5.99119C28.9226 5.70597 28.6423 5.42287 28.3793 5.21992C28.0937 4.99953 27.7281 4.79164 27.2533 4.76796L27.1537 6.76548C27.0638 6.761 27.0427 6.71477 27.1574 6.8033C27.2948 6.90928 27.4706 7.08237 27.7936 7.4054L29.2079 5.99119ZM31.0087 7.79199L29.2079 5.99119L27.7936 7.4054L29.5944 9.20621L31.0087 7.79199ZM32.2319 9.7465C32.2082 9.27174 32.0003 8.90618 31.7799 8.62057C31.577 8.35756 31.2939 8.07721 31.0087 7.79199L29.5944 9.20621C29.9175 9.52924 30.0906 9.70508 30.1965 9.84241C30.2851 9.95714 30.2388 9.93605 30.2344 9.84613L32.2319 9.7465ZM31.2092 11.813C31.4646 11.5008 31.7184 11.1937 31.8942 10.9118C32.0851 10.6057 32.2556 10.2213 32.2319 9.7465L30.2344 9.84613C30.2299 9.7562 30.2738 9.73062 30.1971 9.85359C30.1053 10.0008 29.9506 10.193 29.6613 10.5465L31.2092 11.813ZM30.6291 12.522L31.2092 11.813L29.6613 10.5465L29.0812 11.2555L30.6291 12.522ZM29.4487 13.9648C29.5207 14.1387 29.3891 14.2073 29.5725 13.9005C29.7567 13.5925 30.0878 13.1836 30.6291 12.522L29.0812 11.2555C28.5829 11.8645 28.1343 12.4086 27.856 12.8741C27.5769 13.3408 27.2999 14.0035 27.6009 14.7302L29.4487 13.9648ZM31.3036 14.1503C30.453 14.0652 29.9298 14.0102 29.5817 13.9227C29.235 13.8355 29.3766 13.7909 29.4487 13.9648L27.6009 14.7302C27.9019 15.4569 28.5664 15.7296 29.0937 15.8622C29.6197 15.9945 30.3216 16.0621 31.1046 16.1404L31.3036 14.1503ZM32.2152 14.2414L31.3036 14.1503L31.1046 16.1404L32.0162 16.2315L32.2152 14.2414ZM34.3995 14.9796C34.0806 14.6271 33.6882 14.4758 33.3368 14.3943C33.0131 14.3193 32.6165 14.2816 32.2152 14.2414L32.0162 16.2315C32.4707 16.277 32.716 16.3035 32.885 16.3426C33.0262 16.3754 32.9771 16.3883 32.9166 16.3216L34.3995 14.9796ZM34.9166 17.2266C34.9166 16.8232 34.9186 16.4248 34.8761 16.0953C34.83 15.7375 34.7185 15.332 34.3996 14.9796L32.9166 16.3216C32.8562 16.2548 32.874 16.2072 32.8925 16.3509C32.9147 16.523 32.9166 16.7697 32.9166 17.2266H34.9166ZM34.9166 19.7733V17.2266H32.9166V19.7733H34.9166ZM34.3996 22.0203C34.7185 21.6678 34.83 21.2623 34.8761 20.9045C34.9186 20.5751 34.9166 20.1766 34.9166 19.7733H32.9166C32.9166 20.2301 32.9147 20.4769 32.8925 20.6489C32.874 20.7926 32.8562 20.745 32.9166 20.6783L34.3996 22.0203ZM32.2152 22.7584C32.6165 22.7183 33.0132 22.6805 33.3368 22.6055C33.6882 22.524 34.0806 22.3727 34.3996 22.0203L32.9166 20.6783C32.9771 20.6115 33.0262 20.6245 32.885 20.6572C32.716 20.6964 32.4707 20.7229 32.0162 20.7683L32.2152 22.7584ZM32.1157 22.7634H32.1157V20.7634H32.1157V22.7634ZM31.3042 22.8495L32.2152 22.7584L32.0161 20.7683L31.1052 20.8594L31.3042 22.8495ZM29.4492 23.035C29.3772 23.2089 29.2356 23.1643 29.5823 23.0771C29.9304 22.9895 30.4536 22.9345 31.3042 22.8495L31.1052 20.8594C30.3222 20.9377 29.6203 21.0052 29.0943 21.1375C28.567 21.2702 27.9025 21.5429 27.6015 22.2696L29.4492 23.035ZM30.6297 24.4778C30.0884 23.8162 29.7573 23.4073 29.5731 23.0993C29.3896 22.7925 29.5213 22.8611 29.4492 23.035L27.6015 22.2696C27.3005 22.9963 27.5775 23.659 27.8566 24.1257C28.1349 24.5912 28.5835 25.1352 29.0818 25.7442L30.6297 24.4778ZM31.2093 25.1861L30.6297 24.4778L29.0818 25.7442L29.6614 26.4526L31.2093 25.1861ZM32.2319 27.2527C32.2556 26.7779 32.0852 26.3935 31.8943 26.0873C31.7185 25.8054 31.4647 25.4983 31.2093 25.1861L29.6614 26.4526C29.9506 26.8062 30.1054 26.9984 30.1972 27.1456C30.2738 27.2685 30.2299 27.243 30.2344 27.153L32.2319 27.2527ZM31.0087 29.2072C31.2939 28.9219 31.577 28.6416 31.78 28.3786C32.0004 28.093 32.2083 27.7274 32.2319 27.2527L30.2344 27.153C30.2389 27.0631 30.2851 27.042 30.1966 27.1567C30.0906 27.2941 29.9175 27.4699 29.5945 27.7929L31.0087 29.2072ZM29.2079 31.008L31.0087 29.2072L29.5945 27.7929L27.7937 29.5938L29.2079 31.008ZM27.2534 32.2312C27.7282 32.2075 28.0937 31.9996 28.3793 31.7792C28.6424 31.5763 28.9227 31.2932 29.2079 31.008L27.7937 29.5938C27.4707 29.9168 27.2948 30.0899 27.1575 30.1959C27.0428 30.2844 27.0639 30.2382 27.1538 30.2337L27.2534 32.2312ZM25.1869 31.2085C25.4991 31.4639 25.8062 31.7177 26.0881 31.8935C26.3942 32.0844 26.7787 32.2549 27.2534 32.2312L27.1538 30.2337C27.2437 30.2292 27.2693 30.2731 27.1463 30.1964C26.9991 30.1046 26.8069 29.9499 26.4534 29.6606L25.1869 31.2085ZM24.4779 30.6285L25.1869 31.2085L26.4534 29.6606L25.7444 29.0806L24.4779 30.6285ZM23.0352 29.448C22.8613 29.52 22.7926 29.3884 23.0994 29.5719C23.4075 29.7561 23.8164 30.0872 24.4779 30.6285L25.7444 29.0806C25.1354 28.5823 24.5913 28.1337 24.1259 27.8554C23.6592 27.5763 22.9965 27.2992 22.2698 27.6003L23.0352 29.448ZM22.8497 31.3029C22.9347 30.4524 22.9897 29.9291 23.0773 29.581C23.1645 29.2344 23.209 29.376 23.0352 29.448L22.2698 27.6003C21.5431 27.9013 21.2704 28.5657 21.1377 29.0931C21.0054 29.619 20.9379 30.3209 20.8596 31.1039L22.8497 31.3029ZM22.7584 32.2151L22.8497 31.3029L20.8596 31.1039L20.7684 32.0161L22.7584 32.2151ZM22.7634 32.1156V32.1156H20.7634V32.1156H22.7634ZM22.0203 34.3995C22.3728 34.0805 22.5241 33.6882 22.6056 33.3367C22.6806 33.0131 22.7183 32.6165 22.7584 32.2151L20.7684 32.0161C20.7229 32.4707 20.6964 32.716 20.6573 32.885C20.6245 33.0261 20.6116 32.977 20.6783 32.9166L22.0203 34.3995ZM19.7733 34.9166C20.1767 34.9166 20.5751 34.9185 20.9046 34.8761C21.2624 34.8299 21.6679 34.7185 22.0203 34.3995L20.6783 32.9166C20.7451 32.8562 20.7927 32.8739 20.649 32.8925C20.4769 32.9146 20.2302 32.9166 19.7733 32.9166V34.9166ZM17.2266 34.9166H19.7733V32.9166H17.2266V34.9166ZM14.9796 34.3995C15.3321 34.7185 15.7376 34.8299 16.0954 34.8761C16.4248 34.9185 16.8233 34.9166 17.2266 34.9166V32.9166C16.7698 32.9166 16.523 32.9146 16.351 32.8925C16.2073 32.8739 16.2549 32.8562 16.3216 32.9166L14.9796 34.3995ZM14.2415 32.2151C14.2816 32.6165 14.3194 33.0131 14.3944 33.3367C14.4759 33.6881 14.6272 34.0805 14.9796 34.3995L16.3216 32.9166C16.3884 32.977 16.3754 33.0261 16.3427 32.885C16.3035 32.716 16.277 32.4707 16.2316 32.0161L14.2415 32.2151ZM14.1504 31.3035L14.2415 32.2151L16.2316 32.0161L16.1404 31.1045L14.1504 31.3035ZM13.9649 29.4486C13.791 29.3766 13.8355 29.235 13.9227 29.5816C14.0103 29.9297 14.0653 30.453 14.1504 31.3035L16.1404 31.1045C16.0621 30.3216 15.9946 29.6196 15.8623 29.0937C15.7296 28.5664 15.4569 27.9019 14.7302 27.6009L13.9649 29.4486ZM12.5221 30.6291C13.1837 30.0878 13.5925 29.7567 13.9006 29.5725C14.2074 29.389 14.1387 29.5206 13.9649 29.4486L14.7302 27.6009C14.0035 27.2998 13.3408 27.5769 12.8741 27.856C12.4087 28.1343 11.8646 28.5829 11.2556 29.0812L12.5221 30.6291ZM11.813 31.2092L12.5221 30.6291L11.2556 29.0812L10.5465 29.6613L11.813 31.2092ZM9.74649 32.2319C10.2212 32.2556 10.6057 32.0851 10.9118 31.8942C11.1937 31.7184 11.5008 31.4646 11.813 31.2092L10.5465 29.6613C10.193 29.9506 10.0008 30.1053 9.85358 30.1971C9.73061 30.2738 9.75619 30.2299 9.84612 30.2344L9.74649 32.2319ZM7.79198 31.0087C8.0772 31.2939 8.35755 31.577 8.62055 31.7799C8.90616 32.0003 9.27173 32.2082 9.74648 32.2319L9.84612 30.2344C9.93604 30.2389 9.95713 30.2851 9.8424 30.1965C9.70507 30.0906 9.52923 29.9175 9.20619 29.5944L7.79198 31.0087ZM5.99118 29.2079L7.79198 31.0087L9.20619 29.5944L7.40539 27.7936L5.99118 29.2079ZM4.76795 27.2534C4.79163 27.7281 4.99952 28.0937 5.21991 28.3793C5.42286 28.6423 5.70596 28.9226 5.99118 29.2079L7.40539 27.7936C7.08236 27.4706 6.90926 27.2948 6.80329 27.1574C6.71476 27.0427 6.76099 27.0638 6.76547 27.1537L4.76795 27.2534ZM5.79063 25.1868C5.5352 25.499 5.28141 25.8061 5.10563 26.088C4.91475 26.3942 4.74427 26.7786 4.76795 27.2534L6.76547 27.1537C6.76996 27.2436 6.72606 27.2692 6.80274 27.1463C6.89452 26.9991 7.04926 26.8069 7.33854 26.4533L5.79063 25.1868ZM6.37073 24.4778L5.79063 25.1868L7.33854 26.4533L7.91865 25.7443L6.37073 24.4778ZM7.55119 23.035C7.47917 22.8611 7.6108 22.7925 7.42734 23.0993C7.24312 23.4074 6.91203 23.8162 6.37073 24.4778L7.91865 25.7443C8.41692 25.1353 8.86552 24.5912 9.14385 24.1258C9.42293 23.6591 9.69996 22.9964 9.39895 22.2697L7.55119 23.035ZM5.69628 22.8495C6.54685 22.9346 7.07008 22.9896 7.41816 23.0772C7.76483 23.1644 7.62322 23.2089 7.55119 23.035L9.39895 22.2697C9.09794 21.543 8.43346 21.2703 7.90611 21.1376C7.38018 21.0053 6.67825 20.9378 5.89529 20.8595L5.69628 22.8495ZM4.7848 22.7584L5.69628 22.8495L5.89529 20.8595L4.98381 20.7683L4.7848 22.7584ZM4.88429 22.7633H4.8843V20.7633H4.88429V22.7633ZM2.60041 22.0203C2.91937 22.3727 3.31175 22.524 3.66318 22.6055C3.9868 22.6805 4.38342 22.7183 4.78478 22.7584L4.98379 20.7683C4.52923 20.7229 4.28391 20.6964 4.11494 20.6572C3.97377 20.6245 4.0229 20.6115 4.08331 20.6783L2.60041 22.0203ZM2.08331 19.7733C2.08331 20.1766 2.08137 20.5751 2.12383 20.9045C2.16995 21.2623 2.28145 21.6678 2.60041 22.0203L4.08331 20.6783C4.14373 20.745 4.12595 20.7926 4.10743 20.6489C4.08526 20.4768 4.08331 20.2301 4.08331 19.7733H2.08331ZM2.08331 17.2266L2.08331 19.7733H4.08331L4.08331 17.2266H2.08331ZM2.60041 14.9796C2.28145 15.332 2.16995 15.7375 2.12383 16.0953C2.08137 16.4248 2.08331 16.8232 2.08331 17.2266H4.08331C4.08331 16.7697 4.08526 16.523 4.10743 16.3509C4.12595 16.2072 4.14373 16.2548 4.08331 16.3216L2.60041 14.9796ZM4.7848 14.2414C4.38344 14.2816 3.98681 14.3193 3.66319 14.3943C3.31175 14.4758 2.91937 14.6271 2.60041 14.9796L4.08331 16.3216C4.0229 16.3883 3.97377 16.3754 4.11494 16.3426C4.28392 16.3035 4.52924 16.277 4.98381 16.2315L4.7848 14.2414ZM5.69686 14.1502L4.7848 14.2414L4.98381 16.2315L5.89587 16.1403L5.69686 14.1502ZM7.55177 13.9648C7.6238 13.7909 7.76541 13.8354 7.41874 13.9226C7.07066 14.0102 6.54743 14.0652 5.69686 14.1502L5.89587 16.1403C6.67883 16.062 7.38076 15.9945 7.90669 15.8622C8.43403 15.7295 9.09852 15.4568 9.39953 14.7301L7.55177 13.9648ZM6.37131 12.522C6.91261 13.1836 7.24371 13.5924 7.42792 13.9005C7.61138 14.2073 7.47975 14.1386 7.55177 13.9648L9.39953 14.7301C9.70054 14.0034 9.42351 13.3407 9.14443 12.874C8.8661 12.4086 8.4175 11.8645 7.91923 11.2555L6.37131 12.522ZM5.7907 11.8123L6.37131 12.522L7.91923 11.2555L7.33861 10.5459L5.7907 11.8123ZM4.76802 9.7458C4.74435 10.2206 4.91482 10.605 5.1057 10.9111C5.28148 11.193 5.53527 11.5001 5.7907 11.8123L7.33861 10.5459C7.04933 10.1923 6.89459 10.0001 6.80281 9.85289C6.72613 9.72993 6.77003 9.75551 6.76554 9.84543L4.76802 9.7458ZM5.99125 7.79129C5.70603 8.07652 5.42293 8.35686 5.21998 8.61987C4.99959 8.90548 4.7917 9.27104 4.76802 9.7458L6.76554 9.84543C6.76106 9.93535 6.71483 9.95644 6.80336 9.84171C6.90934 9.70438 7.08243 9.52854 7.40546 9.20551L5.99125 7.79129ZM7.79205 5.99049L5.99125 7.79129L7.40546 9.20551L9.20627 7.40471L7.79205 5.99049ZM9.74656 4.76727C9.2718 4.79095 8.90623 4.99883 8.62063 5.21922C8.35762 5.42218 8.07727 5.70527 7.79205 5.99049L9.20627 7.40471C9.5293 7.08167 9.70514 6.90858 9.84247 6.80261C9.9572 6.71407 9.93611 6.7603 9.84619 6.76478L9.74656 4.76727ZM11.8131 5.78994C11.5009 5.53451 11.1938 5.28072 10.9119 5.10495C10.6058 4.91406 10.2213 4.74359 9.74656 4.76727L9.84619 6.76478C9.75627 6.76927 9.73068 6.72537 9.85365 6.80205C10.0008 6.89383 10.193 7.04857 10.5466 7.33786L11.8131 5.78994ZM12.5221 6.37008L11.8131 5.78994L10.5466 7.33786L11.2557 7.918L12.5221 6.37008ZM13.9649 7.55054C14.1388 7.47851 14.2075 7.61015 13.9007 7.42669C13.5926 7.24247 13.1837 6.91138 12.5221 6.37008L11.2557 7.918C11.8647 8.41627 12.4088 8.86486 12.8742 9.14319C13.3409 9.42227 14.0036 9.69931 14.7303 9.3983L13.9649 7.55054ZM14.1504 5.69563C14.0654 6.5462 14.0104 7.06943 13.9228 7.41751C13.8356 7.76418 13.791 7.62257 13.9649 7.55054L14.7303 9.3983C15.457 9.09729 15.7297 8.4328 15.8624 7.90546C15.9947 7.37953 16.0622 6.6776 16.1405 5.89464L14.1504 5.69563ZM14.2415 4.78474L14.1504 5.69563L16.1405 5.89464L16.2316 4.98375L14.2415 4.78474ZM14.9796 2.60035C14.6272 2.91931 14.4759 3.31169 14.3944 3.66313C14.3194 3.98675 14.2816 4.38338 14.2415 4.78474L16.2316 4.98375C16.277 4.52918 16.3035 4.28386 16.3427 4.11488C16.3754 3.97371 16.3884 4.02284 16.3216 4.08325L14.9796 2.60035ZM17.2266 2.08325C16.8233 2.08325 16.4248 2.08131 16.0954 2.12377C15.7376 2.16989 15.3321 2.28139 14.9796 2.60035L16.3216 4.08325C16.2549 4.14367 16.2073 4.12589 16.351 4.10737C16.523 4.08519 16.7698 4.08325 17.2266 4.08325V2.08325ZM19.7733 2.08325H17.2266V4.08325H19.7733V2.08325ZM22.0203 2.60035C21.6679 2.28139 21.2624 2.16989 20.9046 2.12377C20.5751 2.08131 20.1767 2.08325 19.7733 2.08325V4.08325C20.2302 4.08325 20.4769 4.08519 20.649 4.10737C20.7927 4.12589 20.7451 4.14367 20.6783 4.08325L22.0203 2.60035ZM22.7584 4.78472C22.7183 4.38336 22.6806 3.98674 22.6056 3.66312C22.5241 3.31169 22.3728 2.9193 22.0203 2.60035L20.6783 4.08325C20.6116 4.02284 20.6245 3.97371 20.6573 4.11488C20.6964 4.28385 20.7229 4.52917 20.7684 4.98373L22.7584 4.78472ZM23.6666 18.4999C23.6666 21.3534 21.3534 23.6666 18.5 23.6666V25.6666C22.458 25.6666 25.6666 22.458 25.6666 18.4999H23.6666ZM18.5 13.3333C21.3534 13.3333 23.6666 15.6464 23.6666 18.4999H25.6666C25.6666 14.5419 22.458 11.3333 18.5 11.3333V13.3333ZM13.3333 18.4999C13.3333 15.6464 15.6465 13.3333 18.5 13.3333V11.3333C14.5419 11.3333 11.3333 14.5419 11.3333 18.4999H13.3333ZM18.5 23.6666C15.6465 23.6666 13.3333 21.3534 13.3333 18.4999H11.3333C11.3333 22.458 14.5419 25.6666 18.5 25.6666V23.6666Z" fill="#33363F"/>
</svg>
