<svg width="200" height="150" viewBox="0 0 200 150" fill="none" xmlns="http://www.w3.org/2000/svg">
<g clip-path="url(#clip0_765_775)">
<rect width="200" height="150" fill="white"/>
<path d="M0 0H200V150H0V0Z" fill="#4495F7"/>
<path d="M100 51.6665L97.1716 48.8381L100 46.0096L102.828 48.8381L100 51.6665ZM104 81.6665C104 83.8756 102.209 85.6665 100 85.6665C97.7908 85.6665 96 83.8756 96 81.6665L104 81.6665ZM80.5049 65.5047L97.1716 48.8381L102.828 54.4949L86.1617 71.1616L80.5049 65.5047ZM102.828 48.8381L119.495 65.5047L113.838 71.1616L97.1716 54.4949L102.828 48.8381ZM104 51.6665L104 81.6665L96 81.6665L96 51.6665L104 51.6665Z" fill="#33363F"/>
<path d="M76.6667 88.3335L76.6667 91.6668C76.6667 95.3487 79.6515 98.3335 83.3334 98.3335L116.667 98.3335C120.349 98.3335 123.333 95.3487 123.333 91.6668V88.3335" stroke="#33363F" stroke-width="8"/>
</g>
<defs>
<clipPath id="clip0_765_775">
<rect width="200" height="150" fill="white"/>
</clipPath>
</defs>
</svg>
