<svg width="200" height="150" viewBox="0 0 200 150" fill="none" xmlns="http://www.w3.org/2000/svg">
<path d="M-0.5 -0.5H199.5V74.5V149.5H-0.5V-0.5Z" fill="white"/>
<path d="M59.6666 75.0002L56.5432 72.5014L54.5441 75.0002L56.5432 77.4989L59.6666 75.0002ZM89.6666 79.0002C91.8758 79.0002 93.6666 77.2093 93.6666 75.0002C93.6666 72.791 91.8758 71.0002 89.6666 71.0002V79.0002ZM69.8765 55.8347L56.5432 72.5014L62.7901 77.4989L76.1234 60.8323L69.8765 55.8347ZM56.5432 77.4989L69.8765 94.1656L76.1234 89.168L62.7901 72.5014L56.5432 77.4989ZM59.6666 79.0002H89.6666V71.0002H59.6666V79.0002Z" fill="#222222"/>
<path d="M86.3334 62.1063V51.7217C86.3334 50.1033 86.3334 49.2942 86.8073 48.7347C87.2813 48.1752 88.0795 48.0422 89.6758 47.7761L119.347 42.8309C122.59 42.2904 124.212 42.0201 125.272 42.9188C126.333 43.8175 126.333 45.4614 126.333 48.7493V101.25C126.333 104.538 126.333 106.182 125.272 107.081C124.212 107.98 122.59 107.709 119.347 107.169L89.6758 102.224C88.0795 101.958 87.2813 101.824 86.8073 101.265C86.3334 100.706 86.3334 99.8963 86.3334 98.278V88.5531" stroke="#222222" stroke-width="8"/>
</svg>
