<svg width="200" height="150" viewBox="0 0 200 150" fill="none" xmlns="http://www.w3.org/2000/svg">
<g clip-path="url(#clip0_765_649)">
<rect width="200" height="150" fill="white"/>
<path d="M0 0H200V75V150H0V0Z" fill="white"/>
<path d="M107.553 37.4317L111.533 37.0325L111.533 37.0325L107.553 37.4317ZM108.635 48.2169L104.655 48.6162L104.655 48.6162L108.635 48.2169ZM109.432 50.8917L110.965 47.1971L110.965 47.1971L109.432 50.8917ZM111.889 49.5671L109.361 46.4676L109.361 46.4676L111.889 49.5671ZM120.315 42.6942L122.843 45.7938L122.843 45.7938L120.315 42.6942ZM121.696 41.9L121.497 45.8951L121.497 45.8951L121.696 41.9ZM122.991 42.8277L125.815 39.995L125.815 39.995L122.991 42.8277ZM131.519 51.3303L134.343 48.4977L134.343 48.4977L131.519 51.3303ZM132.455 52.6296L136.45 52.4303L136.45 52.4302L132.455 52.6296ZM131.653 54.0154L134.745 56.553L134.745 56.553L131.653 54.0154ZM124.779 62.3926L121.686 59.855L121.686 59.855L124.779 62.3926ZM123.442 64.8532L119.746 66.3817L119.746 66.3817L123.442 64.8532ZM126.126 65.6514L126.523 61.6712L126.126 65.6514ZM136.944 66.7299L136.547 70.7102L136.547 70.7102L136.944 66.7299ZM138.486 67.1437L141.452 64.4592L141.452 64.4592L138.486 67.1437ZM138.486 82.3145L141.452 84.999L141.452 84.9989L138.486 82.3145ZM136.944 82.7283L136.547 78.748L136.547 78.748L136.944 82.7283ZM126.128 83.8066L126.524 87.7869L126.524 87.7869L126.128 83.8066ZM123.444 84.6049L119.747 83.0763L119.747 83.0763L123.444 84.6049ZM124.78 87.0655L121.688 89.603L121.688 89.603L124.78 87.0655ZM131.653 95.441L134.745 92.9035L134.745 92.9035L131.653 95.441ZM132.455 96.8269L136.45 97.0262L136.45 97.0262L132.455 96.8269ZM131.519 98.1261L128.695 95.2934L128.691 95.2976L131.519 98.1261ZM131.519 98.1261L134.344 100.959L134.348 100.955L131.519 98.1261ZM122.991 106.629L125.815 109.461L125.815 109.461L122.991 106.629ZM121.696 107.556L121.497 103.561L121.497 103.561L121.696 107.556ZM120.315 106.762L122.843 103.663L122.843 103.663L120.315 106.762ZM111.889 99.8893L109.361 102.989L109.361 102.989L111.889 99.8893ZM109.433 98.5647L110.965 102.259L110.965 102.259L109.433 98.5647ZM108.635 101.24L104.655 100.84L104.655 100.84L108.635 101.24ZM107.553 112.026L111.533 112.426L111.533 112.426L107.553 112.026ZM91.9201 113.568L94.6037 110.602L94.6037 110.602L91.9201 113.568ZM91.5057 112.026L87.5257 112.426L87.5257 112.426L91.5057 112.026ZM90.4239 101.241L94.4039 100.842L94.4039 100.842L90.4239 101.241ZM89.6265 98.5663L88.0935 102.261L88.0936 102.261L89.6265 98.5663ZM87.1697 99.8909L89.6981 102.99L89.6981 102.99L87.1697 99.8909ZM78.7438 106.764L76.2155 103.664L76.2155 103.664L78.7438 106.764ZM77.3628 107.558L77.5619 103.563L77.5619 103.563L77.3628 107.558ZM76.0676 106.631L78.8917 103.798L78.8917 103.798L76.0676 106.631ZM67.5393 98.1279L70.3634 95.2952L70.3634 95.2952L67.5393 98.1279ZM66.6037 96.8287L70.5988 96.6294L70.5988 96.6293L66.6037 96.8287ZM67.4053 95.4428L64.3132 92.9053L64.3132 92.9053L67.4053 95.4428ZM74.28 87.0656L77.3721 89.6031L77.3721 89.6031L74.28 87.0656ZM75.6162 84.605L79.3126 83.0764L79.3126 83.0764L75.6162 84.605ZM72.9324 83.8067L72.5356 87.787L72.5356 87.787L72.9324 83.8067ZM62.1153 82.7283L62.5121 78.748L62.5121 78.748L62.1153 82.7283ZM60.5724 82.3145L63.5378 79.63L63.5378 79.63L60.5724 82.3145ZM60.3137 80.7381L56.3137 80.7381L60.3137 80.7381ZM60.3137 68.7201L64.3137 68.7201L60.3137 68.7201ZM60.5724 67.1437L57.607 64.4592L57.607 64.4592L60.5724 67.1437ZM62.1153 66.7299L62.5121 70.7102L62.5121 70.7102L62.1153 66.7299ZM72.9339 65.6513L72.537 61.6711L72.537 61.6711L72.9339 65.6513ZM75.6177 64.8531L71.9213 63.3245L71.9213 63.3245L75.6177 64.8531ZM74.2815 62.3924L77.3736 59.8549L77.3736 59.8549L74.2815 62.3924ZM67.4055 54.0137L70.4976 51.4761L70.4976 51.4761L67.4055 54.0137ZM67.5394 51.3286L70.3636 54.1612L70.3636 54.1612L67.5394 51.3286ZM76.0677 42.8259L78.8919 45.6586L78.8919 45.6586L76.0677 42.8259ZM77.363 41.8983L77.5622 45.8933L77.5622 45.8933L77.363 41.8983ZM78.744 42.6925L81.2724 39.5929L81.2724 39.5929L78.744 42.6925ZM87.1699 49.5656L84.6415 52.6652L84.6415 52.6652L87.1699 49.5656ZM89.6266 50.8902L91.1595 54.5848L91.1595 54.5848L89.6266 50.8902ZM90.4241 48.2154L94.4041 48.6146L94.4041 48.6146L90.4241 48.2154ZM91.5057 37.4317L87.5257 37.0325L87.5257 37.0325L91.5057 37.4317ZM91.9201 35.8898L94.6037 38.856L94.6037 38.856L91.9201 35.8898ZM111.533 37.0325C111.501 36.7111 111.446 36.0877 111.317 35.5322C111.162 34.8655 110.803 33.8112 109.822 32.9236L104.455 38.856C104.136 38.5669 103.902 38.2401 103.744 37.9281C103.599 37.6423 103.542 37.4174 103.524 37.3414C103.508 37.2689 103.51 37.2548 103.523 37.3622C103.536 37.4684 103.55 37.6028 103.573 37.831L111.533 37.0325ZM112.615 47.8177L111.533 37.0325L103.573 37.8309L104.655 48.6162L112.615 47.8177ZM110.965 47.1971C111.278 47.3267 111.578 47.5082 111.847 47.7386C112.112 47.9658 112.306 48.2046 112.444 48.4144C112.578 48.619 112.657 48.794 112.701 48.9045C112.744 49.0145 112.763 49.0876 112.767 49.1027C112.77 49.1165 112.751 49.04 112.719 48.7864C112.688 48.5404 112.657 48.2413 112.615 47.8177L104.655 48.6162C104.723 49.2962 104.81 50.265 105.009 51.057C105.21 51.8556 105.825 53.7258 107.899 54.5863L110.965 47.1971ZM109.361 46.4676C109.031 46.7366 108.798 46.9264 108.601 47.0781C108.399 47.2344 108.332 47.2749 108.344 47.2676C108.357 47.2597 108.422 47.2214 108.531 47.1745C108.64 47.1274 108.82 47.0598 109.059 47.0102C109.305 46.9593 109.611 46.928 109.959 46.9555C110.313 46.9834 110.653 47.0675 110.965 47.1971L107.899 54.5863C109.974 55.4469 111.732 54.5614 112.439 54.1398C113.141 53.7217 113.888 53.0987 114.417 52.6667L109.361 46.4676ZM117.786 39.5947L109.361 46.4676L114.417 52.6667L122.843 45.7938L117.786 39.5947ZM121.895 37.905C120.576 37.8393 119.579 38.3288 118.998 38.6897C118.515 38.9902 118.036 39.391 117.786 39.5947L122.843 45.7938C123.02 45.6492 123.125 45.5643 123.209 45.4989C123.294 45.4327 123.286 45.4442 123.222 45.4836C123.156 45.5248 122.957 45.643 122.653 45.7422C122.321 45.8506 121.926 45.9165 121.497 45.8951L121.895 37.905ZM125.815 39.995C125.587 39.7675 125.15 39.3211 124.699 38.9739C124.157 38.5571 123.213 37.9707 121.895 37.905L121.497 45.8951C121.067 45.8737 120.68 45.7688 120.361 45.6279C120.068 45.4989 119.882 45.3615 119.82 45.3139C119.761 45.2685 119.754 45.2562 119.832 45.3305C119.909 45.4039 120.005 45.4989 120.167 45.6604L125.815 39.995ZM134.343 48.4977L125.815 39.995L120.167 45.6604L128.695 54.163L134.343 48.4977ZM136.45 52.4302C136.384 51.1052 135.792 50.1581 135.372 49.6158C135.023 49.1639 134.573 48.7265 134.343 48.4977L128.695 54.163C128.858 54.3254 128.954 54.4213 129.028 54.499C129.103 54.5776 129.091 54.5705 129.045 54.5116C128.998 54.4499 128.859 54.2632 128.729 53.9695C128.587 53.6488 128.481 53.2604 128.46 52.8289L136.45 52.4302ZM134.745 56.553C134.951 56.3024 135.355 55.8224 135.658 55.338C136.021 54.7566 136.516 53.7552 136.45 52.4303L128.46 52.8289C128.438 52.3973 128.505 52.0004 128.614 51.6671C128.714 51.3619 128.834 51.1623 128.875 51.0962C128.914 51.0331 128.926 51.0248 128.859 51.1105C128.793 51.1952 128.707 51.3002 128.561 51.4779L134.745 56.553ZM127.871 64.9301L134.745 56.553L128.561 51.4779L121.686 59.855L127.871 64.9301ZM127.139 63.3246C127.268 63.6381 127.352 63.9796 127.379 64.3339C127.406 64.6834 127.374 64.99 127.322 65.2359C127.272 65.4755 127.204 65.6552 127.157 65.764C127.109 65.8723 127.071 65.9371 127.063 65.9501C127.056 65.9616 127.098 65.8935 127.255 65.6907C127.408 65.4939 127.6 65.2603 127.871 64.9301L121.686 59.855C121.251 60.3857 120.624 61.1325 120.203 61.834C119.78 62.5397 118.885 64.3007 119.746 66.3817L127.139 63.3246ZM126.523 61.6712C126.098 61.6288 125.797 61.5985 125.55 61.5673C125.295 61.5351 125.218 61.516 125.231 61.5192C125.246 61.5229 125.319 61.5417 125.429 61.5851C125.539 61.6286 125.714 61.7077 125.919 61.8418C126.129 61.9794 126.369 62.1737 126.596 62.4401C126.827 62.7102 127.009 63.0111 127.139 63.3246L119.746 66.3817C120.606 68.4628 122.484 69.0776 123.282 69.2781C124.075 69.4775 125.046 69.5636 125.729 69.6317L126.523 61.6712ZM137.34 62.7497L126.523 61.6712L125.729 69.6317L136.547 70.7102L137.34 62.7497ZM141.452 64.4592C140.563 63.4779 139.508 63.1193 138.841 62.9648C138.286 62.8361 137.662 62.7817 137.34 62.7497L136.547 70.7102C136.775 70.733 136.909 70.7466 137.016 70.7598C137.123 70.7732 137.109 70.7753 137.037 70.7585C136.961 70.741 136.736 70.6839 136.45 70.5391C136.137 70.381 135.81 70.1478 135.521 69.8282L141.452 64.4592ZM142.745 68.7201C142.745 68.3968 142.753 67.7707 142.68 67.205C142.592 66.526 142.34 65.4406 141.452 64.4592L135.521 69.8281C135.232 69.5085 135.032 69.16 134.906 68.8336C134.79 68.5346 134.756 68.3051 134.746 68.2277C134.736 68.1539 134.74 68.1401 134.742 68.2484C134.745 68.3555 134.745 68.4906 134.745 68.7201H142.745ZM142.745 80.7381V68.7201H134.745V80.7381H142.745ZM141.452 84.9989C142.34 84.0176 142.592 82.9322 142.68 82.2532C142.753 81.6874 142.745 81.0614 142.745 80.7381H134.745C134.745 80.9675 134.745 81.1027 134.742 81.2098C134.74 81.3181 134.736 81.3043 134.746 81.2305C134.756 81.1531 134.79 80.9236 134.906 80.6246C135.032 80.2982 135.232 79.9497 135.521 79.6301L141.452 84.9989ZM137.34 86.7085C137.662 86.6765 138.286 86.6221 138.841 86.4934C139.508 86.3389 140.563 85.9803 141.452 84.999L135.521 79.63C135.81 79.3104 136.137 79.0772 136.45 78.9191C136.736 78.7743 136.961 78.7172 137.037 78.6996C137.109 78.6828 137.123 78.685 137.016 78.6984C136.909 78.7116 136.775 78.7252 136.547 78.748L137.34 86.7085ZM126.524 87.7869L137.34 86.7085L136.547 78.748L125.731 79.8263L126.524 87.7869ZM127.14 86.1334C127.011 86.4469 126.829 86.7478 126.598 87.0179C126.37 87.2843 126.131 87.4786 125.92 87.6162C125.716 87.7503 125.54 87.8294 125.43 87.873C125.32 87.9163 125.247 87.9351 125.232 87.9388C125.219 87.9421 125.297 87.923 125.552 87.8907C125.799 87.8595 126.099 87.8292 126.524 87.7869L125.731 79.8263C125.048 79.8944 124.077 79.9806 123.283 80.1799C122.485 80.3804 120.608 80.9953 119.747 83.0763L127.14 86.1334ZM127.872 84.528C127.601 84.1978 127.41 83.9641 127.257 83.7674C127.099 83.5646 127.058 83.4964 127.065 83.5079C127.073 83.5209 127.111 83.5857 127.158 83.694C127.205 83.8028 127.274 83.9825 127.324 84.2222C127.376 84.468 127.408 84.7747 127.381 85.1241C127.354 85.4785 127.27 85.8199 127.14 86.1334L119.747 83.0763C118.887 85.1573 119.781 86.9183 120.205 87.624C120.626 88.3255 121.252 89.0724 121.688 89.603L127.872 84.528ZM134.745 92.9035L127.872 84.528L121.688 89.603L128.561 97.9785L134.745 92.9035ZM136.45 97.0262C136.516 95.7012 136.022 94.6998 135.658 94.1185C135.355 93.634 134.951 93.1541 134.745 92.9035L128.561 97.9785C128.707 98.1563 128.793 98.2613 128.859 98.346C128.926 98.4317 128.915 98.4234 128.875 98.3602C128.834 98.2941 128.715 98.0945 128.614 97.7893C128.505 97.4561 128.438 97.0591 128.46 96.6276L136.45 97.0262ZM134.344 100.959C134.573 100.73 135.023 100.293 135.373 99.8406C135.792 99.2983 136.384 98.3512 136.45 97.0262L128.46 96.6276C128.481 96.1961 128.587 95.8077 128.729 95.487C128.859 95.1933 128.998 95.0065 129.046 94.9449C129.091 94.886 129.103 94.8788 129.028 94.9574C128.954 95.0351 128.858 95.131 128.695 95.2934L134.344 100.959ZM134.348 100.955L134.348 100.954L128.691 95.2976L128.691 95.2977L134.348 100.955ZM125.815 109.461L134.344 100.959L128.695 95.2934L120.167 103.796L125.815 109.461ZM121.895 111.551C123.214 111.486 124.158 110.899 124.699 110.483C125.15 110.135 125.587 109.689 125.815 109.461L120.167 103.796C120.005 103.958 119.909 104.053 119.832 104.126C119.754 104.2 119.761 104.188 119.82 104.143C119.882 104.095 120.068 103.958 120.361 103.828C120.681 103.688 121.067 103.583 121.497 103.561L121.895 111.551ZM117.786 109.862C118.036 110.065 118.515 110.466 118.999 110.767C119.579 111.128 120.577 111.617 121.895 111.551L121.497 103.561C121.926 103.54 122.321 103.606 122.653 103.714C122.957 103.813 123.156 103.932 123.223 103.973C123.286 104.012 123.295 104.024 123.209 103.958C123.125 103.892 123.02 103.807 122.843 103.663L117.786 109.862ZM109.361 102.989L117.786 109.862L122.843 103.663L114.418 96.7898L109.361 102.989ZM110.965 102.259C110.653 102.389 110.313 102.473 109.959 102.501C109.611 102.528 109.305 102.497 109.059 102.446C108.82 102.397 108.64 102.329 108.531 102.282C108.423 102.235 108.357 102.197 108.344 102.189C108.332 102.182 108.399 102.222 108.602 102.378C108.798 102.53 109.031 102.72 109.361 102.989L114.418 96.7898C113.888 96.3578 113.141 95.7347 112.44 95.3166C111.732 94.895 109.974 94.0095 107.9 94.8701L110.965 102.259ZM112.615 101.639C112.658 101.215 112.688 100.916 112.719 100.67C112.751 100.416 112.77 100.34 112.767 100.354C112.763 100.369 112.744 100.442 112.701 100.552C112.657 100.662 112.578 100.837 112.444 101.042C112.306 101.252 112.113 101.491 111.847 101.718C111.578 101.948 111.278 102.13 110.965 102.259L107.9 94.8701C105.825 95.7307 105.21 97.6009 105.009 98.3994C104.81 99.1914 104.723 100.16 104.655 100.84L112.615 101.639ZM111.533 112.426L112.615 101.639L104.655 100.84L103.573 111.627L111.533 112.426ZM109.822 116.535C110.803 115.647 111.162 114.593 111.317 113.926C111.446 113.371 111.501 112.747 111.533 112.426L103.573 111.627C103.55 111.855 103.536 111.99 103.523 112.096C103.51 112.203 103.508 112.189 103.524 112.117C103.542 112.041 103.599 111.816 103.744 111.53C103.902 111.218 104.136 110.891 104.455 110.602L109.822 116.535ZM105.563 117.827C105.886 117.827 106.512 117.835 107.077 117.762C107.756 117.674 108.841 117.422 109.822 116.535L104.455 110.602C104.775 110.313 105.123 110.114 105.449 109.987C105.748 109.872 105.978 109.837 106.055 109.827C106.129 109.818 106.143 109.821 106.034 109.824C105.927 109.827 105.792 109.827 105.563 109.827V117.827ZM93.4957 117.827H105.563V109.827H93.4957V117.827ZM89.2365 116.535C90.2177 117.422 91.3025 117.674 91.9813 117.762C92.5469 117.835 93.1726 117.827 93.4957 117.827V109.827C93.2664 109.827 93.1313 109.827 93.0243 109.824C92.9161 109.821 92.9299 109.818 93.0038 109.827C93.0811 109.837 93.3106 109.872 93.6094 109.987C93.9357 110.114 94.2841 110.313 94.6037 110.602L89.2365 116.535ZM87.5257 112.426C87.5579 112.747 87.6126 113.371 87.7416 113.926C87.8963 114.593 88.2554 115.647 89.2365 116.535L94.6037 110.602C94.9232 110.891 95.1564 111.218 95.3146 111.53C95.4595 111.816 95.5167 112.041 95.5343 112.117C95.5512 112.189 95.549 112.203 95.5356 112.096C95.5223 111.99 95.5086 111.855 95.4857 111.627L87.5257 112.426ZM86.4439 101.64L87.5257 112.426L95.4857 111.627L94.4039 100.842L86.4439 101.64ZM88.0936 102.261C87.7811 102.131 87.4813 101.95 87.212 101.719C86.9464 101.492 86.7525 101.253 86.6151 101.044C86.4811 100.839 86.4019 100.664 86.3583 100.554C86.3148 100.443 86.2959 100.37 86.2921 100.355C86.2886 100.342 86.3076 100.418 86.3398 100.672C86.3711 100.918 86.4014 101.217 86.4439 101.64L94.4039 100.842C94.3357 100.162 94.2492 99.1929 94.0497 98.401C93.8485 97.6024 93.2335 95.7322 91.1594 94.8717L88.0936 102.261ZM89.6981 102.99C90.0279 102.721 90.2611 102.532 90.4573 102.38C90.6596 102.224 90.7271 102.183 90.7149 102.19C90.7016 102.198 90.6365 102.237 90.5279 102.283C90.4188 102.331 90.239 102.398 89.9996 102.448C89.754 102.499 89.448 102.53 89.0996 102.503C88.7463 102.475 88.406 102.391 88.0935 102.261L91.1594 94.8717C89.0852 94.0111 87.3269 94.8966 86.6194 95.3181C85.9179 95.7363 85.1709 96.3593 84.6413 96.7913L89.6981 102.99ZM81.2722 109.864L89.6981 102.99L84.6413 96.7913L76.2155 103.664L81.2722 109.864ZM77.1636 111.553C78.4822 111.619 79.4797 111.129 80.0601 110.769C80.5435 110.468 81.0226 110.067 81.2722 109.864L76.2155 103.664C76.0382 103.809 75.9337 103.894 75.8494 103.959C75.7641 104.026 75.7728 104.014 75.836 103.975C75.9023 103.933 76.1015 103.815 76.4055 103.716C76.7373 103.608 77.1325 103.542 77.5619 103.563L77.1636 111.553ZM73.2434 109.463C73.4715 109.691 73.9084 110.137 74.3595 110.484C74.9011 110.901 75.845 111.487 77.1636 111.553L77.5619 103.563C77.9915 103.585 78.3781 103.689 78.6975 103.83C78.9902 103.959 79.1766 104.097 79.2385 104.144C79.2975 104.19 79.3049 104.202 79.2266 104.128C79.1493 104.054 79.0537 103.959 78.8917 103.798L73.2434 109.463ZM64.7151 100.961L73.2434 109.463L78.8917 103.798L70.3634 95.2952L64.7151 100.961ZM62.6087 97.028C62.6748 98.353 63.2665 99.3001 63.6861 99.8424C64.0358 100.294 64.4855 100.732 64.7151 100.961L70.3634 95.2952C70.2006 95.1328 70.1047 95.0369 70.0305 94.9592C69.9554 94.8806 69.9676 94.8877 70.0131 94.9466C70.0609 95.0083 70.1993 95.1951 70.3294 95.4888C70.4715 95.8095 70.5772 96.1978 70.5988 96.6294L62.6087 97.028ZM64.3132 92.9053C64.1076 93.1559 63.7036 93.6358 63.4007 94.1203C63.0371 94.7016 62.5426 95.703 62.6087 97.028L70.5988 96.6293C70.6203 97.0609 70.5537 97.4579 70.4443 97.7911C70.3441 98.0963 70.2249 98.2959 70.1835 98.362C70.1441 98.4251 70.1326 98.4335 70.1996 98.3477C70.2657 98.263 70.3515 98.1581 70.4974 97.9803L64.3132 92.9053ZM71.1879 84.5281L64.3132 92.9053L70.4974 97.9803L77.3721 89.6031L71.1879 84.5281ZM71.9198 86.1335C71.7902 85.82 71.7064 85.4786 71.6791 85.1242C71.6522 84.7748 71.6845 84.4681 71.7361 84.2223C71.7864 83.9826 71.8546 83.8029 71.9019 83.6941C71.9491 83.5858 71.9875 83.521 71.9953 83.508C72.0022 83.4965 71.9609 83.5647 71.8033 83.7675C71.6503 83.9642 71.4589 84.1979 71.1879 84.5281L77.3721 89.6031C77.8076 89.0725 78.4342 88.3256 78.8552 87.6241C79.2786 86.9185 80.1732 85.1574 79.3126 83.0764L71.9198 86.1335ZM72.5356 87.787C72.9606 87.8294 73.2611 87.8596 73.5084 87.8909C73.7632 87.9231 73.8406 87.9422 73.8276 87.9389C73.8129 87.9352 73.7399 87.9164 73.63 87.8731C73.5197 87.8295 73.3445 87.7505 73.1396 87.6163C72.9294 87.4787 72.69 87.2844 72.4622 87.0181C72.2312 86.7479 72.0494 86.447 71.9198 86.1335L79.3126 83.0764C78.4521 80.9954 76.575 80.3805 75.7768 80.18C74.9834 79.9807 74.0123 79.8945 73.3292 79.8264L72.5356 87.787ZM61.7185 86.7085L72.5356 87.787L73.3292 79.8264L62.5121 78.748L61.7185 86.7085ZM57.607 84.999C58.4953 85.9803 59.5504 86.3389 60.2174 86.4934C60.7731 86.6221 61.3968 86.6765 61.7185 86.7085L62.5121 78.748C62.2839 78.7252 62.1494 78.7116 62.0431 78.6984C61.9355 78.685 61.9496 78.6828 62.0222 78.6996C62.0982 78.7172 62.3231 78.7743 62.6092 78.9191C62.9214 79.0772 63.2484 79.3104 63.5378 79.63L57.607 84.999ZM56.3137 80.7381C56.3137 81.0614 56.3059 81.6874 56.3789 82.2532C56.4664 82.9322 56.7186 84.0176 57.607 84.999L63.5378 79.63C63.8271 79.9497 64.0267 80.2982 64.1531 80.6246C64.2688 80.9236 64.3033 81.1531 64.3132 81.2305C64.3228 81.3043 64.3192 81.3181 64.3166 81.2098C64.314 81.1027 64.3137 80.9675 64.3137 80.7381L56.3137 80.7381ZM56.3137 68.7201L56.3137 80.7381L64.3137 80.7381L64.3137 68.7201L56.3137 68.7201ZM57.607 64.4592C56.7186 65.4406 56.4664 66.526 56.3789 67.205C56.3059 67.7707 56.3137 68.3968 56.3137 68.7201L64.3137 68.7201C64.3137 68.4906 64.314 68.3555 64.3166 68.2484C64.3192 68.14 64.3228 68.1539 64.3132 68.2277C64.3033 68.3051 64.2688 68.5346 64.1531 68.8336C64.0267 69.16 63.8271 69.5085 63.5378 69.8281L57.607 64.4592ZM61.7185 62.7497C61.3968 62.7817 60.7731 62.8361 60.2173 62.9648C59.5504 63.1192 58.4953 63.4779 57.607 64.4592L63.5378 69.8281C63.2484 70.1478 62.9214 70.381 62.6092 70.5391C62.3231 70.6839 62.0982 70.7409 62.0222 70.7585C61.9496 70.7753 61.9355 70.7732 62.0431 70.7598C62.1494 70.7466 62.2839 70.7329 62.5121 70.7102L61.7185 62.7497ZM72.537 61.6711L61.7185 62.7497L62.5121 70.7102L73.3307 69.6316L72.537 61.6711ZM71.9213 63.3245C72.0509 63.011 72.2327 62.7101 72.4637 62.44C72.6915 62.1736 72.9309 61.9793 73.1411 61.8417C73.3459 61.7076 73.5211 61.6285 73.6315 61.585C73.7414 61.5416 73.8143 61.5228 73.829 61.5191C73.842 61.5159 73.7647 61.535 73.5098 61.5672C73.2626 61.5984 72.9621 61.6287 72.537 61.6711L73.3307 69.6316C74.0138 69.5635 74.9849 69.4773 75.7783 69.278C76.5765 69.0775 78.4536 68.4626 79.3141 66.3816L71.9213 63.3245ZM71.1894 64.9299C71.4604 65.2601 71.6518 65.4938 71.8047 65.6905C71.9624 65.8933 72.0037 65.9615 71.9968 65.95C71.989 65.937 71.9506 65.8722 71.9034 65.7639C71.856 65.6551 71.7879 65.4754 71.7375 65.2357C71.6859 64.9899 71.6537 64.6832 71.6806 64.3338C71.7078 63.9794 71.7916 63.638 71.9213 63.3245L79.3141 66.3816C80.1747 64.3006 79.28 62.5396 78.8566 61.8339C78.4357 61.1324 77.8091 60.3856 77.3736 59.8549L71.1894 64.9299ZM64.3134 56.5512L71.1894 64.9299L77.3736 59.8549L70.4976 51.4761L64.3134 56.5512ZM62.6089 52.4285C62.5428 53.7535 63.0373 54.7548 63.4008 55.3362C63.7038 55.8207 64.1077 56.3006 64.3134 56.5512L70.4976 51.4761C70.3517 51.2984 70.2658 51.1934 70.1997 51.1087C70.1328 51.023 70.1442 51.0313 70.1837 51.0944C70.2251 51.1606 70.3442 51.3602 70.4444 51.6654C70.5539 51.9986 70.6205 52.3956 70.5989 52.8271L62.6089 52.4285ZM64.7153 48.4959C64.4857 48.7248 64.036 49.1621 63.6863 49.614C63.2667 50.1563 62.675 51.1035 62.6089 52.4285L70.5989 52.8271C70.5774 53.2586 70.4716 53.647 70.3296 53.9677C70.1995 54.2614 70.061 54.4482 70.0133 54.5098C69.9678 54.5687 69.9556 54.5758 70.0307 54.4972C70.1049 54.4195 70.2007 54.3236 70.3636 54.1612L64.7153 48.4959ZM73.2436 39.9932L64.7153 48.4959L70.3636 54.1612L78.8919 45.6586L73.2436 39.9932ZM77.1638 37.9032C75.8452 37.969 74.9013 38.5554 74.3597 38.9721C73.9086 39.3193 73.4717 39.7658 73.2436 39.9932L78.8919 45.6586C79.0539 45.4971 79.1494 45.4022 79.2268 45.3287C79.3051 45.2544 79.2977 45.2667 79.2386 45.3122C79.1768 45.3598 78.9903 45.4971 78.6977 45.6262C78.3783 45.767 77.9916 45.8719 77.5622 45.8933L77.1638 37.9032ZM81.2724 39.5929C81.0228 39.3893 80.5437 38.9885 80.0602 38.6879C79.4799 38.3271 78.4823 37.8375 77.1638 37.9032L77.5622 45.8933C77.1327 45.9147 76.7375 45.8488 76.4057 45.7405C76.1016 45.6412 75.9025 45.523 75.8362 45.4818C75.7729 45.4425 75.7643 45.4309 75.8496 45.4971C75.9339 45.5625 76.0384 45.6474 76.2156 45.792L81.2724 39.5929ZM89.6982 46.466L81.2724 39.5929L76.2156 45.792L84.6415 52.6652L89.6982 46.466ZM88.0937 47.1956C88.4062 47.0659 88.7464 46.9818 89.0997 46.9539C89.4481 46.9264 89.7542 46.9578 89.9997 47.0087C90.2392 47.0583 90.419 47.1258 90.528 47.173C90.6366 47.2199 90.7017 47.2581 90.7151 47.2661C90.7273 47.2734 90.6598 47.2329 90.4575 47.0765C90.2612 46.9249 90.0281 46.7351 89.6982 46.466L84.6415 52.6652C85.1711 53.0972 85.918 53.7202 86.6196 54.1383C87.327 54.5599 89.0854 55.4454 91.1595 54.5848L88.0937 47.1956ZM86.444 47.8162C86.4016 48.2397 86.3713 48.5389 86.34 48.7849C86.3078 49.0385 86.2888 49.1149 86.2923 49.1012C86.2961 49.0861 86.315 49.013 86.3584 48.9029C86.4021 48.7924 86.4812 48.6175 86.6152 48.4129C86.7527 48.2031 86.9466 47.9643 87.2121 47.7371C87.4814 47.5067 87.7813 47.3252 88.0937 47.1956L91.1595 54.5848C93.2337 53.7242 93.8487 51.854 94.0499 51.0555C94.2494 50.2635 94.3359 49.2946 94.4041 48.6146L86.444 47.8162ZM87.5257 37.0325L86.444 47.8162L94.4041 48.6146L95.4857 37.8309L87.5257 37.0325ZM89.2365 32.9236C88.2554 33.8112 87.8964 34.8655 87.7416 35.5322C87.6126 36.0877 87.5579 36.7111 87.5257 37.0325L95.4857 37.8309C95.5086 37.6028 95.5223 37.4684 95.5356 37.3622C95.549 37.2548 95.5512 37.2689 95.5343 37.3414C95.5167 37.4174 95.4595 37.6423 95.3146 37.9281C95.1564 38.2401 94.9232 38.5669 94.6037 38.856L89.2365 32.9236ZM93.4957 31.6313C93.1726 31.6313 92.5468 31.6236 91.9813 31.6965C91.3025 31.7839 90.2177 32.0359 89.2365 32.9236L94.6037 38.856C94.2841 39.1451 93.9357 39.3446 93.6094 39.4708C93.3106 39.5865 93.0811 39.6209 93.0038 39.6308C92.9299 39.6404 92.9161 39.6368 93.0243 39.6342C93.1313 39.6316 93.2664 39.6313 93.4957 39.6313V31.6313ZM105.563 31.6313H93.4957V39.6313H105.563V31.6313ZM109.822 32.9236C108.841 32.0359 107.756 31.7839 107.077 31.6965C106.512 31.6236 105.886 31.6313 105.563 31.6313V39.6313C105.792 39.6313 105.927 39.6316 106.034 39.6342C106.143 39.6368 106.129 39.6404 106.055 39.6309C105.978 39.6209 105.748 39.5865 105.449 39.4708C105.123 39.3446 104.775 39.1451 104.455 38.856L109.822 32.9236ZM111.216 74.7291C111.216 81.1458 105.995 86.3682 99.5294 86.3682V94.3682C110.39 94.3682 119.216 85.5868 119.216 74.7291H111.216ZM99.5294 63.09C105.995 63.09 111.216 68.3123 111.216 74.7291H119.216C119.216 63.8714 110.39 55.09 99.5294 55.09V63.09ZM87.8431 74.7291C87.8431 68.3123 93.0639 63.09 99.5294 63.09V55.09C88.6683 55.09 79.8431 63.8714 79.8431 74.7291H87.8431ZM99.5294 86.3682C93.0639 86.3682 87.8431 81.1458 87.8431 74.7291H79.8431C79.8431 85.5868 88.6683 94.3682 99.5294 94.3682V86.3682Z" fill="#33363F"/>
</g>
<defs>
<clipPath id="clip0_765_649">
<rect width="200" height="150" fill="white"/>
</clipPath>
</defs>
</svg>
