<svg width="200" height="150" viewBox="0 0 200 150" fill="none" xmlns="http://www.w3.org/2000/svg">
<path d="M0 0H200V150H0V0Z" fill="#D34053"/>
<path d="M143.5 59.25L143.5 54" stroke="black" stroke-width="4" stroke-linecap="round"/>
<path d="M150.5 59.25L150.5 54" stroke="black" stroke-width="4" stroke-linecap="round"/>
<path d="M131.25 45.25H162.75H161.5C159.614 45.25 158.672 45.25 158.086 45.8358C157.5 46.4216 157.5 47.3644 157.5 49.25V64C157.5 65.8856 157.5 66.8284 156.914 67.4142C156.328 68 155.386 68 153.5 68H140.5C138.614 68 137.672 68 137.086 67.4142C136.5 66.8284 136.5 65.8856 136.5 64V49.25C136.5 47.3644 136.5 46.4216 135.914 45.8358C135.328 45.25 134.386 45.25 132.5 45.25H131.25Z" stroke="black" stroke-width="4" stroke-linecap="round"/>
<path d="M143.619 38.8985C143.819 38.7125 144.258 38.5481 144.869 38.4308C145.481 38.3136 146.229 38.25 147 38.25C147.77 38.25 148.519 38.3136 149.131 38.4308C149.742 38.5481 150.181 38.7125 150.381 38.8985" stroke="black" stroke-width="4" stroke-linecap="round"/>
<path d="M29.3012 46.996H31.6532C32.0639 46.996 32.2692 47.1827 32.2692 47.556V60.436C32.2692 61.892 31.8586 63.0213 31.0372 63.824C30.2346 64.608 29.1052 65 27.6492 65H24.5692C23.0946 65 21.9559 64.608 21.1532 63.824C20.3506 63.04 19.9492 61.9107 19.9492 60.436V47.584C19.9492 47.192 20.1452 46.996 20.5372 46.996H22.9172C23.3092 46.996 23.5052 47.192 23.5052 47.584V60.268C23.5052 60.8653 23.6266 61.2947 23.8692 61.556C24.1306 61.7987 24.5506 61.92 25.1292 61.92H27.0612C27.6586 61.92 28.0786 61.7987 28.3212 61.556C28.5826 61.2947 28.7132 60.8653 28.7132 60.268V47.584C28.7132 47.192 28.9092 46.996 29.3012 46.996ZM49.2812 65H43.9612C43.5879 65 43.4012 64.804 43.4012 64.412V62.62C43.4012 62.4147 43.4385 62.2747 43.5132 62.2C43.5879 62.1067 43.7372 62.06 43.9612 62.06H48.6372C49.5519 62.06 50.0092 61.78 50.0092 61.22V61.08C50.0092 60.632 49.6265 60.2027 48.8612 59.792L46.0892 58.252C45.1372 57.7667 44.4372 57.244 43.9892 56.684C43.5412 56.124 43.3172 55.4053 43.3172 54.528C43.3172 53.2213 43.6625 52.26 44.3532 51.644C45.0439 51.028 46.1265 50.72 47.6012 50.72H52.2772C52.6505 50.72 52.8372 50.916 52.8372 51.308V53.128C52.8372 53.3333 52.7999 53.4827 52.7252 53.576C52.6505 53.6507 52.5012 53.688 52.2772 53.688H48.3852C47.4705 53.688 47.0132 53.9213 47.0132 54.388V54.528C47.0132 54.9387 47.4145 55.3587 48.2172 55.788L51.0452 57.468C52.0159 57.9907 52.6972 58.532 53.0892 59.092C53.4812 59.6333 53.6772 60.352 53.6772 61.248C53.6772 63.7493 52.2119 65 49.2812 65ZM75.0825 65H68.8945C67.4199 65 66.2812 64.608 65.4785 63.824C64.6759 63.04 64.2745 61.9107 64.2745 60.436V55.284C64.2745 53.8093 64.6759 52.68 65.4785 51.896C66.2812 51.112 67.4199 50.72 68.8945 50.72H71.1065C72.5812 50.72 73.7199 51.112 74.5225 51.896C75.3252 52.68 75.7265 53.8093 75.7265 55.284V58.84C75.7265 59.232 75.5305 59.428 75.1385 59.428H68.1105C67.8865 59.428 67.7745 59.5307 67.7745 59.736V60.352C67.7745 60.9307 67.8959 61.3507 68.1385 61.612C68.3999 61.8547 68.8292 61.976 69.4265 61.976H75.0825C75.4745 61.976 75.6705 62.1813 75.6705 62.592V64.44C75.6705 64.6453 75.6239 64.7947 75.5305 64.888C75.4559 64.9627 75.3065 65 75.0825 65ZM68.1105 57.048H71.9185C72.1239 57.048 72.2265 56.9453 72.2265 56.74V55.396C72.2265 54.7987 72.1052 54.3787 71.8625 54.136C71.6199 53.8933 71.1999 53.772 70.6025 53.772H69.4265C68.8292 53.772 68.4092 53.8933 68.1665 54.136C67.9239 54.3787 67.8025 54.7987 67.8025 55.396V56.74C67.8025 56.9453 67.9052 57.048 68.1105 57.048ZM89.7585 65H87.3785C86.9865 65 86.7905 64.804 86.7905 64.412V51.308C86.7905 50.916 86.9865 50.72 87.3785 50.72H89.7585C90.1505 50.72 90.3465 50.916 90.3465 51.308V52.26H90.4585C90.6638 51.756 91.0278 51.3733 91.5505 51.112C92.0731 50.8507 92.6238 50.72 93.2025 50.72H94.2105C94.5838 50.72 94.7705 50.916 94.7705 51.308V53.24C94.7705 53.464 94.7238 53.6227 94.6305 53.716C94.5558 53.7907 94.4158 53.8187 94.2105 53.8H92.2785C90.9905 53.8 90.3465 54.528 90.3465 55.984V64.412C90.3465 64.804 90.1505 65 89.7585 65ZM26.3052 101H22.3852C21.9746 101 21.7412 100.804 21.6852 100.412L18.6892 83.584C18.6332 83.192 18.8292 82.996 19.2772 82.996H22.1892C22.6186 82.996 22.8426 83.192 22.8612 83.584L24.4852 97.388H24.6812L27.3692 83.5C27.4252 83.164 27.6212 82.996 27.9572 82.996H31.0932C31.4479 82.996 31.6532 83.1547 31.7092 83.472L34.4532 97.388H34.6772L36.2732 83.612C36.2919 83.2013 36.5159 82.996 36.9452 82.996H39.8572C40.3052 82.996 40.5012 83.2013 40.4452 83.612L37.4212 100.412C37.3652 100.804 37.1506 101 36.7772 101H32.8292C32.4372 101 32.2132 100.804 32.1572 100.412L29.6372 87.28H29.5252L26.9772 100.412C26.9026 100.804 26.6786 101 26.3052 101ZM50.9352 84.312V81.876C50.9352 81.5027 51.1218 81.316 51.4952 81.316H53.9312C54.3045 81.316 54.4912 81.4933 54.4912 81.848V84.312C54.4912 84.6853 54.3045 84.872 53.9312 84.872H51.4952C51.1218 84.872 50.9352 84.6853 50.9352 84.312ZM50.9352 100.412V87.308C50.9352 86.916 51.1218 86.72 51.4952 86.72H53.9032C54.2952 86.72 54.4912 86.916 54.4912 87.308V100.412C54.4912 100.655 54.4445 100.813 54.3512 100.888C54.2765 100.963 54.1365 101 53.9312 101H51.5232C51.1312 101 50.9352 100.804 50.9352 100.412ZM66.4211 89.8H65.3011C65.0771 89.8 64.9185 89.7627 64.8251 89.688C64.7505 89.6133 64.7131 89.464 64.7131 89.24V87.308C64.7131 86.916 64.9091 86.72 65.3011 86.72H66.4211C66.6265 86.72 66.7291 86.6173 66.7291 86.412V83.752C66.7291 83.36 66.9345 83.164 67.3451 83.164H69.6971C70.0891 83.164 70.2851 83.36 70.2851 83.752V86.412C70.2851 86.6173 70.3971 86.72 70.6211 86.72H72.8051C73.1971 86.72 73.3931 86.916 73.3931 87.308V89.24C73.3931 89.4453 73.3465 89.5947 73.2531 89.688C73.1785 89.7627 73.0291 89.8 72.8051 89.8H70.6211C70.3971 89.8 70.2851 89.9027 70.2851 90.108V96.296C70.2851 96.8747 70.4158 97.2947 70.6771 97.556C70.9385 97.7987 71.3678 97.92 71.9651 97.92H73.0851C73.4771 97.92 73.6731 98.116 73.6731 98.508V100.44C73.6731 100.645 73.6265 100.795 73.5331 100.888C73.4585 100.963 73.3091 101 73.0851 101H71.3771C69.9025 101 68.7545 100.608 67.9331 99.824C67.1305 99.04 66.7291 97.92 66.7291 96.464V90.108C66.7291 89.9027 66.6265 89.8 66.4211 89.8ZM87.3522 101H84.9722C84.5802 101 84.3842 100.804 84.3842 100.412V81.904C84.3842 81.512 84.5802 81.316 84.9722 81.316H87.3522C87.7442 81.316 87.9402 81.512 87.9402 81.904V88.232H88.0522C88.4629 87.224 89.3776 86.72 90.7962 86.72H91.6922C94.6229 86.72 96.0882 88.2413 96.0882 91.284V100.412C96.0882 100.804 95.8829 101 95.4722 101H93.1202C92.7282 101 92.5322 100.804 92.5322 100.412V91.452C92.5322 90.8547 92.4016 90.4347 92.1402 90.192C91.8976 89.9307 91.4776 89.8 90.8802 89.8H89.8722C88.5842 89.8 87.9402 90.5093 87.9402 91.928V100.412C87.9402 100.804 87.7442 101 87.3522 101ZM112.676 101H111.528C110.091 101 108.999 100.608 108.252 99.824C107.524 99.04 107.16 97.9107 107.16 96.436V91.284C107.16 89.8093 107.524 88.68 108.252 87.896C108.999 87.112 110.091 86.72 111.528 86.72H112.676C113.255 86.72 113.806 86.8507 114.328 87.112C114.851 87.3547 115.215 87.728 115.42 88.232H115.532V81.904C115.532 81.512 115.728 81.316 116.12 81.316H118.5C118.892 81.316 119.088 81.512 119.088 81.904V100.412C119.088 100.804 118.892 101 118.5 101H116.12C115.728 101 115.532 100.804 115.532 100.412V99.488H115.42C115.215 99.992 114.851 100.375 114.328 100.636C113.806 100.879 113.255 101 112.676 101ZM115.532 95.792V91.928C115.532 90.5093 114.888 89.8 113.6 89.8H112.34C111.743 89.8 111.323 89.9307 111.08 90.192C110.838 90.4347 110.716 90.8547 110.716 91.452V96.268C110.716 96.8653 110.838 97.2947 111.08 97.556C111.323 97.7987 111.743 97.92 112.34 97.92H113.6C114.888 97.92 115.532 97.2107 115.532 95.792ZM133.547 101H131.167C130.775 101 130.579 100.804 130.579 100.412V87.308C130.579 86.916 130.775 86.72 131.167 86.72H133.547C133.939 86.72 134.135 86.916 134.135 87.308V88.26H134.247C134.452 87.756 134.816 87.3733 135.339 87.112C135.861 86.8507 136.412 86.72 136.991 86.72H137.999C138.372 86.72 138.559 86.916 138.559 87.308V89.24C138.559 89.464 138.512 89.6227 138.419 89.716C138.344 89.7907 138.204 89.8187 137.999 89.8H136.067C134.779 89.8 134.135 90.528 134.135 91.984V100.412C134.135 100.804 133.939 101 133.547 101ZM153.752 101H153.08C151.606 101 150.467 100.608 149.664 99.824C148.862 99.04 148.46 97.9107 148.46 96.436V91.284C148.46 89.8093 148.862 88.68 149.664 87.896C150.467 87.112 151.606 86.72 153.08 86.72H159.548C159.959 86.72 160.164 86.916 160.164 87.308V100.412C160.164 100.804 159.959 101 159.548 101H157.196C156.804 101 156.608 100.804 156.608 100.412V99.488H156.496C156.291 99.992 155.927 100.375 155.404 100.636C154.882 100.879 154.331 101 153.752 101ZM156.608 95.792V90.108C156.608 89.9027 156.496 89.8 156.272 89.8H153.64C153.043 89.8 152.623 89.9307 152.38 90.192C152.138 90.4347 152.016 90.8547 152.016 91.452V96.268C152.016 96.8653 152.138 97.2947 152.38 97.556C152.623 97.7987 153.043 97.92 153.64 97.92H154.676C155.964 97.92 156.608 97.2107 156.608 95.792ZM174.741 101H172.361C171.969 101 171.773 100.804 171.773 100.412V81.904C171.773 81.512 171.969 81.316 172.361 81.316H174.741C175.133 81.316 175.329 81.512 175.329 81.904V100.412C175.329 100.804 175.133 101 174.741 101Z" fill="black"/>
</svg>
