<svg width="80" height="80" viewBox="0 0 80 80" fill="none" xmlns="http://www.w3.org/2000/svg">
<g clip-path="url(#clip0_900_722)">
<rect width="80" height="80" fill="white"/>
<path d="M0 0H80V80H0V0Z" fill="#64E469"/>
<path d="M20.6667 36.75C20.6667 34.8644 20.6667 33.9216 21.2525 33.3358C21.8383 32.75 22.7811 32.75 24.6667 32.75H55.3334C57.219 32.75 58.1618 32.75 58.7476 33.3358C59.3334 33.9216 59.3334 34.8644 59.3334 36.75V55.75C59.3334 58.5784 59.3334 59.9926 58.4547 60.8713C57.576 61.75 56.1618 61.75 53.3334 61.75H26.6667C23.8383 61.75 22.424 61.75 21.5454 60.8713C20.6667 59.9926 20.6667 58.5784 20.6667 55.75V36.75Z" stroke="#33363F" stroke-width="4"/>
<path d="M49.6667 30.3333V27.9167C49.6667 23.526 49.6667 21.3307 48.3824 19.9043C48.2656 19.7746 48.1421 19.6511 48.0124 19.5343C46.586 18.25 44.3907 18.25 40 18.25V18.25C35.6094 18.25 33.4141 18.25 31.9877 19.5343C31.858 19.6511 31.7345 19.7746 31.6177 19.9043C30.3334 21.3307 30.3334 23.526 30.3334 27.9167V30.3333" stroke="#33363F" stroke-width="4" stroke-linecap="round"/>
<circle cx="40" cy="47.2498" r="4.83333" fill="#33363F"/>
</g>
<defs>
<clipPath id="clip0_900_722">
<rect width="80" height="80" fill="white"/>
</clipPath>
</defs>
</svg>
