<svg width="80" height="80" viewBox="0 0 80 80" fill="none" xmlns="http://www.w3.org/2000/svg">
<g clip-path="url(#clip0_766_699)">
<rect width="80" height="80" fill="white"/>
<g clip-path="url(#clip1_766_699)">
<rect width="80" height="80" fill="white"/>
<path d="M0 0H80V80H0V0Z" fill="#FCF451"/>
<path fill-rule="evenodd" clip-rule="evenodd" d="M58.6643 23.6497C58.6642 23.6498 58.6593 23.6507 58.6502 23.6518C58.6599 23.6501 58.6644 23.6495 58.6643 23.6497ZM56.3502 21.3356C56.3504 21.3355 56.3498 21.3401 56.3481 21.3497C56.3492 21.3405 56.3501 21.3357 56.3502 21.3356ZM55.2566 24.7433L45.9487 52.667C45.5788 53.7766 45.2702 54.6982 45 55.4632C44.7298 54.6982 44.4212 53.7766 44.0513 52.667L40.9785 43.4486C40.9588 43.3894 40.9378 43.3246 40.9154 43.255C40.6929 42.5666 40.3193 41.4104 39.4544 40.5455C38.5895 39.6806 37.4333 39.307 36.7449 39.0845C36.6753 39.0621 36.6105 39.0411 36.5513 39.0214L27.3329 35.9486C26.2233 35.5787 25.3017 35.2701 24.5367 34.9999C25.3017 34.7297 26.2233 34.4211 27.3329 34.0512L55.2566 24.7433ZM57.5972 17.7449C58.3131 17.6176 59.9441 17.4495 61.2473 18.7526C62.5504 20.0558 62.3824 21.6868 62.255 22.4027C62.132 23.094 61.8616 23.9035 61.6275 24.6043C61.6119 24.6512 61.5964 24.6975 61.5811 24.7433L51.6408 54.5644C51.618 54.6326 51.5954 54.7006 51.5728 54.7684C50.8469 56.9466 50.2071 58.8667 49.5473 60.2228C48.9898 61.369 47.7026 63.6753 45 63.6753C42.2974 63.6753 41.0102 61.369 40.4527 60.2228C39.7929 58.8667 39.1531 56.9466 38.4272 54.7682L38.3592 54.5644L35.2864 45.346C35.2225 45.1542 35.1719 45.0027 35.1271 44.8728C34.9972 44.828 34.8457 44.7774 34.6539 44.7135L25.4355 41.6407C25.3673 41.618 25.2994 41.5953 25.2316 41.5727C23.0533 40.8468 21.1332 40.207 19.7771 39.5473C18.6309 38.9897 16.3246 37.7025 16.3246 34.9999C16.3246 32.2973 18.6309 31.0101 19.7771 30.4526C21.1332 29.7928 23.0533 29.153 25.2316 28.4271C25.2993 28.4045 25.3673 28.3819 25.4355 28.3591L55.2566 18.4188C55.3024 18.4035 55.3487 18.388 55.3955 18.3724C56.0963 18.1383 56.9058 17.8679 57.5972 17.7449Z" fill="#33363F"/>
<path d="M58.6643 23.6497L59.0259 23.995L59.0268 23.9941L58.6643 23.6497ZM58.6502 23.6518L58.5643 23.1592L58.7098 24.1482L58.6502 23.6518ZM56.3481 21.3497L55.8517 21.2902L56.8407 21.4355L56.3481 21.3497ZM55.2566 24.7433L55.7309 24.9014L56.0472 23.9528L55.0985 24.269L55.2566 24.7433ZM45.9487 52.667L45.4743 52.5089L45.9487 52.667ZM45 55.4632L44.5285 55.6297L45 56.9644L45.4715 55.6297L45 55.4632ZM44.0513 52.667L43.577 52.8251L43.577 52.8251L44.0513 52.667ZM40.9785 43.4486L40.5042 43.6067L40.5042 43.6067L40.9785 43.4486ZM40.9154 43.255L41.3911 43.1013L41.3911 43.1013L40.9154 43.255ZM39.4544 40.5455L39.8079 40.192L39.8079 40.192L39.4544 40.5455ZM36.7449 39.0845L36.5911 39.5603L36.5911 39.5603L36.7449 39.0845ZM36.5513 39.0214L36.7094 38.5471L36.7094 38.5471L36.5513 39.0214ZM27.3329 35.9486L27.1748 36.4229L27.1748 36.4229L27.3329 35.9486ZM24.5367 34.9999L24.3702 34.5285L23.0355 34.9999L24.3702 35.4714L24.5367 34.9999ZM27.3329 34.0512L27.491 34.5256L27.491 34.5256L27.3329 34.0512ZM61.2473 18.7526L61.6008 18.3991L61.6008 18.3991L61.2473 18.7526ZM57.5972 17.7449L57.6848 18.2372L57.6848 18.2372L57.5972 17.7449ZM62.255 22.4027L61.7627 22.3151L61.7627 22.3151L62.255 22.4027ZM61.6275 24.6043L62.1018 24.7627L62.1018 24.7627L61.6275 24.6043ZM61.5811 24.7433L62.0555 24.9014L62.0555 24.9014L61.5811 24.7433ZM51.6408 54.5644L52.1151 54.7225L52.1151 54.7225L51.6408 54.5644ZM51.5728 54.7684L52.0472 54.9264L52.0472 54.9264L51.5728 54.7684ZM49.5473 60.2228L49.997 60.4415L49.997 60.4415L49.5473 60.2228ZM40.4527 60.2228L40.9023 60.0041L40.9023 60.0041L40.4527 60.2228ZM38.4272 54.7682L38.9015 54.6102L38.9015 54.6102L38.4272 54.7682ZM38.3592 54.5644L38.8336 54.4063L38.8336 54.4063L38.3592 54.5644ZM35.2864 45.346L35.7607 45.1878L35.7607 45.1878L35.2864 45.346ZM35.1271 44.8728L35.5998 44.7097L35.5204 44.4795L35.2902 44.4001L35.1271 44.8728ZM34.6539 44.7135L34.4958 45.1878L34.4958 45.1878L34.6539 44.7135ZM25.4355 41.6407L25.2774 42.115L25.2774 42.115L25.4355 41.6407ZM25.2316 41.5727L25.0736 42.0471L25.0736 42.0471L25.2316 41.5727ZM19.7771 39.5473L19.5584 39.9969L19.5584 39.9969L19.7771 39.5473ZM19.7771 30.4526L19.9958 30.9022L19.9958 30.9022L19.7771 30.4526ZM25.2316 28.4271L25.0735 27.9527L25.0735 27.9527L25.2316 28.4271ZM25.4355 28.3591L25.2774 27.8848L25.2774 27.8848L25.4355 28.3591ZM55.2566 18.4188L55.4147 18.8931L55.4147 18.8931L55.2566 18.4188ZM55.3955 18.3724L55.2371 17.8981L55.2371 17.8981L55.3955 18.3724ZM58.3027 23.3044C58.3481 23.2568 58.3924 23.2296 58.4104 23.2189C58.4328 23.2058 58.4517 23.197 58.463 23.192C58.4853 23.1822 58.5035 23.1762 58.5115 23.1736C58.5288 23.1681 58.5425 23.1647 58.5472 23.1636C58.5586 23.1609 58.5674 23.1592 58.5701 23.1587C58.5773 23.1573 58.5826 23.1565 58.5843 23.1562C58.5867 23.1559 58.5884 23.1556 58.5892 23.1555C58.5901 23.1554 58.5906 23.1553 58.5906 23.1553L58.7098 24.1482C58.7186 24.1472 58.7278 24.1459 58.737 24.1445C58.741 24.1439 58.7481 24.1428 58.7565 24.1412C58.7598 24.1405 58.7692 24.1387 58.7809 24.1359C58.7857 24.1348 58.7996 24.1314 58.817 24.1258C58.825 24.1233 58.8432 24.1172 58.8656 24.1074C58.8671 24.1067 58.9507 24.0738 59.0259 23.995L58.3027 23.3044ZM58.7361 24.1444C58.7373 24.1441 58.7352 24.1445 58.7307 24.1452C58.7293 24.1454 58.7228 24.1463 58.714 24.1472C58.7119 24.1474 58.6978 24.1489 58.6797 24.1494C58.6778 24.1495 58.6424 24.1511 58.5987 24.1453C58.5854 24.1436 58.5618 24.14 58.5331 24.1322C58.5109 24.1261 58.4502 24.1085 58.384 24.0637C58.3177 24.0188 58.1763 23.8954 58.165 23.6754C58.1546 23.4741 58.2636 23.3455 58.3018 23.3053L59.0268 23.9941C59.065 23.9539 59.174 23.8253 59.1636 23.624C59.1523 23.404 59.0109 23.2806 58.9446 23.2357C58.8784 23.1908 58.8177 23.1732 58.7954 23.1672C58.7667 23.1594 58.7432 23.1558 58.7299 23.154C58.6861 23.1482 58.6505 23.1499 58.6485 23.1499C58.6302 23.1505 58.6157 23.152 58.613 23.1523C58.6031 23.1533 58.5949 23.1544 58.5911 23.1549C58.5819 23.1562 58.5728 23.1577 58.5643 23.1592L58.7361 24.1444ZM56.6748 21.7159C56.6206 21.7622 56.4698 21.8675 56.2564 21.8267C56.0509 21.7875 55.951 21.6427 55.9199 21.5902C55.8613 21.4911 55.8539 21.3958 55.8539 21.3957C55.8489 21.3546 55.8504 21.3215 55.8505 21.319C55.8511 21.3015 55.8525 21.2879 55.8528 21.2857C55.8536 21.277 55.8545 21.2706 55.8547 21.2692C55.8554 21.2647 55.8558 21.2627 55.8555 21.2639L56.8407 21.4355C56.8422 21.4271 56.8437 21.418 56.845 21.4088C56.8455 21.405 56.8466 21.3969 56.8476 21.3871C56.8479 21.3843 56.8494 21.3703 56.85 21.3525C56.85 21.35 56.8516 21.3168 56.8466 21.2755C56.8466 21.2754 56.8392 21.1801 56.7806 21.081C56.7495 21.0285 56.6495 20.8837 56.444 20.8445C56.2306 20.8037 56.0798 20.909 56.0256 20.9553L56.6748 21.7159ZM56.8446 21.4092C56.8446 21.4092 56.8445 21.4097 56.8444 21.4107C56.8443 21.4115 56.844 21.4132 56.8436 21.4157C56.8434 21.4174 56.8426 21.4227 56.8412 21.43C56.8407 21.4327 56.8389 21.4417 56.8361 21.4533C56.835 21.4579 56.8315 21.4722 56.8257 21.4901C56.8231 21.4982 56.8167 21.5175 56.806 21.5412C56.8007 21.553 56.7908 21.5736 56.7759 21.5978C56.7642 21.6168 56.7321 21.667 56.6748 21.7159L56.0256 20.9553C55.9683 21.0042 55.9362 21.0544 55.9245 21.0734C55.9096 21.0976 55.8997 21.1182 55.8944 21.1301C55.8837 21.1538 55.8773 21.1731 55.8746 21.1813C55.8688 21.1993 55.8653 21.2136 55.8641 21.2184C55.8612 21.2303 55.8594 21.2398 55.8588 21.2431C55.8572 21.2516 55.856 21.2588 55.8554 21.2628C55.854 21.272 55.8527 21.2813 55.8517 21.2902L56.8446 21.4092ZM54.7822 24.5852L45.4743 52.5089L46.423 52.8251L55.7309 24.9014L54.7822 24.5852ZM45.4743 52.5089C45.1042 53.6193 44.797 54.5366 44.5285 55.2966L45.4715 55.6297C45.7434 54.8598 46.0534 53.934 46.423 52.8251L45.4743 52.5089ZM45.4715 55.2966C45.203 54.5366 44.8958 53.6193 44.5257 52.5089L43.577 52.8251C43.9466 53.9339 44.2566 54.8598 44.5285 55.6297L45.4715 55.2966ZM44.5257 52.5089L41.4528 43.2905L40.5042 43.6067L43.577 52.8251L44.5257 52.5089ZM41.4528 43.2905C41.434 43.2339 41.4138 43.1714 41.3911 43.1013L40.4396 43.4088C40.4619 43.4778 40.4836 43.5449 40.5042 43.6067L41.4528 43.2905ZM41.3911 43.1013C41.1715 42.4217 40.7688 41.1528 39.8079 40.192L39.1008 40.8991C39.8698 41.668 40.2143 42.7116 40.4396 43.4088L41.3911 43.1013ZM39.8079 40.192C38.8471 39.2311 37.5783 38.8284 36.8986 38.6088L36.5911 39.5603C37.2883 39.7856 38.3319 40.1301 39.1008 40.8991L39.8079 40.192ZM36.8986 38.6088C36.8285 38.5861 36.7661 38.5659 36.7094 38.5471L36.3932 39.4957C36.455 39.5163 36.5221 39.538 36.5911 39.5603L36.8986 38.6088ZM36.7094 38.5471L27.491 35.4742L27.1748 36.4229L36.3932 39.4957L36.7094 38.5471ZM27.491 35.4742C26.3806 35.1041 25.4633 34.7969 24.7033 34.5285L24.3702 35.4714C25.1401 35.7433 26.066 36.0533 27.1748 36.4229L27.491 35.4742ZM24.7033 35.4714C25.4633 35.2029 26.3806 34.8957 27.491 34.5256L27.1748 33.5769C26.066 33.9465 25.1401 34.2565 24.3702 34.5285L24.7033 35.4714ZM27.491 34.5256L55.4147 25.2177L55.0985 24.269L27.1748 33.5769L27.491 34.5256ZM61.6008 18.3991C60.1153 16.9135 58.2626 17.1187 57.5097 17.2526L57.6848 18.2372C58.3635 18.1164 59.773 17.9854 60.8937 19.1062L61.6008 18.3991ZM62.7473 22.4902C62.8812 21.7373 63.0864 19.8846 61.6008 18.3991L60.8937 19.1062C62.0145 20.2269 61.8835 21.6364 61.7627 22.3151L62.7473 22.4902ZM62.1018 24.7627C62.3326 24.0716 62.6166 23.2249 62.7473 22.4902L61.7627 22.3151C61.6475 22.9631 61.3906 23.7354 61.1533 24.4459L62.1018 24.7627ZM62.0555 24.9014C62.0707 24.8558 62.0861 24.8096 62.1018 24.7627L61.1533 24.4459C61.1377 24.4927 61.1221 24.5392 61.1068 24.5852L62.0555 24.9014ZM52.1151 54.7225L62.0555 24.9014L61.1068 24.5852L51.1664 54.4063L52.1151 54.7225ZM52.0472 54.9264C52.0697 54.8587 52.0924 54.7907 52.1151 54.7225L51.1664 54.4063C51.1437 54.4745 51.121 54.5426 51.0985 54.6103L52.0472 54.9264ZM49.997 60.4415C50.6744 59.049 51.3255 57.092 52.0472 54.9264L51.0985 54.6103C50.3683 56.8013 49.7397 58.6844 49.0977 60.0041L49.997 60.4415ZM45 64.1753C48.0352 64.1753 49.4439 61.5783 49.997 60.4415L49.0977 60.0041C48.5356 61.1596 47.37 63.1753 45 63.1753V64.1753ZM40.003 60.4415C40.556 61.5783 41.9648 64.1753 45 64.1753V63.1753C42.63 63.1753 41.4644 61.1596 40.9023 60.0041L40.003 60.4415ZM37.9528 54.9263C38.6745 57.0919 39.3256 59.049 40.003 60.4415L40.9023 60.0041C40.2603 58.6844 39.6317 56.8012 38.9015 54.6102L37.9528 54.9263ZM37.8849 54.7225L37.9528 54.9263L38.9015 54.6102L38.8336 54.4063L37.8849 54.7225ZM34.8121 45.5041L37.8849 54.7225L38.8336 54.4063L35.7607 45.1878L34.8121 45.5041ZM34.6544 45.0358C34.6982 45.1628 34.7479 45.3117 34.8121 45.5041L35.7607 45.1878C35.697 44.9967 35.6456 44.8426 35.5998 44.7097L34.6544 45.0358ZM34.4958 45.1878C34.6882 45.252 34.8371 45.3017 34.9641 45.3455L35.2902 44.4001C35.1573 44.3543 35.0031 44.3029 34.8121 44.2392L34.4958 45.1878ZM25.2774 42.115L34.4958 45.1878L34.8121 44.2392L25.5936 41.1663L25.2774 42.115ZM25.0736 42.0471C25.1413 42.0697 25.2092 42.0923 25.2774 42.115L25.5936 41.1663C25.5254 41.1436 25.4574 41.1209 25.3897 41.0984L25.0736 42.0471ZM19.5584 39.9969C20.9509 40.6743 22.908 41.3254 25.0736 42.0471L25.3897 41.0984C23.1986 40.3682 21.3155 39.7396 19.9958 39.0976L19.5584 39.9969ZM15.8246 34.9999C15.8246 38.0351 18.4216 39.4439 19.5584 39.9969L19.9958 39.0976C18.8403 38.5355 16.8246 37.3699 16.8246 34.9999H15.8246ZM19.5584 30.0029C18.4216 30.556 15.8246 31.9647 15.8246 34.9999H16.8246C16.8246 32.6299 18.8403 31.4643 19.9958 30.9022L19.5584 30.0029ZM25.0735 27.9527C22.908 28.6744 20.9509 29.3255 19.5584 30.0029L19.9958 30.9022C21.3155 30.2602 23.1986 29.6316 25.3896 28.9014L25.0735 27.9527ZM25.2774 27.8848C25.2092 27.9075 25.1412 27.9302 25.0735 27.9527L25.3896 28.9014C25.4574 28.8789 25.5254 28.8562 25.5936 28.8335L25.2774 27.8848ZM55.0985 17.9444L25.2774 27.8848L25.5936 28.8335L55.4147 18.8931L55.0985 17.9444ZM55.2371 17.8981C55.1903 17.9138 55.1441 17.9292 55.0985 17.9444L55.4147 18.8931C55.4607 18.8778 55.5071 18.8623 55.5539 18.8466L55.2371 17.8981ZM57.5097 17.2526C56.7749 17.3833 55.9282 17.6673 55.2371 17.8981L55.5539 18.8466C56.2644 18.6093 57.0367 18.3524 57.6848 18.2372L57.5097 17.2526Z" fill="black"/>
</g>
</g>
<defs>
<clipPath id="clip0_766_699">
<rect width="80" height="80" fill="white"/>
</clipPath>
<clipPath id="clip1_766_699">
<rect width="80" height="80" fill="white"/>
</clipPath>
</defs>
</svg>
