<svg width="80" height="80" viewBox="0 0 80 80" fill="none" xmlns="http://www.w3.org/2000/svg">
<g clip-path="url(#clip0_897_717)">
<rect width="80" height="80" fill="white"/>
<g clip-path="url(#clip1_897_717)">
<rect width="80" height="80" fill="white"/>
<path d="M0 0H80V80H0V0Z" fill="#FCF451"/>
</g>
<path d="M16.5833 39.4998L15.0216 38.2504L14.0221 39.4998L15.0216 40.7492L16.5833 39.4998ZM37.2083 41.4998C38.3129 41.4998 39.2083 40.6044 39.2083 39.4998C39.2083 38.3953 38.3129 37.4998 37.2083 37.4998V41.4998ZM24.1883 26.7921L15.0216 38.2504L18.1451 40.7492L27.3117 29.2909L24.1883 26.7921ZM15.0216 40.7492L24.1883 52.2076L27.3117 49.7088L18.1451 38.2504L15.0216 40.7492ZM16.5833 41.4998H37.2083V37.4998H16.5833V41.4998Z" fill="#33363F"/>
<path d="M34.9167 30.6358V24.5553C34.9167 22.937 34.9167 22.1278 35.3906 21.5683C35.8646 21.0088 36.6627 20.8758 38.2591 20.6098L55.4303 17.7479C58.6734 17.2074 60.2949 16.9371 61.3558 17.8358C62.4167 18.7345 62.4167 20.3784 62.4167 23.6663V55.3341C62.4167 58.6219 62.4167 60.2658 61.3558 61.1645C60.2949 62.0632 58.6734 61.7929 55.4303 61.2524L38.2591 58.3906C36.6627 58.1245 35.8646 57.9915 35.3906 57.432C34.9167 56.8725 34.9167 56.0633 34.9167 54.445V48.818" stroke="#33363F" stroke-width="4"/>
</g>
<defs>
<clipPath id="clip0_897_717">
<rect width="80" height="80" fill="white"/>
</clipPath>
<clipPath id="clip1_897_717">
<rect width="80" height="80" fill="white"/>
</clipPath>
</defs>
</svg>
