<svg width="254" height="337" viewBox="0 0 254 337" fill="none" xmlns="http://www.w3.org/2000/svg">
<g filter="url(#filter0_d_891_1970)">
<rect x="113.485" y="166.277" width="15.7173" height="61.4926" fill="#BF7F02"/>
<path d="M41.5607 252.595C41.5607 244.21 48.3575 237.414 56.7419 237.414H186.468C194.852 237.414 201.649 244.21 201.649 252.595V309.941H41.5607V252.595Z" fill="#243B6D"/>
<path d="M103.484 233.346C103.484 229.573 106.542 226.515 110.315 226.515H132.374C136.147 226.515 139.205 229.573 139.205 233.346V237.809H103.484V233.346Z" fill="#DCAE0C"/>
<rect x="50.0997" y="246.146" width="141.995" height="57.4405" fill="#F9B50E" stroke="#FFEC86" stroke-width="3.91749"/>
<path d="M72.0856 247.929H126.445L169.361 305.545H115.001L72.0856 247.929Z" fill="#FFEC86"/>
<rect x="31.485" y="309.94" width="179.12" height="15.0594" fill="#DE9300"/>
<path d="M121.159 8.07452L158.17 73.0882L159.054 74.6407L160.83 74.8357L233.613 82.8264L183.855 131.832L182.521 133.147L182.874 134.987L196.568 206.185L122.566 173.687L121.159 173.069L119.751 173.687L45.7612 206.18L59.5754 134.993L59.9336 133.147L58.5924 131.829L8.7156 82.8251L81.4878 74.8357L83.2636 74.6407L84.1475 73.0882L121.159 8.07452Z" fill="#FFEC86" stroke="#FFB802" stroke-width="7"/>
<path d="M121.159 48.6099L145.552 91.4586L194.338 96.8147L160.838 129.808L169.945 177.156L121.159 155.732L72.3725 177.156L81.5606 129.808L47.9794 96.8147L96.7656 91.4586L121.159 48.6099Z" fill="#DE9300"/>
<path d="M121.701 155.732L170.848 177.157C170.848 177.157 166.915 150.303 126.981 129.809C87.0464 109.315 97.127 91.459 97.127 91.459L47.9794 96.8151L81.8093 129.809L72.5532 177.157L121.701 155.732Z" fill="#CB8600"/>
<path d="M167.408 263.166L174.681 249.108L167.408 235.05L183.415 241.437L199.421 235.05L192.148 249.108L199.421 263.166L183.415 256.778L167.408 263.166Z" fill="white"/>
<path d="M64.7422 287.309C63.5703 285.954 62.6523 284.301 61.9883 282.348C61.3372 280.395 61.0117 278.214 61.0117 275.805C61.0117 273.396 61.3503 271.254 62.0273 269.379C62.7174 267.504 63.6745 265.915 64.8984 264.613C67.4505 261.918 70.8359 260.57 75.0547 260.57C78.4792 260.57 81.2005 261.378 83.2188 262.992C84.0781 263.695 84.7096 264.451 85.1133 265.258C85.5299 266.065 85.7383 266.69 85.7383 267.133C85.7383 267.562 85.7253 267.908 85.6992 268.168C85.6862 268.428 85.6146 268.682 85.4844 268.93C85.1589 269.516 84.5469 269.809 83.6484 269.809H81.9688C81.5781 269.809 81.3242 269.698 81.207 269.477C81.0638 269.216 80.9661 268.871 80.9141 268.441C80.862 267.999 80.7318 267.576 80.5234 267.172C80.3281 266.768 80.0026 266.391 79.5469 266.039C78.4792 265.219 77.0664 264.809 75.3086 264.809C73.5638 264.809 72.151 265.089 71.0703 265.648C69.9896 266.195 69.0911 266.957 68.375 267.934C66.9688 269.874 66.2656 272.465 66.2656 275.707C66.2656 278.949 66.9036 281.586 68.1797 283.617C69.6641 285.948 71.8451 287.113 74.7227 287.113C77.8346 287.113 79.7552 286.273 80.4844 284.594C80.7057 284.112 80.8164 283.643 80.8164 283.188C80.8164 282.719 80.7513 282.257 80.6211 281.801C80.4909 281.345 80.263 280.909 79.9375 280.492C79.2083 279.503 78.1211 278.832 76.6758 278.48C76.2591 278.376 75.8815 278.181 75.543 277.895C75.2174 277.595 75.0547 277.178 75.0547 276.645V275.961C75.0547 275.701 75.1589 275.479 75.3672 275.297C75.5755 275.102 75.8294 275.004 76.1289 275.004H85.2695C85.9987 275.004 86.3633 275.323 86.3633 275.961V278.09C86.3633 278.35 86.2526 278.559 86.0312 278.715C85.8229 278.871 85.569 278.949 85.2695 278.949H82.418C83.8633 279.6 84.8333 280.688 85.3281 282.211C85.5104 282.771 85.6016 283.344 85.6016 283.93C85.6016 284.503 85.5234 285.056 85.3672 285.59C85.2109 286.124 84.957 286.664 84.6055 287.211C84.2539 287.758 83.7917 288.292 83.2188 288.812C82.6589 289.32 81.9688 289.776 81.1484 290.18C79.3385 291.052 77.2747 291.488 74.957 291.488C72.6393 291.488 70.6536 291.13 69 290.414C67.3464 289.698 65.9271 288.663 64.7422 287.309ZM90.7383 291C90.3607 291 90.0742 290.883 89.8789 290.648C89.6836 290.401 89.5859 290.193 89.5859 290.023C89.5859 289.841 89.6055 289.698 89.6445 289.594L99.5078 263.07C99.9505 261.911 100.66 261.26 101.637 261.117C101.975 261.078 102.379 261.059 102.848 261.059H103.18C104.065 261.059 104.677 261.169 105.016 261.391C105.562 261.729 105.986 262.27 106.285 263.012L116.891 289.613C116.93 289.717 116.949 289.867 116.949 290.062C116.949 290.245 116.871 290.447 116.715 290.668C116.559 290.889 116.298 291 115.934 291H113.199C112.6 291 112.184 290.72 111.949 290.16L109.527 283.812H96.6953L94.4492 290.16C94.2669 290.72 93.8698 291 93.2578 291H90.7383ZM107.887 279.594L103.219 266.898C103.18 266.768 103.102 266.703 102.984 266.703C102.867 266.703 102.789 266.768 102.75 266.898L98.2188 279.594H107.887ZM155.602 290.023C155.602 290.674 155.374 291 154.918 291H151.676C151.428 291 151.214 290.922 151.031 290.766C150.849 290.609 150.745 290.414 150.719 290.18L149.371 278.5C149.202 277.029 149.072 275.577 148.98 274.145C148.902 272.712 148.811 271.215 148.707 269.652L148.512 266.879C148.512 266.827 148.492 266.801 148.453 266.801C148.427 266.801 148.408 266.82 148.395 266.859L147.516 270.062C147.333 270.714 147.132 271.365 146.91 272.016L140.816 288.598C140.751 288.793 140.621 288.975 140.426 289.145C140.23 289.314 140.035 289.398 139.84 289.398H136.773C136.37 289.398 136.044 289.138 135.797 288.617C131.279 278.031 128.87 272.374 128.57 271.645C128.284 270.902 128.03 270.199 127.809 269.535L126.93 266.84C126.917 266.801 126.891 266.781 126.852 266.781C126.826 266.781 126.806 266.807 126.793 266.859V270.023C126.793 272.784 126.682 275.603 126.461 278.48L125.582 290.18C125.556 290.388 125.432 290.577 125.211 290.746C125.003 290.915 124.781 291 124.547 291H121.852C121.539 291 121.279 290.863 121.07 290.59C120.875 290.316 120.797 289.984 120.836 289.594L123.18 263.891C123.271 262.81 123.401 262.126 123.57 261.84C123.87 261.319 124.417 261.059 125.211 261.059H127.32C127.958 261.059 128.401 261.143 128.648 261.312C129.104 261.612 129.501 262.178 129.84 263.012L138.258 283.52L145.621 262.992C146.051 261.703 146.78 261.059 147.809 261.059H150.016C151.161 261.059 151.832 261.586 152.027 262.641C152.079 262.979 152.132 263.344 152.184 263.734L155.562 289.613C155.589 289.743 155.602 289.88 155.602 290.023ZM162.672 262.309C162.672 261.97 162.776 261.677 162.984 261.43C163.206 261.182 163.466 261.059 163.766 261.059H180.934C181.272 261.059 181.526 261.169 181.695 261.391C181.878 261.599 181.969 261.859 181.969 262.172V264.281C181.969 264.581 181.878 264.841 181.695 265.062C181.526 265.271 181.272 265.375 180.934 265.375H167.574V273.93H178.199C178.538 273.93 178.792 274.04 178.961 274.262C179.143 274.47 179.234 274.73 179.234 275.043V277.152C179.234 277.452 179.143 277.712 178.961 277.934C178.792 278.142 178.538 278.246 178.199 278.246H167.574V286.684H181.031C181.37 286.684 181.624 286.794 181.793 287.016C181.975 287.224 182.066 287.484 182.066 287.797V289.906C182.066 290.206 181.975 290.466 181.793 290.688C181.624 290.896 181.37 291 181.031 291H163.746C163.447 291 163.193 290.876 162.984 290.629C162.776 290.382 162.672 290.089 162.672 289.75V262.309Z" fill="black"/>
</g>
<defs>
<filter id="filter0_d_891_1970" x="0.216502" y="0.216502" width="252.853" height="336.536" filterUnits="userSpaceOnUse" color-interpolation-filters="sRGB">
<feFlood flood-opacity="0" result="BackgroundImageFix"/>
<feColorMatrix in="SourceAlpha" type="matrix" values="0 0 0 0 0 0 0 0 0 0 0 0 0 0 0 0 0 0 127 0" result="hardAlpha"/>
<feOffset dx="5.48449" dy="5.48449"/>
<feGaussianBlur stdDeviation="3.13399"/>
<feComposite in2="hardAlpha" operator="out"/>
<feColorMatrix type="matrix" values="0 0 0 0 0 0 0 0 0 0 0 0 0 0 0 0 0 0 0.3 0"/>
<feBlend mode="normal" in2="BackgroundImageFix" result="effect1_dropShadow_891_1970"/>
<feBlend mode="normal" in="SourceGraphic" in2="effect1_dropShadow_891_1970" result="shape"/>
</filter>
</defs>
</svg>
