<svg width="431" height="397" viewBox="0 0 431 397" fill="none" xmlns="http://www.w3.org/2000/svg">
<path d="M381.499 179C381.499 270.679 307.178 345 215.499 345C123.82 345 49.4988 270.679 49.4988 179C49.4988 87.3207 123.82 13 215.499 13C307.178 13 381.499 87.3207 381.499 179Z" fill="#FFBB0D"/>
<path fill-rule="evenodd" clip-rule="evenodd" d="M393.795 179C393.795 277.47 313.969 357.296 215.499 357.296C117.028 357.296 37.2025 277.47 37.2025 179C37.2025 80.5296 117.028 0.703613 215.499 0.703613C313.969 0.703613 393.795 80.5296 393.795 179ZM215.499 345C307.178 345 381.499 270.679 381.499 179C381.499 87.3206 307.178 12.9999 215.499 12.9999C123.82 12.9999 49.4988 87.3206 49.4988 179C49.4988 270.679 123.82 345 215.499 345Z" fill="#E89B05"/>
<path d="M338.462 179C338.462 246.911 283.409 301.963 215.499 301.963C147.588 301.963 92.5359 246.911 92.5359 179C92.5359 111.09 147.588 56.0371 215.499 56.0371C283.409 56.0371 338.462 111.09 338.462 179Z" fill="#FFDD28"/>
<path fill-rule="evenodd" clip-rule="evenodd" d="M350.758 179C350.758 253.702 290.2 314.259 215.499 314.259C140.797 314.259 80.2395 253.702 80.2395 179C80.2395 104.298 140.797 43.7407 215.499 43.7407C290.2 43.7407 350.758 104.298 350.758 179ZM215.499 301.963C283.409 301.963 338.462 246.911 338.462 179C338.462 111.089 283.409 56.037 215.499 56.037C147.588 56.037 92.5358 111.089 92.5358 179C92.5358 246.911 147.588 301.963 215.499 301.963Z" fill="#E89B05"/>
<path d="M27.5901 342.68L11.7538 311.007C10.0292 307.558 12.5373 303.5 16.3936 303.5L85.8125 303.5C88.6775 303.5 91 305.823 91 308.687L91 381.312C91 384.177 88.6775 386.5 85.8125 386.5L16.3936 386.5C12.5373 386.5 10.0292 382.442 11.7538 378.993L27.5901 347.32C28.3203 345.859 28.3203 344.14 27.5901 342.68Z" fill="#0355B6"/>
<path d="M403.41 342.68L419.246 311.007C420.971 307.558 418.463 303.5 414.606 303.5L345.188 303.5C342.323 303.5 340 305.823 340 308.687L340 381.312C340 384.177 342.323 386.5 345.188 386.5L414.606 386.5C418.463 386.5 420.971 382.442 419.246 378.993L403.41 347.32C402.68 345.859 402.68 344.141 403.41 342.68Z" fill="#0355B6"/>
<path fill-rule="evenodd" clip-rule="evenodd" d="M17.1504 345L2.474 315.647C-2.69974 305.3 4.82452 293.125 16.3935 293.125L85.8124 293.125C94.4074 293.125 101.375 300.093 101.375 308.687L101.375 381.312C101.375 389.907 94.4074 396.875 85.8124 396.875L16.3935 396.875C4.82452 396.875 -2.69974 384.7 2.474 374.353L17.1504 345ZM18.3073 347.314C18.3083 347.316 18.3093 347.318 18.3104 347.32L22.9502 345L18.3103 347.32L18.3073 347.314ZM413.85 345L428.526 315.647C433.7 305.3 426.175 293.125 414.606 293.125L345.187 293.125C336.592 293.125 329.625 300.093 329.625 308.687L329.625 381.312C329.625 389.907 336.593 396.875 345.187 396.875L414.606 396.875C426.175 396.875 433.7 384.7 428.526 374.353L413.85 345ZM419.246 311.007L403.41 342.68C402.68 344.14 402.68 345.859 403.41 347.32L419.246 378.993C420.971 382.442 418.463 386.5 414.606 386.5L345.187 386.5C342.322 386.5 340 384.177 340 381.312L340 308.687C340 305.823 342.322 303.5 345.187 303.5L414.606 303.5C418.463 303.5 420.971 307.558 419.246 311.007ZM11.7537 311.007L27.59 342.68C28.3202 344.14 28.3202 345.859 27.59 347.32L11.7537 378.993C10.0291 382.442 12.5372 386.5 16.3935 386.5L85.8124 386.5C88.6774 386.5 90.9999 384.177 90.9999 381.312L90.9999 308.687C90.9999 305.823 88.6774 303.5 85.8124 303.5L16.3935 303.5C12.5372 303.5 10.0291 307.558 11.7537 311.007Z" fill="#023E84"/>
<path d="M360.75 360.562L360.75 287.938C360.75 285.073 358.427 282.75 355.563 282.75L75.4375 282.75C72.5725 282.75 70.25 285.073 70.25 287.937L70.25 360.562C70.25 363.427 72.5725 365.75 75.4375 365.75L355.562 365.75C358.427 365.75 360.75 363.427 360.75 360.562Z" fill="#086FE9"/>
<path fill-rule="evenodd" clip-rule="evenodd" d="M371.125 287.937L371.125 360.562C371.125 369.157 364.157 376.125 355.562 376.125L75.4375 376.125C66.8426 376.125 59.875 369.157 59.875 360.562L59.875 287.937C59.875 279.343 66.8426 272.375 75.4375 272.375L355.563 272.375C364.157 272.375 371.125 279.343 371.125 287.937ZM360.75 287.937L360.75 360.562C360.75 363.427 358.427 365.75 355.562 365.75L75.4375 365.75C72.5725 365.75 70.25 363.427 70.25 360.562L70.25 287.937C70.25 285.073 72.5725 282.75 75.4375 282.75L355.563 282.75C358.427 282.75 360.75 285.073 360.75 287.937Z" fill="#023E84"/>
<path d="M114.263 299.376C114.263 298.826 114.432 298.35 114.771 297.948C115.13 297.546 115.553 297.345 116.04 297.345H120.483C120.97 297.345 121.383 297.546 121.721 297.948C122.06 298.35 122.229 298.826 122.229 299.376V338.922H139.431C139.981 338.922 140.394 339.102 140.669 339.462C140.965 339.8 141.113 340.224 141.113 340.731V344.223C141.113 344.709 140.965 345.132 140.669 345.492C140.394 345.831 139.981 346 139.431 346H116.008C115.522 346 115.109 345.799 114.771 345.397C114.432 344.995 114.263 344.519 114.263 343.969V299.376ZM151.079 334.003C150.169 332.099 149.471 330.078 148.984 327.941C148.519 325.783 148.286 323.244 148.286 320.324C148.286 317.383 148.847 314.399 149.968 311.374C151.111 308.348 152.719 305.735 154.792 303.534C159.172 298.879 164.843 296.552 171.804 296.552C179.21 296.552 185.018 298.932 189.229 303.693C193.228 308.2 195.227 314.082 195.227 321.339C195.227 328.533 193.027 334.553 188.625 339.398C186.552 341.684 184.066 343.493 181.167 344.826C178.268 346.138 175.327 346.793 172.344 346.793C169.382 346.793 166.853 346.487 164.758 345.873C162.664 345.238 160.749 344.36 159.014 343.239C157.3 342.096 155.776 340.742 154.443 339.176C153.11 337.611 151.989 335.886 151.079 334.003ZM156.887 321.117C156.887 323.55 157.173 325.857 157.744 328.036C158.337 330.215 159.236 332.162 160.442 333.876C163.108 337.621 166.864 339.494 171.709 339.494C176.576 339.494 180.331 337.706 182.976 334.13C185.409 330.829 186.626 326.555 186.626 321.308C186.626 316.356 185.388 312.273 182.913 309.057C180.183 305.565 176.459 303.82 171.741 303.82C167.192 303.82 163.573 305.449 160.886 308.708C158.22 311.903 156.887 316.039 156.887 321.117ZM209.382 340.001C207.478 337.801 205.986 335.114 204.907 331.94C203.849 328.766 203.32 325.222 203.32 321.308C203.32 317.393 203.87 313.913 204.971 310.866C206.092 307.819 207.647 305.237 209.636 303.122C213.783 298.742 219.285 296.552 226.14 296.552C231.705 296.552 236.127 297.864 239.407 300.487C240.803 301.63 241.829 302.857 242.485 304.169C243.162 305.481 243.501 306.496 243.501 307.216C243.501 307.914 243.48 308.475 243.438 308.898C243.416 309.321 243.3 309.734 243.088 310.136C242.559 311.088 241.565 311.564 240.105 311.564H237.375C236.741 311.564 236.328 311.384 236.138 311.024C235.905 310.601 235.746 310.041 235.662 309.342C235.577 308.623 235.365 307.935 235.027 307.279C234.709 306.623 234.181 306.01 233.44 305.438C231.705 304.105 229.409 303.439 226.553 303.439C223.717 303.439 221.422 303.894 219.666 304.804C217.909 305.692 216.449 306.93 215.286 308.517C213 311.67 211.858 315.88 211.858 321.149C211.858 326.417 212.895 330.702 214.968 334.003C217.38 337.79 220.924 339.684 225.601 339.684C230.658 339.684 233.778 338.319 234.963 335.59C235.323 334.807 235.503 334.045 235.503 333.305C235.503 332.543 235.397 331.792 235.186 331.051C234.974 330.311 234.604 329.602 234.075 328.925C232.89 327.317 231.123 326.227 228.774 325.656C228.097 325.486 227.484 325.169 226.934 324.704C226.405 324.217 226.14 323.54 226.14 322.672V321.562C226.14 321.138 226.309 320.779 226.648 320.482C226.986 320.165 227.399 320.006 227.886 320.006H242.739C243.924 320.006 244.517 320.525 244.517 321.562V325.021C244.517 325.444 244.337 325.783 243.977 326.037C243.639 326.291 243.226 326.417 242.739 326.417H238.105C240.454 327.475 242.03 329.242 242.834 331.718C243.131 332.628 243.279 333.559 243.279 334.511C243.279 335.442 243.152 336.341 242.898 337.208C242.644 338.076 242.231 338.954 241.66 339.843C241.089 340.731 240.338 341.599 239.407 342.445C238.497 343.271 237.375 344.011 236.042 344.667C233.101 346.085 229.748 346.793 225.981 346.793C222.215 346.793 218.988 346.212 216.301 345.048C213.614 343.884 211.308 342.202 209.382 340.001ZM254.451 299.376C254.451 298.826 254.62 298.35 254.958 297.948C255.318 297.546 255.741 297.345 256.228 297.345H260.671C261.158 297.345 261.571 297.546 261.909 297.948C262.248 298.35 262.417 298.826 262.417 299.376V343.969C262.417 344.519 262.237 344.995 261.877 345.397C261.539 345.799 261.126 346 260.64 346H256.196C255.71 346 255.297 345.799 254.958 345.397C254.62 344.995 254.451 344.519 254.451 343.969V299.376ZM276.953 301.281C276.953 298.657 278.096 297.345 280.381 297.345H281.682C282.55 297.345 283.153 297.451 283.491 297.663C284.126 298.043 284.718 298.646 285.269 299.472L305.708 329.56C306.491 330.702 307.104 331.75 307.549 332.702L308.85 335.431C308.871 335.473 308.903 335.495 308.945 335.495C309.009 335.495 309.019 335.22 308.977 334.669C308.935 334.119 308.829 333.326 308.66 332.289C308.49 331.231 308.406 330.184 308.406 329.147V299.281C308.406 298.731 308.564 298.276 308.882 297.917C309.22 297.536 309.622 297.345 310.088 297.345H314.277C314.722 297.345 315.103 297.536 315.42 297.917C315.758 298.276 315.928 298.731 315.928 299.281V342.826C315.928 343.673 315.663 344.328 315.134 344.794C314.246 345.598 313.442 346 312.722 346H310.786C309.728 346 308.956 345.831 308.469 345.492C307.75 344.942 306.861 343.905 305.803 342.382C293.722 324.714 287.247 315.172 286.379 313.754L283.745 309.342C283.703 309.279 283.639 309.247 283.555 309.247C283.491 309.247 283.491 309.406 283.555 309.723C283.618 310.041 283.703 310.58 283.809 311.342C283.936 312.082 284.052 312.908 284.158 313.817C284.369 315.933 284.475 317.901 284.475 319.721V344.064C284.475 344.593 284.306 345.048 283.967 345.429C283.65 345.81 283.258 346 282.793 346H278.604C278.159 346 277.768 345.81 277.429 345.429C277.112 345.048 276.953 344.593 276.953 344.064V301.281Z" fill="white"/>
<path d="M215.947 201.577C224.037 201.577 230.656 194.958 230.656 186.868C230.656 178.777 224.037 172.158 215.947 172.158C207.856 172.158 201.237 178.777 201.237 186.868C201.237 194.958 207.856 201.577 215.947 201.577ZM260.076 135.384H252.721V120.674C252.721 100.374 236.246 83.8994 215.947 83.8994C195.647 83.8994 179.172 100.374 179.172 120.674V135.384H171.817C163.727 135.384 157.108 142.003 157.108 150.093V223.642C157.108 231.733 163.727 238.352 171.817 238.352H260.076C268.166 238.352 274.786 231.733 274.786 223.642V150.093C274.786 142.003 268.166 135.384 260.076 135.384ZM193.147 120.674C193.147 108.097 203.37 97.8737 215.947 97.8737C228.524 97.8737 238.747 108.097 238.747 120.674V135.384H193.147V120.674ZM260.076 223.642H171.817V150.093H260.076V223.642Z" fill="black" fill-opacity="0.4"/>
</svg>
