<svg width="1961" height="1676" viewBox="0 0 1961 1676" fill="none" xmlns="http://www.w3.org/2000/svg">
<g filter="url(#filter0_d_891_1971)">
<path d="M979.431 3.33746L1115.35 119.681C1116.75 120.879 1118.63 121.343 1120.43 120.931L1295.03 80.869C1297.34 80.338 1299.7 81.5737 1300.58 83.7795L1366.67 249.73C1367.36 251.446 1368.81 252.735 1370.6 253.203L1543.86 298.597C1546.16 299.2 1547.68 301.395 1547.42 303.761L1528.57 481.293C1528.38 483.134 1529.07 484.958 1530.44 486.205L1662.67 606.633C1664.43 608.238 1664.75 610.89 1663.43 612.87L1563.96 761.332C1562.93 762.871 1562.69 764.81 1563.33 766.551L1624.25 934.423C1625.07 936.662 1624.12 939.159 1622.03 940.295L1464.71 1025.69C1463.09 1026.57 1461.98 1028.18 1461.73 1030.01L1437.4 1206.89C1437.08 1209.24 1435.08 1211.01 1432.71 1211.04L1253.57 1213.79C1251.73 1213.82 1250.01 1214.72 1248.93 1216.22L1144.9 1361.6C1143.52 1363.53 1140.94 1364.16 1138.82 1363.09L978.916 1282.55C977.271 1281.72 975.331 1281.72 973.686 1282.55L813.778 1363.09C811.659 1364.16 809.079 1363.53 807.698 1361.6L703.67 1216.22C702.597 1214.72 700.876 1213.82 699.032 1213.79L519.895 1211.04C517.518 1211.01 515.524 1209.24 515.2 1206.89L490.875 1030.01C490.623 1028.18 489.514 1026.57 487.889 1025.69L330.577 940.295C328.483 939.159 327.536 936.662 328.348 934.423L389.277 766.551C389.909 764.81 389.673 762.871 388.642 761.332L289.176 612.87C287.849 610.89 288.171 608.238 289.934 606.633L422.162 486.205C423.531 484.958 424.224 483.134 424.028 481.293L405.177 303.761C404.926 301.395 406.442 299.2 408.744 298.597L582.003 253.203C583.789 252.735 585.247 251.446 585.93 249.73L652.025 83.7795C652.903 81.5737 655.259 80.338 657.573 80.869L832.172 120.931C833.968 121.343 835.853 120.879 837.253 119.681L973.171 3.33745C974.973 1.79518 977.63 1.79519 979.431 3.33746Z" fill="url(#paint0_linear_891_1971)" stroke="#665000"/>
<ellipse cx="971.786" cy="688.355" rx="492.027" ry="490.402" fill="#785E03"/>
<mask id="mask0_891_1971" style="mask-type:alpha" maskUnits="userSpaceOnUse" x="534" y="274" width="929" height="926">
<ellipse cx="998.722" cy="737.285" rx="463.936" ry="462.403" fill="#C28B37"/>
</mask>
<g mask="url(#mask0_891_1971)">
<ellipse cx="971.789" cy="688.375" rx="492.027" ry="490.402" fill="#8A6B1B"/>
</g>
<ellipse cx="985.33" cy="683.861" rx="397.233" ry="395.92" fill="#B3881C"/>
<path d="M470.388 1107.93L470.388 1565.51L4.00011 1565.51L140.875 1336.72L4.00013 1107.93L470.388 1107.93Z" fill="#983535"/>
<path d="M1490.61 1107.93L1490.61 1565.51L1957 1565.51L1820.12 1336.72L1957 1107.93L1490.61 1107.93Z" fill="#983535"/>
<path d="M339.215 1231.4L470.387 1107.93V1667.2H339.215V1231.4Z" fill="#752727"/>
<path d="M1621.78 1238.66L1490.61 1107.93V1667.2H1621.78V1238.66Z" fill="#752727"/>
<rect x="339.215" y="1238.67" width="1282.57" height="428.531" fill="#CE4444"/>
<path d="M428.693 1354.81C428.693 1352.28 429.475 1350.08 431.037 1348.22C432.697 1346.37 434.65 1345.44 436.896 1345.44H555.842C558.381 1345.44 560.285 1346.27 561.555 1347.93C562.922 1349.49 563.605 1351.45 563.605 1353.79V1369.76C563.605 1372 562.922 1373.96 561.555 1375.62C560.285 1377.18 558.381 1377.96 555.842 1377.96H465.461V1450.76H538.264C540.803 1450.76 542.707 1451.59 543.977 1453.25C545.344 1454.91 546.027 1456.87 546.027 1459.11V1474.93C546.027 1477.18 545.344 1479.13 543.977 1480.79C542.707 1482.35 540.803 1483.13 538.264 1483.13H465.314V1560.62C465.314 1563.16 464.484 1565.36 462.824 1567.22C461.262 1569.07 459.357 1570 457.111 1570H436.75C434.504 1570 432.6 1569.07 431.037 1567.22C429.475 1565.36 428.693 1563.16 428.693 1560.62V1354.81ZM752.863 1538.51L767.951 1536.46C770.686 1536.46 772.59 1537.38 773.664 1539.24C774.836 1541.09 775.666 1543.1 776.154 1545.24C776.74 1547.29 777.277 1549.15 777.766 1550.81C778.254 1552.47 778.498 1554.28 778.498 1556.23C778.498 1558.18 777.521 1560.19 775.568 1562.24C773.713 1564.19 771.32 1565.95 768.391 1567.51C762.141 1570.83 755.598 1572.49 748.762 1572.49C742.023 1572.49 735.92 1571.71 730.451 1570.15C724.982 1568.58 719.807 1566.44 714.924 1563.7C707.307 1559.4 699.494 1553.35 691.486 1545.54C683.576 1537.72 677.277 1531.04 672.59 1525.47L648.42 1495.59C645.002 1491.48 641.926 1488.16 639.191 1485.62V1560.77C639.191 1564.68 637.873 1567.46 635.236 1569.12C634.26 1569.71 633.137 1570 631.867 1570H610.92C608.283 1570 606.428 1569.22 605.354 1567.66C603.596 1565.12 602.717 1562.82 602.717 1560.77V1358.33C602.717 1354.91 603.596 1351.93 605.354 1349.39C607.209 1346.76 610.188 1345.44 614.289 1345.44H679.621C737.727 1345.44 766.779 1368.39 766.779 1414.29C766.779 1435.38 758.967 1453.11 743.342 1467.46C728.596 1481.04 711.213 1487.82 691.193 1487.82C687.678 1487.82 684.309 1487.58 681.086 1487.09L699.104 1506.13C709.455 1516.97 717.512 1524.3 723.273 1528.11C733.625 1535.04 743.488 1538.51 752.863 1538.51ZM639.191 1457.65C650.227 1460.19 660.188 1461.46 669.074 1461.46C678.059 1461.46 686.066 1460.62 693.098 1458.96C700.129 1457.3 706.379 1454.67 711.848 1451.05C723.957 1443.24 730.012 1431.67 730.012 1416.34C730.012 1402.57 724.787 1392.36 714.338 1385.72C705.549 1380.16 693.635 1377.37 678.596 1377.37H639.191V1457.65ZM824.787 1354.81C824.787 1352.28 825.568 1350.08 827.131 1348.22C828.791 1346.37 830.744 1345.44 832.99 1345.44H853.498C855.744 1345.44 857.648 1346.37 859.211 1348.22C860.773 1350.08 861.555 1352.28 861.555 1354.81V1560.62C861.555 1563.16 860.725 1565.36 859.064 1567.22C857.502 1569.07 855.598 1570 853.352 1570H832.844C830.598 1570 828.693 1569.07 827.131 1567.22C825.568 1565.36 824.787 1563.16 824.787 1560.62V1354.81ZM927.619 1354.81C927.619 1352.28 928.4 1350.08 929.963 1348.22C931.623 1346.37 933.576 1345.44 935.822 1345.44H1064.58C1067.12 1345.44 1069.03 1346.27 1070.29 1347.93C1071.66 1349.49 1072.35 1351.45 1072.35 1353.79V1369.61C1072.35 1371.86 1071.66 1373.81 1070.29 1375.47C1069.03 1377.03 1067.12 1377.81 1064.58 1377.81H964.387V1441.97H1044.07C1046.61 1441.97 1048.52 1442.8 1049.79 1444.46C1051.15 1446.03 1051.84 1447.98 1051.84 1450.32V1466.14C1051.84 1468.39 1051.15 1470.34 1049.79 1472C1048.52 1473.56 1046.61 1474.35 1044.07 1474.35H964.387V1537.63H1065.31C1067.85 1537.63 1069.76 1538.46 1071.03 1540.12C1072.39 1541.68 1073.08 1543.63 1073.08 1545.98V1561.8C1073.08 1564.04 1072.39 1566 1071.03 1567.66C1069.76 1569.22 1067.85 1570 1065.31 1570H935.676C933.43 1570 931.525 1569.07 929.963 1567.22C928.4 1565.36 927.619 1563.16 927.619 1560.62V1354.81ZM1128.16 1363.6C1128.16 1351.49 1133.43 1345.44 1143.98 1345.44H1149.98C1153.99 1345.44 1156.77 1345.93 1158.33 1346.9C1161.26 1348.66 1164 1351.45 1166.54 1355.25L1260.87 1494.12C1264.48 1499.39 1267.32 1504.23 1269.37 1508.62L1275.37 1521.22C1275.47 1521.42 1275.62 1521.51 1275.81 1521.51C1276.11 1521.51 1276.15 1520.24 1275.96 1517.71C1275.76 1515.17 1275.28 1511.5 1274.49 1506.72C1273.71 1501.84 1273.32 1497 1273.32 1492.22V1354.38C1273.32 1351.84 1274.05 1349.74 1275.52 1348.08C1277.08 1346.32 1278.94 1345.44 1281.09 1345.44H1300.42C1302.47 1345.44 1304.23 1346.32 1305.7 1348.08C1307.26 1349.74 1308.04 1351.84 1308.04 1354.38V1555.35C1308.04 1559.26 1306.82 1562.29 1304.38 1564.43C1300.28 1568.14 1296.56 1570 1293.24 1570H1284.31C1279.43 1570 1275.86 1569.22 1273.62 1567.66C1270.29 1565.12 1266.19 1560.33 1261.31 1553.3C1205.55 1471.76 1175.67 1427.71 1171.66 1421.17L1159.5 1400.81C1159.31 1400.52 1159.02 1400.37 1158.62 1400.37C1158.33 1400.37 1158.33 1401.1 1158.62 1402.57C1158.92 1404.03 1159.31 1406.52 1159.8 1410.04C1160.38 1413.46 1160.92 1417.27 1161.41 1421.46C1162.38 1431.23 1162.87 1440.31 1162.87 1448.71V1561.06C1162.87 1563.51 1162.09 1565.61 1160.53 1567.36C1159.06 1569.12 1157.26 1570 1155.11 1570H1135.77C1133.72 1570 1131.92 1569.12 1130.35 1567.36C1128.89 1565.61 1128.16 1563.51 1128.16 1561.06V1363.6ZM1377.03 1358.18C1377.03 1354.77 1378.16 1351.79 1380.4 1349.25C1382.75 1346.71 1385.97 1345.44 1390.07 1345.44H1436.51C1475.18 1345.44 1504.28 1355.01 1523.81 1374.15C1542.37 1392.51 1551.64 1418.73 1551.64 1452.81C1551.64 1489.24 1541.19 1517.9 1520.29 1538.8C1499.49 1559.6 1470.69 1570 1433.87 1570H1390.07C1385.97 1570 1382.75 1568.73 1380.4 1566.19C1378.16 1563.55 1377.03 1560.53 1377.03 1557.11V1358.18ZM1440.9 1377.67H1433.58C1430.35 1377.67 1423.76 1377.81 1413.8 1378.11V1537.63L1437.68 1538.07H1438.56C1476.35 1538.07 1499.59 1521.76 1508.28 1489.14C1511.12 1478.59 1512.53 1466.92 1512.53 1454.13C1512.53 1441.24 1510.97 1430.16 1507.84 1420.88C1504.82 1411.5 1500.28 1403.59 1494.22 1397.15C1482.01 1384.16 1464.24 1377.67 1440.9 1377.67Z" fill="white"/>
<circle cx="984.83" cy="682.035" r="330.65" stroke="#33363F" stroke-width="2" stroke-linecap="round"/>
<circle cx="874.947" cy="608.78" r="36.8778" fill="#33363F" stroke="#33363F" stroke-width="0.5" stroke-linecap="round"/>
<circle cx="1094.71" cy="608.78" r="36.8778" fill="#33363F" stroke="#33363F" stroke-width="0.5" stroke-linecap="round"/>
<path fill-rule="evenodd" clip-rule="evenodd" d="M840.391 791.919C840.117 791.919 839.98 791.919 839.906 792.008C839.831 792.096 839.853 792.231 839.899 792.501C850.34 854.343 911.251 901.802 984.83 901.802C1058.41 901.802 1119.32 854.343 1129.76 792.501C1129.81 792.231 1129.83 792.096 1129.75 792.008C1129.68 791.919 1129.54 791.919 1129.27 791.919H840.391Z" fill="#33363F"/>
</g>
<defs>
<filter id="filter0_d_891_1971" x="0" y="1.68066" width="1961" height="1673.52" filterUnits="userSpaceOnUse" color-interpolation-filters="sRGB">
<feFlood flood-opacity="0" result="BackgroundImageFix"/>
<feColorMatrix in="SourceAlpha" type="matrix" values="0 0 0 0 0 0 0 0 0 0 0 0 0 0 0 0 0 0 127 0" result="hardAlpha"/>
<feOffset dy="4"/>
<feGaussianBlur stdDeviation="2"/>
<feComposite in2="hardAlpha" operator="out"/>
<feColorMatrix type="matrix" values="0 0 0 0 0 0 0 0 0 0 0 0 0 0 0 0 0 0 0.25 0"/>
<feBlend mode="normal" in2="BackgroundImageFix" result="effect1_dropShadow_891_1971"/>
<feBlend mode="normal" in="SourceGraphic" in2="effect1_dropShadow_891_1971" result="shape"/>
</filter>
<linearGradient id="paint0_linear_891_1971" x1="976.301" y1="0" x2="976.301" y2="1385.72" gradientUnits="userSpaceOnUse">
<stop stop-color="#FFE175"/>
<stop offset="1" stop-color="#FFD12E"/>
</linearGradient>
</defs>
</svg>
